<?xml version="1.0" encoding="utf-8" standalone="no"?>
<!DOCTYPE svg PUBLIC "-//W3C//DTD SVG 1.1//EN"
  "http://www.w3.org/Graphics/SVG/1.1/DTD/svg11.dtd">
<svg xmlns:xlink="http://www.w3.org/1999/xlink" width="683.875325pt" height="324.258719pt" viewBox="0 0 683.875325 324.258719" xmlns="http://www.w3.org/2000/svg" version="1.1">
 <metadata>
  <rdf:RDF xmlns:dc="http://purl.org/dc/elements/1.1/" xmlns:cc="http://creativecommons.org/ns#" xmlns:rdf="http://www.w3.org/1999/02/22-rdf-syntax-ns#">
   <cc:Work>
    <dc:type rdf:resource="http://purl.org/dc/dcmitype/StillImage"/>
    <dc:date>2026-06-15T21:38:39.953824</dc:date>
    <dc:format>image/svg+xml</dc:format>
    <dc:creator>
     <cc:Agent>
      <dc:title>Matplotlib v3.10.9, https://matplotlib.org/</dc:title>
     </cc:Agent>
    </dc:creator>
   </cc:Work>
  </rdf:RDF>
 </metadata>
 <defs>
  <style type="text/css">*{stroke-linejoin: round; stroke-linecap: butt}</style>
 </defs>
 <g id="figure_1">
  <g id="patch_1">
   <path d="M 0 324.258719 
L 683.875325 324.258719 
L 683.875325 0 
L 0 0 
z
" style="fill: #ffffff"/>
  </g>
  <g id="axes_1">
   <g id="patch_2">
    <path d="M 33.604375 287.670281 
L 546.964375 287.670281 
L 546.964375 21.558281 
L 33.604375 21.558281 
z
" style="fill: #ffffff"/>
   </g>
   <g id="patch_3">
    <path d="M 65.689375 287.670281 
L 78.523375 287.670281 
L 78.523375 69.777572 
L 65.689375 69.777572 
z
" clip-path="url(#pa008b36cbb)" style="fill: #1f77b4"/>
   </g>
   <g id="patch_4">
    <path d="M 194.029375 287.670281 
L 206.863375 287.670281 
L 206.863375 72.766227 
L 194.029375 72.766227 
z
" clip-path="url(#pa008b36cbb)" style="fill: #1f77b4"/>
   </g>
   <g id="patch_5">
    <path d="M 322.369375 287.670281 
L 335.203375 287.670281 
L 335.203375 65.009679 
L 322.369375 65.009679 
z
" clip-path="url(#pa008b36cbb)" style="fill: #1f77b4"/>
   </g>
   <g id="patch_6">
    <path d="M 450.709375 287.670281 
L 463.543375 287.670281 
L 463.543375 66.440047 
L 450.709375 66.440047 
z
" clip-path="url(#pa008b36cbb)" style="fill: #1f77b4"/>
   </g>
   <g id="patch_7">
    <path d="M 78.523375 287.670281 
L 91.357375 287.670281 
L 91.357375 61.195365 
L 78.523375 61.195365 
z
" clip-path="url(#pa008b36cbb)" style="fill: #ff7f0e"/>
   </g>
   <g id="patch_8">
    <path d="M 206.863375 287.670281 
L 219.697375 287.670281 
L 219.697375 45.32177 
L 206.863375 45.32177 
z
" clip-path="url(#pa008b36cbb)" style="fill: #ff7f0e"/>
   </g>
   <g id="patch_9">
    <path d="M 335.203375 287.670281 
L 348.037375 287.670281 
L 348.037375 52.136368 
L 335.203375 52.136368 
z
" clip-path="url(#pa008b36cbb)" style="fill: #ff7f0e"/>
   </g>
   <g id="patch_10">
    <path d="M 463.543375 287.670281 
L 476.377375 287.670281 
L 476.377375 34.230281 
L 463.543375 34.230281 
z
" clip-path="url(#pa008b36cbb)" style="fill: #ff7f0e"/>
   </g>
   <g id="patch_11">
    <path d="M 91.357375 287.670281 
L 104.191375 287.670281 
L 104.191375 130.329813 
L 91.357375 130.329813 
z
" clip-path="url(#pa008b36cbb)" style="fill: #2ca02c"/>
   </g>
   <g id="patch_12">
    <path d="M 219.697375 287.670281 
L 232.531375 287.670281 
L 232.531375 105.327447 
L 219.697375 105.327447 
z
" clip-path="url(#pa008b36cbb)" style="fill: #2ca02c"/>
   </g>
   <g id="patch_13">
    <path d="M 348.037375 287.670281 
L 360.871375 287.670281 
L 360.871375 119.840448 
L 348.037375 119.840448 
z
" clip-path="url(#pa008b36cbb)" style="fill: #2ca02c"/>
   </g>
   <g id="patch_14">
    <path d="M 476.377375 287.670281 
L 489.211375 287.670281 
L 489.211375 95.683124 
L 476.377375 95.683124 
z
" clip-path="url(#pa008b36cbb)" style="fill: #2ca02c"/>
   </g>
   <g id="patch_15">
    <path d="M 104.191375 287.670281 
L 117.025375 287.670281 
L 117.025375 127.469077 
L 104.191375 127.469077 
z
" clip-path="url(#pa008b36cbb)" style="fill: #d62728"/>
   </g>
   <g id="patch_16">
    <path d="M 232.531375 287.670281 
L 245.365375 287.670281 
L 245.365375 73.696548 
L 232.531375 73.696548 
z
" clip-path="url(#pa008b36cbb)" style="fill: #d62728"/>
   </g>
   <g id="patch_17">
    <path d="M 360.871375 287.670281 
L 373.705375 287.670281 
L 373.705375 103.629612 
L 360.871375 103.629612 
z
" clip-path="url(#pa008b36cbb)" style="fill: #d62728"/>
   </g>
   <g id="patch_18">
    <path d="M 489.211375 287.670281 
L 502.045375 287.670281 
L 502.045375 65.592422 
L 489.211375 65.592422 
z
" clip-path="url(#pa008b36cbb)" style="fill: #d62728"/>
   </g>
   <g id="patch_19">
    <path d="M 117.025375 287.670281 
L 129.859375 287.670281 
L 129.859375 116.026134 
L 117.025375 116.026134 
z
" clip-path="url(#pa008b36cbb)" style="fill: #9467bd"/>
   </g>
   <g id="patch_20">
    <path d="M 245.365375 287.670281 
L 258.199375 287.670281 
L 258.199375 82.534593 
L 245.365375 82.534593 
z
" clip-path="url(#pa008b36cbb)" style="fill: #9467bd"/>
   </g>
   <g id="patch_21">
    <path d="M 373.705375 287.670281 
L 386.539375 287.670281 
L 386.539375 99.815298 
L 373.705375 99.815298 
z
" clip-path="url(#pa008b36cbb)" style="fill: #9467bd"/>
   </g>
   <g id="patch_22">
    <path d="M 502.045375 287.670281 
L 514.879375 287.670281 
L 514.879375 68.982923 
L 502.045375 68.982923 
z
" clip-path="url(#pa008b36cbb)" style="fill: #9467bd"/>
   </g>
   <g id="matplotlib.axis_1">
    <g id="xtick_1">
     <g id="line2d_1">
      <path d="M 97.774375 287.670281 
L 97.774375 21.558281 
" clip-path="url(#pa008b36cbb)" style="fill: none; stroke: #b0b0b0; stroke-opacity: 0.3; stroke-width: 0.8; stroke-linecap: square"/>
     </g>
     <g id="line2d_2">
      <defs>
       <path id="m0467fa132d" d="M 0 0 
L 0 3.5 
" style="stroke: #000000; stroke-width: 0.8"/>
      </defs>
      <g>
       <use xlink:href="#m0467fa132d" x="97.774375" y="287.670281" style="stroke: #000000; stroke-width: 0.8"/>
      </g>
     </g>
     <g id="text_1">
      <!-- Human only -->
      <g transform="translate(70.596484 301.508875) scale(0.09 -0.09)">
       <defs>
        <path id="DejaVuSans-48" d="M 628 4666 
L 1259 4666 
L 1259 2753 
L 3553 2753 
L 3553 4666 
L 4184 4666 
L 4184 0 
L 3553 0 
L 3553 2222 
L 1259 2222 
L 1259 0 
L 628 0 
L 628 4666 
z
" transform="scale(0.015625)"/>
        <path id="DejaVuSans-75" d="M 544 1381 
L 544 3500 
L 1119 3500 
L 1119 1403 
Q 1119 906 1312 657 
Q 1506 409 1894 409 
Q 2359 409 2629 706 
Q 2900 1003 2900 1516 
L 2900 3500 
L 3475 3500 
L 3475 0 
L 2900 0 
L 2900 538 
Q 2691 219 2414 64 
Q 2138 -91 1772 -91 
Q 1169 -91 856 284 
Q 544 659 544 1381 
z
M 1991 3584 
L 1991 3584 
z
" transform="scale(0.015625)"/>
        <path id="DejaVuSans-6d" d="M 3328 2828 
Q 3544 3216 3844 3400 
Q 4144 3584 4550 3584 
Q 5097 3584 5394 3201 
Q 5691 2819 5691 2113 
L 5691 0 
L 5113 0 
L 5113 2094 
Q 5113 2597 4934 2840 
Q 4756 3084 4391 3084 
Q 3944 3084 3684 2787 
Q 3425 2491 3425 1978 
L 3425 0 
L 2847 0 
L 2847 2094 
Q 2847 2600 2669 2842 
Q 2491 3084 2119 3084 
Q 1678 3084 1418 2786 
Q 1159 2488 1159 1978 
L 1159 0 
L 581 0 
L 581 3500 
L 1159 3500 
L 1159 2956 
Q 1356 3278 1631 3431 
Q 1906 3584 2284 3584 
Q 2666 3584 2933 3390 
Q 3200 3197 3328 2828 
z
" transform="scale(0.015625)"/>
        <path id="DejaVuSans-61" d="M 2194 1759 
Q 1497 1759 1228 1600 
Q 959 1441 959 1056 
Q 959 750 1161 570 
Q 1363 391 1709 391 
Q 2188 391 2477 730 
Q 2766 1069 2766 1631 
L 2766 1759 
L 2194 1759 
z
M 3341 1997 
L 3341 0 
L 2766 0 
L 2766 531 
Q 2569 213 2275 61 
Q 1981 -91 1556 -91 
Q 1019 -91 701 211 
Q 384 513 384 1019 
Q 384 1609 779 1909 
Q 1175 2209 1959 2209 
L 2766 2209 
L 2766 2266 
Q 2766 2663 2505 2880 
Q 2244 3097 1772 3097 
Q 1472 3097 1187 3025 
Q 903 2953 641 2809 
L 641 3341 
Q 956 3463 1253 3523 
Q 1550 3584 1831 3584 
Q 2591 3584 2966 3190 
Q 3341 2797 3341 1997 
z
" transform="scale(0.015625)"/>
        <path id="DejaVuSans-6e" d="M 3513 2113 
L 3513 0 
L 2938 0 
L 2938 2094 
Q 2938 2591 2744 2837 
Q 2550 3084 2163 3084 
Q 1697 3084 1428 2787 
Q 1159 2491 1159 1978 
L 1159 0 
L 581 0 
L 581 3500 
L 1159 3500 
L 1159 2956 
Q 1366 3272 1645 3428 
Q 1925 3584 2291 3584 
Q 2894 3584 3203 3211 
Q 3513 2838 3513 2113 
z
" transform="scale(0.015625)"/>
        <path id="DejaVuSans-20" transform="scale(0.015625)"/>
        <path id="DejaVuSans-6f" d="M 1959 3097 
Q 1497 3097 1228 2736 
Q 959 2375 959 1747 
Q 959 1119 1226 758 
Q 1494 397 1959 397 
Q 2419 397 2687 759 
Q 2956 1122 2956 1747 
Q 2956 2369 2687 2733 
Q 2419 3097 1959 3097 
z
M 1959 3584 
Q 2709 3584 3137 3096 
Q 3566 2609 3566 1747 
Q 3566 888 3137 398 
Q 2709 -91 1959 -91 
Q 1206 -91 779 398 
Q 353 888 353 1747 
Q 353 2609 779 3096 
Q 1206 3584 1959 3584 
z
" transform="scale(0.015625)"/>
        <path id="DejaVuSans-6c" d="M 603 4863 
L 1178 4863 
L 1178 0 
L 603 0 
L 603 4863 
z
" transform="scale(0.015625)"/>
        <path id="DejaVuSans-79" d="M 2059 -325 
Q 1816 -950 1584 -1140 
Q 1353 -1331 966 -1331 
L 506 -1331 
L 506 -850 
L 844 -850 
Q 1081 -850 1212 -737 
Q 1344 -625 1503 -206 
L 1606 56 
L 191 3500 
L 800 3500 
L 1894 763 
L 2988 3500 
L 3597 3500 
L 2059 -325 
z
" transform="scale(0.015625)"/>
       </defs>
       <use xlink:href="#DejaVuSans-48"/>
       <use xlink:href="#DejaVuSans-75" transform="translate(75.195312 0)"/>
       <use xlink:href="#DejaVuSans-6d" transform="translate(138.574219 0)"/>
       <use xlink:href="#DejaVuSans-61" transform="translate(235.986328 0)"/>
       <use xlink:href="#DejaVuSans-6e" transform="translate(297.265625 0)"/>
       <use xlink:href="#DejaVuSans-20" transform="translate(360.644531 0)"/>
       <use xlink:href="#DejaVuSans-6f" transform="translate(392.431641 0)"/>
       <use xlink:href="#DejaVuSans-6e" transform="translate(453.613281 0)"/>
       <use xlink:href="#DejaVuSans-6c" transform="translate(516.992188 0)"/>
       <use xlink:href="#DejaVuSans-79" transform="translate(544.775391 0)"/>
      </g>
     </g>
    </g>
    <g id="xtick_2">
     <g id="line2d_3">
      <path d="M 226.114375 287.670281 
L 226.114375 21.558281 
" clip-path="url(#pa008b36cbb)" style="fill: none; stroke: #b0b0b0; stroke-opacity: 0.3; stroke-width: 0.8; stroke-linecap: square"/>
     </g>
     <g id="line2d_4">
      <g>
       <use xlink:href="#m0467fa132d" x="226.114375" y="287.670281" style="stroke: #000000; stroke-width: 0.8"/>
      </g>
     </g>
     <g id="text_2">
      <!-- AI only -->
      <g transform="translate(210.759531 301.508875) scale(0.09 -0.09)">
       <defs>
        <path id="DejaVuSans-41" d="M 2188 4044 
L 1331 1722 
L 3047 1722 
L 2188 4044 
z
M 1831 4666 
L 2547 4666 
L 4325 0 
L 3669 0 
L 3244 1197 
L 1141 1197 
L 716 0 
L 50 0 
L 1831 4666 
z
" transform="scale(0.015625)"/>
        <path id="DejaVuSans-49" d="M 628 4666 
L 1259 4666 
L 1259 0 
L 628 0 
L 628 4666 
z
" transform="scale(0.015625)"/>
       </defs>
       <use xlink:href="#DejaVuSans-41"/>
       <use xlink:href="#DejaVuSans-49" transform="translate(68.408203 0)"/>
       <use xlink:href="#DejaVuSans-20" transform="translate(97.900391 0)"/>
       <use xlink:href="#DejaVuSans-6f" transform="translate(129.6875 0)"/>
       <use xlink:href="#DejaVuSans-6e" transform="translate(190.869141 0)"/>
       <use xlink:href="#DejaVuSans-6c" transform="translate(254.248047 0)"/>
       <use xlink:href="#DejaVuSans-79" transform="translate(282.03125 0)"/>
      </g>
     </g>
    </g>
    <g id="xtick_3">
     <g id="line2d_5">
      <path d="M 354.454375 287.670281 
L 354.454375 21.558281 
" clip-path="url(#pa008b36cbb)" style="fill: none; stroke: #b0b0b0; stroke-opacity: 0.3; stroke-width: 0.8; stroke-linecap: square"/>
     </g>
     <g id="line2d_6">
      <g>
       <use xlink:href="#m0467fa132d" x="354.454375" y="287.670281" style="stroke: #000000; stroke-width: 0.8"/>
      </g>
     </g>
     <g id="text_3">
      <!-- Human → AI -->
      <g transform="translate(327.188594 301.508875) scale(0.09 -0.09)">
       <defs>
        <path id="DejaVuSans-2192" d="M 5050 2147 
L 5050 1866 
L 3822 638 
L 3447 1013 
L 4175 1741 
L 366 1741 
L 366 2272 
L 4175 2272 
L 3447 3000 
L 3822 3375 
L 5050 2147 
z
" transform="scale(0.015625)"/>
       </defs>
       <use xlink:href="#DejaVuSans-48"/>
       <use xlink:href="#DejaVuSans-75" transform="translate(75.195312 0)"/>
       <use xlink:href="#DejaVuSans-6d" transform="translate(138.574219 0)"/>
       <use xlink:href="#DejaVuSans-61" transform="translate(235.986328 0)"/>
       <use xlink:href="#DejaVuSans-6e" transform="translate(297.265625 0)"/>
       <use xlink:href="#DejaVuSans-20" transform="translate(360.644531 0)"/>
       <use xlink:href="#DejaVuSans-2192" transform="translate(392.431641 0)"/>
       <use xlink:href="#DejaVuSans-20" transform="translate(476.220703 0)"/>
       <use xlink:href="#DejaVuSans-41" transform="translate(508.007812 0)"/>
       <use xlink:href="#DejaVuSans-49" transform="translate(576.416016 0)"/>
      </g>
     </g>
    </g>
    <g id="xtick_4">
     <g id="line2d_7">
      <path d="M 482.794375 287.670281 
L 482.794375 21.558281 
" clip-path="url(#pa008b36cbb)" style="fill: none; stroke: #b0b0b0; stroke-opacity: 0.3; stroke-width: 0.8; stroke-linecap: square"/>
     </g>
     <g id="line2d_8">
      <g>
       <use xlink:href="#m0467fa132d" x="482.794375" y="287.670281" style="stroke: #000000; stroke-width: 0.8"/>
      </g>
     </g>
     <g id="text_4">
      <!-- AI → Human -->
      <g transform="translate(455.528594 301.508875) scale(0.09 -0.09)">
       <use xlink:href="#DejaVuSans-41"/>
       <use xlink:href="#DejaVuSans-49" transform="translate(68.408203 0)"/>
       <use xlink:href="#DejaVuSans-20" transform="translate(97.900391 0)"/>
       <use xlink:href="#DejaVuSans-2192" transform="translate(129.6875 0)"/>
       <use xlink:href="#DejaVuSans-20" transform="translate(213.476562 0)"/>
       <use xlink:href="#DejaVuSans-48" transform="translate(245.263672 0)"/>
       <use xlink:href="#DejaVuSans-75" transform="translate(320.458984 0)"/>
       <use xlink:href="#DejaVuSans-6d" transform="translate(383.837891 0)"/>
       <use xlink:href="#DejaVuSans-61" transform="translate(481.25 0)"/>
       <use xlink:href="#DejaVuSans-6e" transform="translate(542.529297 0)"/>
      </g>
     </g>
    </g>
    <g id="text_5">
     <!-- Workflow -->
     <g transform="translate(267.326563 314.979031) scale(0.1 -0.1)">
      <defs>
       <path id="DejaVuSans-57" d="M 213 4666 
L 850 4666 
L 1831 722 
L 2809 4666 
L 3519 4666 
L 4500 722 
L 5478 4666 
L 6119 4666 
L 4947 0 
L 4153 0 
L 3169 4050 
L 2175 0 
L 1381 0 
L 213 4666 
z
" transform="scale(0.015625)"/>
       <path id="DejaVuSans-72" d="M 2631 2963 
Q 2534 3019 2420 3045 
Q 2306 3072 2169 3072 
Q 1681 3072 1420 2755 
Q 1159 2438 1159 1844 
L 1159 0 
L 581 0 
L 581 3500 
L 1159 3500 
L 1159 2956 
Q 1341 3275 1631 3429 
Q 1922 3584 2338 3584 
Q 2397 3584 2469 3576 
Q 2541 3569 2628 3553 
L 2631 2963 
z
" transform="scale(0.015625)"/>
       <path id="DejaVuSans-6b" d="M 581 4863 
L 1159 4863 
L 1159 1991 
L 2875 3500 
L 3609 3500 
L 1753 1863 
L 3688 0 
L 2938 0 
L 1159 1709 
L 1159 0 
L 581 0 
L 581 4863 
z
" transform="scale(0.015625)"/>
       <path id="DejaVuSans-66" d="M 2375 4863 
L 2375 4384 
L 1825 4384 
Q 1516 4384 1395 4259 
Q 1275 4134 1275 3809 
L 1275 3500 
L 2222 3500 
L 2222 3053 
L 1275 3053 
L 1275 0 
L 697 0 
L 697 3053 
L 147 3053 
L 147 3500 
L 697 3500 
L 697 3744 
Q 697 4328 969 4595 
Q 1241 4863 1831 4863 
L 2375 4863 
z
" transform="scale(0.015625)"/>
       <path id="DejaVuSans-77" d="M 269 3500 
L 844 3500 
L 1563 769 
L 2278 3500 
L 2956 3500 
L 3675 769 
L 4391 3500 
L 4966 3500 
L 4050 0 
L 3372 0 
L 2619 2869 
L 1863 0 
L 1184 0 
L 269 3500 
z
" transform="scale(0.015625)"/>
      </defs>
      <use xlink:href="#DejaVuSans-57"/>
      <use xlink:href="#DejaVuSans-6f" transform="translate(93.001953 0)"/>
      <use xlink:href="#DejaVuSans-72" transform="translate(154.183594 0)"/>
      <use xlink:href="#DejaVuSans-6b" transform="translate(195.296875 0)"/>
      <use xlink:href="#DejaVuSans-66" transform="translate(253.207031 0)"/>
      <use xlink:href="#DejaVuSans-6c" transform="translate(288.412109 0)"/>
      <use xlink:href="#DejaVuSans-6f" transform="translate(316.195312 0)"/>
      <use xlink:href="#DejaVuSans-77" transform="translate(377.376953 0)"/>
     </g>
    </g>
   </g>
   <g id="matplotlib.axis_2">
    <g id="ytick_1">
     <g id="line2d_9">
      <path d="M 33.604375 287.670281 
L 546.964375 287.670281 
" clip-path="url(#pa008b36cbb)" style="fill: none; stroke: #b0b0b0; stroke-opacity: 0.3; stroke-width: 0.8; stroke-linecap: square"/>
     </g>
     <g id="line2d_10">
      <defs>
       <path id="md2dc351f1a" d="M 0 0 
L -3.5 0 
" style="stroke: #000000; stroke-width: 0.8"/>
      </defs>
      <g>
       <use xlink:href="#md2dc351f1a" x="33.604375" y="287.670281" style="stroke: #000000; stroke-width: 0.8"/>
      </g>
     </g>
     <g id="text_6">
      <!-- 0 -->
      <g transform="translate(20.878125 291.089578) scale(0.09 -0.09)">
       <defs>
        <path id="DejaVuSans-30" d="M 2034 4250 
Q 1547 4250 1301 3770 
Q 1056 3291 1056 2328 
Q 1056 1369 1301 889 
Q 1547 409 2034 409 
Q 2525 409 2770 889 
Q 3016 1369 3016 2328 
Q 3016 3291 2770 3770 
Q 2525 4250 2034 4250 
z
M 2034 4750 
Q 2819 4750 3233 4129 
Q 3647 3509 3647 2328 
Q 3647 1150 3233 529 
Q 2819 -91 2034 -91 
Q 1250 -91 836 529 
Q 422 1150 422 2328 
Q 422 3509 836 4129 
Q 1250 4750 2034 4750 
z
" transform="scale(0.015625)"/>
       </defs>
       <use xlink:href="#DejaVuSans-30"/>
      </g>
     </g>
    </g>
    <g id="ytick_2">
     <g id="line2d_11">
      <path d="M 33.604375 230.455566 
L 546.964375 230.455566 
" clip-path="url(#pa008b36cbb)" style="fill: none; stroke: #b0b0b0; stroke-opacity: 0.3; stroke-width: 0.8; stroke-linecap: square"/>
     </g>
     <g id="line2d_12">
      <g>
       <use xlink:href="#md2dc351f1a" x="33.604375" y="230.455566" style="stroke: #000000; stroke-width: 0.8"/>
      </g>
     </g>
     <g id="text_7">
      <!-- 1 -->
      <g transform="translate(20.878125 233.874862) scale(0.09 -0.09)">
       <defs>
        <path id="DejaVuSans-31" d="M 794 531 
L 1825 531 
L 1825 4091 
L 703 3866 
L 703 4441 
L 1819 4666 
L 2450 4666 
L 2450 531 
L 3481 531 
L 3481 0 
L 794 0 
L 794 531 
z
" transform="scale(0.015625)"/>
       </defs>
       <use xlink:href="#DejaVuSans-31"/>
      </g>
     </g>
    </g>
    <g id="ytick_3">
     <g id="line2d_13">
      <path d="M 33.604375 173.24085 
L 546.964375 173.24085 
" clip-path="url(#pa008b36cbb)" style="fill: none; stroke: #b0b0b0; stroke-opacity: 0.3; stroke-width: 0.8; stroke-linecap: square"/>
     </g>
     <g id="line2d_14">
      <g>
       <use xlink:href="#md2dc351f1a" x="33.604375" y="173.24085" style="stroke: #000000; stroke-width: 0.8"/>
      </g>
     </g>
     <g id="text_8">
      <!-- 2 -->
      <g transform="translate(20.878125 176.660147) scale(0.09 -0.09)">
       <defs>
        <path id="DejaVuSans-32" d="M 1228 531 
L 3431 531 
L 3431 0 
L 469 0 
L 469 531 
Q 828 903 1448 1529 
Q 2069 2156 2228 2338 
Q 2531 2678 2651 2914 
Q 2772 3150 2772 3378 
Q 2772 3750 2511 3984 
Q 2250 4219 1831 4219 
Q 1534 4219 1204 4116 
Q 875 4013 500 3803 
L 500 4441 
Q 881 4594 1212 4672 
Q 1544 4750 1819 4750 
Q 2544 4750 2975 4387 
Q 3406 4025 3406 3419 
Q 3406 3131 3298 2873 
Q 3191 2616 2906 2266 
Q 2828 2175 2409 1742 
Q 1991 1309 1228 531 
z
" transform="scale(0.015625)"/>
       </defs>
       <use xlink:href="#DejaVuSans-32"/>
      </g>
     </g>
    </g>
    <g id="ytick_4">
     <g id="line2d_15">
      <path d="M 33.604375 116.026134 
L 546.964375 116.026134 
" clip-path="url(#pa008b36cbb)" style="fill: none; stroke: #b0b0b0; stroke-opacity: 0.3; stroke-width: 0.8; stroke-linecap: square"/>
     </g>
     <g id="line2d_16">
      <g>
       <use xlink:href="#md2dc351f1a" x="33.604375" y="116.026134" style="stroke: #000000; stroke-width: 0.8"/>
      </g>
     </g>
     <g id="text_9">
      <!-- 3 -->
      <g transform="translate(20.878125 119.445431) scale(0.09 -0.09)">
       <defs>
        <path id="DejaVuSans-33" d="M 2597 2516 
Q 3050 2419 3304 2112 
Q 3559 1806 3559 1356 
Q 3559 666 3084 287 
Q 2609 -91 1734 -91 
Q 1441 -91 1130 -33 
Q 819 25 488 141 
L 488 750 
Q 750 597 1062 519 
Q 1375 441 1716 441 
Q 2309 441 2620 675 
Q 2931 909 2931 1356 
Q 2931 1769 2642 2001 
Q 2353 2234 1838 2234 
L 1294 2234 
L 1294 2753 
L 1863 2753 
Q 2328 2753 2575 2939 
Q 2822 3125 2822 3475 
Q 2822 3834 2567 4026 
Q 2313 4219 1838 4219 
Q 1578 4219 1281 4162 
Q 984 4106 628 3988 
L 628 4550 
Q 988 4650 1302 4700 
Q 1616 4750 1894 4750 
Q 2613 4750 3031 4423 
Q 3450 4097 3450 3541 
Q 3450 3153 3228 2886 
Q 3006 2619 2597 2516 
z
" transform="scale(0.015625)"/>
       </defs>
       <use xlink:href="#DejaVuSans-33"/>
      </g>
     </g>
    </g>
    <g id="ytick_5">
     <g id="line2d_17">
      <path d="M 33.604375 58.811418 
L 546.964375 58.811418 
" clip-path="url(#pa008b36cbb)" style="fill: none; stroke: #b0b0b0; stroke-opacity: 0.3; stroke-width: 0.8; stroke-linecap: square"/>
     </g>
     <g id="line2d_18">
      <g>
       <use xlink:href="#md2dc351f1a" x="33.604375" y="58.811418" style="stroke: #000000; stroke-width: 0.8"/>
      </g>
     </g>
     <g id="text_10">
      <!-- 4 -->
      <g transform="translate(20.878125 62.230715) scale(0.09 -0.09)">
       <defs>
        <path id="DejaVuSans-34" d="M 2419 4116 
L 825 1625 
L 2419 1625 
L 2419 4116 
z
M 2253 4666 
L 3047 4666 
L 3047 1625 
L 3713 1625 
L 3713 1100 
L 3047 1100 
L 3047 0 
L 2419 0 
L 2419 1100 
L 313 1100 
L 313 1709 
L 2253 4666 
z
" transform="scale(0.015625)"/>
       </defs>
       <use xlink:href="#DejaVuSans-34"/>
      </g>
     </g>
    </g>
    <g id="text_11">
     <!-- Mean rating score (1–5) -->
     <g transform="translate(14.798438 214.0135) rotate(-90) scale(0.1 -0.1)">
      <defs>
       <path id="DejaVuSans-4d" d="M 628 4666 
L 1569 4666 
L 2759 1491 
L 3956 4666 
L 4897 4666 
L 4897 0 
L 4281 0 
L 4281 4097 
L 3078 897 
L 2444 897 
L 1241 4097 
L 1241 0 
L 628 0 
L 628 4666 
z
" transform="scale(0.015625)"/>
       <path id="DejaVuSans-65" d="M 3597 1894 
L 3597 1613 
L 953 1613 
Q 991 1019 1311 708 
Q 1631 397 2203 397 
Q 2534 397 2845 478 
Q 3156 559 3463 722 
L 3463 178 
Q 3153 47 2828 -22 
Q 2503 -91 2169 -91 
Q 1331 -91 842 396 
Q 353 884 353 1716 
Q 353 2575 817 3079 
Q 1281 3584 2069 3584 
Q 2775 3584 3186 3129 
Q 3597 2675 3597 1894 
z
M 3022 2063 
Q 3016 2534 2758 2815 
Q 2500 3097 2075 3097 
Q 1594 3097 1305 2825 
Q 1016 2553 972 2059 
L 3022 2063 
z
" transform="scale(0.015625)"/>
       <path id="DejaVuSans-74" d="M 1172 4494 
L 1172 3500 
L 2356 3500 
L 2356 3053 
L 1172 3053 
L 1172 1153 
Q 1172 725 1289 603 
Q 1406 481 1766 481 
L 2356 481 
L 2356 0 
L 1766 0 
Q 1100 0 847 248 
Q 594 497 594 1153 
L 594 3053 
L 172 3053 
L 172 3500 
L 594 3500 
L 594 4494 
L 1172 4494 
z
" transform="scale(0.015625)"/>
       <path id="DejaVuSans-69" d="M 603 3500 
L 1178 3500 
L 1178 0 
L 603 0 
L 603 3500 
z
M 603 4863 
L 1178 4863 
L 1178 4134 
L 603 4134 
L 603 4863 
z
" transform="scale(0.015625)"/>
       <path id="DejaVuSans-67" d="M 2906 1791 
Q 2906 2416 2648 2759 
Q 2391 3103 1925 3103 
Q 1463 3103 1205 2759 
Q 947 2416 947 1791 
Q 947 1169 1205 825 
Q 1463 481 1925 481 
Q 2391 481 2648 825 
Q 2906 1169 2906 1791 
z
M 3481 434 
Q 3481 -459 3084 -895 
Q 2688 -1331 1869 -1331 
Q 1566 -1331 1297 -1286 
Q 1028 -1241 775 -1147 
L 775 -588 
Q 1028 -725 1275 -790 
Q 1522 -856 1778 -856 
Q 2344 -856 2625 -561 
Q 2906 -266 2906 331 
L 2906 616 
Q 2728 306 2450 153 
Q 2172 0 1784 0 
Q 1141 0 747 490 
Q 353 981 353 1791 
Q 353 2603 747 3093 
Q 1141 3584 1784 3584 
Q 2172 3584 2450 3431 
Q 2728 3278 2906 2969 
L 2906 3500 
L 3481 3500 
L 3481 434 
z
" transform="scale(0.015625)"/>
       <path id="DejaVuSans-73" d="M 2834 3397 
L 2834 2853 
Q 2591 2978 2328 3040 
Q 2066 3103 1784 3103 
Q 1356 3103 1142 2972 
Q 928 2841 928 2578 
Q 928 2378 1081 2264 
Q 1234 2150 1697 2047 
L 1894 2003 
Q 2506 1872 2764 1633 
Q 3022 1394 3022 966 
Q 3022 478 2636 193 
Q 2250 -91 1575 -91 
Q 1294 -91 989 -36 
Q 684 19 347 128 
L 347 722 
Q 666 556 975 473 
Q 1284 391 1588 391 
Q 1994 391 2212 530 
Q 2431 669 2431 922 
Q 2431 1156 2273 1281 
Q 2116 1406 1581 1522 
L 1381 1569 
Q 847 1681 609 1914 
Q 372 2147 372 2553 
Q 372 3047 722 3315 
Q 1072 3584 1716 3584 
Q 2034 3584 2315 3537 
Q 2597 3491 2834 3397 
z
" transform="scale(0.015625)"/>
       <path id="DejaVuSans-63" d="M 3122 3366 
L 3122 2828 
Q 2878 2963 2633 3030 
Q 2388 3097 2138 3097 
Q 1578 3097 1268 2742 
Q 959 2388 959 1747 
Q 959 1106 1268 751 
Q 1578 397 2138 397 
Q 2388 397 2633 464 
Q 2878 531 3122 666 
L 3122 134 
Q 2881 22 2623 -34 
Q 2366 -91 2075 -91 
Q 1284 -91 818 406 
Q 353 903 353 1747 
Q 353 2603 823 3093 
Q 1294 3584 2113 3584 
Q 2378 3584 2631 3529 
Q 2884 3475 3122 3366 
z
" transform="scale(0.015625)"/>
       <path id="DejaVuSans-28" d="M 1984 4856 
Q 1566 4138 1362 3434 
Q 1159 2731 1159 2009 
Q 1159 1288 1364 580 
Q 1569 -128 1984 -844 
L 1484 -844 
Q 1016 -109 783 600 
Q 550 1309 550 2009 
Q 550 2706 781 3412 
Q 1013 4119 1484 4856 
L 1984 4856 
z
" transform="scale(0.015625)"/>
       <path id="DejaVuSans-2013" d="M 313 1978 
L 2888 1978 
L 2888 1528 
L 313 1528 
L 313 1978 
z
" transform="scale(0.015625)"/>
       <path id="DejaVuSans-35" d="M 691 4666 
L 3169 4666 
L 3169 4134 
L 1269 4134 
L 1269 2991 
Q 1406 3038 1543 3061 
Q 1681 3084 1819 3084 
Q 2600 3084 3056 2656 
Q 3513 2228 3513 1497 
Q 3513 744 3044 326 
Q 2575 -91 1722 -91 
Q 1428 -91 1123 -41 
Q 819 9 494 109 
L 494 744 
Q 775 591 1075 516 
Q 1375 441 1709 441 
Q 2250 441 2565 725 
Q 2881 1009 2881 1497 
Q 2881 1984 2565 2268 
Q 2250 2553 1709 2553 
Q 1456 2553 1204 2497 
Q 953 2441 691 2322 
L 691 4666 
z
" transform="scale(0.015625)"/>
       <path id="DejaVuSans-29" d="M 513 4856 
L 1013 4856 
Q 1481 4119 1714 3412 
Q 1947 2706 1947 2009 
Q 1947 1309 1714 600 
Q 1481 -109 1013 -844 
L 513 -844 
Q 928 -128 1133 580 
Q 1338 1288 1338 2009 
Q 1338 2731 1133 3434 
Q 928 4138 513 4856 
z
" transform="scale(0.015625)"/>
      </defs>
      <use xlink:href="#DejaVuSans-4d"/>
      <use xlink:href="#DejaVuSans-65" transform="translate(86.279297 0)"/>
      <use xlink:href="#DejaVuSans-61" transform="translate(147.802734 0)"/>
      <use xlink:href="#DejaVuSans-6e" transform="translate(209.082031 0)"/>
      <use xlink:href="#DejaVuSans-20" transform="translate(272.460938 0)"/>
      <use xlink:href="#DejaVuSans-72" transform="translate(304.248047 0)"/>
      <use xlink:href="#DejaVuSans-61" transform="translate(345.361328 0)"/>
      <use xlink:href="#DejaVuSans-74" transform="translate(406.640625 0)"/>
      <use xlink:href="#DejaVuSans-69" transform="translate(445.849609 0)"/>
      <use xlink:href="#DejaVuSans-6e" transform="translate(473.632812 0)"/>
      <use xlink:href="#DejaVuSans-67" transform="translate(537.011719 0)"/>
      <use xlink:href="#DejaVuSans-20" transform="translate(600.488281 0)"/>
      <use xlink:href="#DejaVuSans-73" transform="translate(632.275391 0)"/>
      <use xlink:href="#DejaVuSans-63" transform="translate(684.375 0)"/>
      <use xlink:href="#DejaVuSans-6f" transform="translate(739.355469 0)"/>
      <use xlink:href="#DejaVuSans-72" transform="translate(800.537109 0)"/>
      <use xlink:href="#DejaVuSans-65" transform="translate(839.400391 0)"/>
      <use xlink:href="#DejaVuSans-20" transform="translate(900.923828 0)"/>
      <use xlink:href="#DejaVuSans-28" transform="translate(932.710938 0)"/>
      <use xlink:href="#DejaVuSans-31" transform="translate(971.724609 0)"/>
      <use xlink:href="#DejaVuSans-2013" transform="translate(1035.347656 0)"/>
      <use xlink:href="#DejaVuSans-35" transform="translate(1085.347656 0)"/>
      <use xlink:href="#DejaVuSans-29" transform="translate(1148.970703 0)"/>
     </g>
    </g>
   </g>
   <g id="patch_23">
    <path d="M 33.604375 287.670281 
L 33.604375 21.558281 
" style="fill: none; stroke: #000000; stroke-width: 0.8; stroke-linejoin: miter; stroke-linecap: square"/>
   </g>
   <g id="patch_24">
    <path d="M 33.604375 287.670281 
L 546.964375 287.670281 
" style="fill: none; stroke: #000000; stroke-width: 0.8; stroke-linejoin: miter; stroke-linecap: square"/>
   </g>
   <g id="text_12">
    <!-- Poem Evaluation Dimensions by Workflow -->
    <g transform="translate(174.948516 15.558281) scale(0.11 -0.11)">
     <defs>
      <path id="DejaVuSans-50" d="M 1259 4147 
L 1259 2394 
L 2053 2394 
Q 2494 2394 2734 2622 
Q 2975 2850 2975 3272 
Q 2975 3691 2734 3919 
Q 2494 4147 2053 4147 
L 1259 4147 
z
M 628 4666 
L 2053 4666 
Q 2838 4666 3239 4311 
Q 3641 3956 3641 3272 
Q 3641 2581 3239 2228 
Q 2838 1875 2053 1875 
L 1259 1875 
L 1259 0 
L 628 0 
L 628 4666 
z
" transform="scale(0.015625)"/>
      <path id="DejaVuSans-45" d="M 628 4666 
L 3578 4666 
L 3578 4134 
L 1259 4134 
L 1259 2753 
L 3481 2753 
L 3481 2222 
L 1259 2222 
L 1259 531 
L 3634 531 
L 3634 0 
L 628 0 
L 628 4666 
z
" transform="scale(0.015625)"/>
      <path id="DejaVuSans-76" d="M 191 3500 
L 800 3500 
L 1894 563 
L 2988 3500 
L 3597 3500 
L 2284 0 
L 1503 0 
L 191 3500 
z
" transform="scale(0.015625)"/>
      <path id="DejaVuSans-44" d="M 1259 4147 
L 1259 519 
L 2022 519 
Q 2988 519 3436 956 
Q 3884 1394 3884 2338 
Q 3884 3275 3436 3711 
Q 2988 4147 2022 4147 
L 1259 4147 
z
M 628 4666 
L 1925 4666 
Q 3281 4666 3915 4102 
Q 4550 3538 4550 2338 
Q 4550 1131 3912 565 
Q 3275 0 1925 0 
L 628 0 
L 628 4666 
z
" transform="scale(0.015625)"/>
      <path id="DejaVuSans-62" d="M 3116 1747 
Q 3116 2381 2855 2742 
Q 2594 3103 2138 3103 
Q 1681 3103 1420 2742 
Q 1159 2381 1159 1747 
Q 1159 1113 1420 752 
Q 1681 391 2138 391 
Q 2594 391 2855 752 
Q 3116 1113 3116 1747 
z
M 1159 2969 
Q 1341 3281 1617 3432 
Q 1894 3584 2278 3584 
Q 2916 3584 3314 3078 
Q 3713 2572 3713 1747 
Q 3713 922 3314 415 
Q 2916 -91 2278 -91 
Q 1894 -91 1617 61 
Q 1341 213 1159 525 
L 1159 0 
L 581 0 
L 581 4863 
L 1159 4863 
L 1159 2969 
z
" transform="scale(0.015625)"/>
     </defs>
     <use xlink:href="#DejaVuSans-50"/>
     <use xlink:href="#DejaVuSans-6f" transform="translate(56.677734 0)"/>
     <use xlink:href="#DejaVuSans-65" transform="translate(117.859375 0)"/>
     <use xlink:href="#DejaVuSans-6d" transform="translate(179.382812 0)"/>
     <use xlink:href="#DejaVuSans-20" transform="translate(276.794922 0)"/>
     <use xlink:href="#DejaVuSans-45" transform="translate(308.582031 0)"/>
     <use xlink:href="#DejaVuSans-76" transform="translate(371.765625 0)"/>
     <use xlink:href="#DejaVuSans-61" transform="translate(430.945312 0)"/>
     <use xlink:href="#DejaVuSans-6c" transform="translate(492.224609 0)"/>
     <use xlink:href="#DejaVuSans-75" transform="translate(520.007812 0)"/>
     <use xlink:href="#DejaVuSans-61" transform="translate(583.386719 0)"/>
     <use xlink:href="#DejaVuSans-74" transform="translate(644.666016 0)"/>
     <use xlink:href="#DejaVuSans-69" transform="translate(683.875 0)"/>
     <use xlink:href="#DejaVuSans-6f" transform="translate(711.658203 0)"/>
     <use xlink:href="#DejaVuSans-6e" transform="translate(772.839844 0)"/>
     <use xlink:href="#DejaVuSans-20" transform="translate(836.21875 0)"/>
     <use xlink:href="#DejaVuSans-44" transform="translate(868.005859 0)"/>
     <use xlink:href="#DejaVuSans-69" transform="translate(945.007812 0)"/>
     <use xlink:href="#DejaVuSans-6d" transform="translate(972.791016 0)"/>
     <use xlink:href="#DejaVuSans-65" transform="translate(1070.203125 0)"/>
     <use xlink:href="#DejaVuSans-6e" transform="translate(1131.726562 0)"/>
     <use xlink:href="#DejaVuSans-73" transform="translate(1195.105469 0)"/>
     <use xlink:href="#DejaVuSans-69" transform="translate(1247.205078 0)"/>
     <use xlink:href="#DejaVuSans-6f" transform="translate(1274.988281 0)"/>
     <use xlink:href="#DejaVuSans-6e" transform="translate(1336.169922 0)"/>
     <use xlink:href="#DejaVuSans-73" transform="translate(1399.548828 0)"/>
     <use xlink:href="#DejaVuSans-20" transform="translate(1451.648438 0)"/>
     <use xlink:href="#DejaVuSans-62" transform="translate(1483.435547 0)"/>
     <use xlink:href="#DejaVuSans-79" transform="translate(1546.912109 0)"/>
     <use xlink:href="#DejaVuSans-20" transform="translate(1606.091797 0)"/>
     <use xlink:href="#DejaVuSans-57" transform="translate(1637.878906 0)"/>
     <use xlink:href="#DejaVuSans-6f" transform="translate(1730.880859 0)"/>
     <use xlink:href="#DejaVuSans-72" transform="translate(1792.0625 0)"/>
     <use xlink:href="#DejaVuSans-6b" transform="translate(1833.175781 0)"/>
     <use xlink:href="#DejaVuSans-66" transform="translate(1891.085938 0)"/>
     <use xlink:href="#DejaVuSans-6c" transform="translate(1926.291016 0)"/>
     <use xlink:href="#DejaVuSans-6f" transform="translate(1954.074219 0)"/>
     <use xlink:href="#DejaVuSans-77" transform="translate(2015.255859 0)"/>
    </g>
   </g>
   <g id="legend_1">
    <g id="patch_25">
     <path d="M 563.531575 108.987969 
L 674.875325 108.987969 
Q 676.675325 108.987969 676.675325 107.187969 
L 676.675325 27.858281 
Q 676.675325 26.058281 674.875325 26.058281 
L 563.531575 26.058281 
Q 561.731575 26.058281 561.731575 27.858281 
L 561.731575 107.187969 
Q 561.731575 108.987969 563.531575 108.987969 
z
" style="fill: #ffffff; opacity: 0.8; stroke: #cccccc; stroke-linejoin: miter"/>
    </g>
    <g id="text_13">
     <!-- Evaluation dimension -->
     <g transform="translate(565.331575 37.256719) scale(0.1 -0.1)">
      <defs>
       <path id="DejaVuSans-64" d="M 2906 2969 
L 2906 4863 
L 3481 4863 
L 3481 0 
L 2906 0 
L 2906 525 
Q 2725 213 2448 61 
Q 2172 -91 1784 -91 
Q 1150 -91 751 415 
Q 353 922 353 1747 
Q 353 2572 751 3078 
Q 1150 3584 1784 3584 
Q 2172 3584 2448 3432 
Q 2725 3281 2906 2969 
z
M 947 1747 
Q 947 1113 1208 752 
Q 1469 391 1925 391 
Q 2381 391 2643 752 
Q 2906 1113 2906 1747 
Q 2906 2381 2643 2742 
Q 2381 3103 1925 3103 
Q 1469 3103 1208 2742 
Q 947 2381 947 1747 
z
" transform="scale(0.015625)"/>
      </defs>
      <use xlink:href="#DejaVuSans-45"/>
      <use xlink:href="#DejaVuSans-76" transform="translate(63.183594 0)"/>
      <use xlink:href="#DejaVuSans-61" transform="translate(122.363281 0)"/>
      <use xlink:href="#DejaVuSans-6c" transform="translate(183.642578 0)"/>
      <use xlink:href="#DejaVuSans-75" transform="translate(211.425781 0)"/>
      <use xlink:href="#DejaVuSans-61" transform="translate(274.804688 0)"/>
      <use xlink:href="#DejaVuSans-74" transform="translate(336.083984 0)"/>
      <use xlink:href="#DejaVuSans-69" transform="translate(375.292969 0)"/>
      <use xlink:href="#DejaVuSans-6f" transform="translate(403.076172 0)"/>
      <use xlink:href="#DejaVuSans-6e" transform="translate(464.257812 0)"/>
      <use xlink:href="#DejaVuSans-20" transform="translate(527.636719 0)"/>
      <use xlink:href="#DejaVuSans-64" transform="translate(559.423828 0)"/>
      <use xlink:href="#DejaVuSans-69" transform="translate(622.900391 0)"/>
      <use xlink:href="#DejaVuSans-6d" transform="translate(650.683594 0)"/>
      <use xlink:href="#DejaVuSans-65" transform="translate(748.095703 0)"/>
      <use xlink:href="#DejaVuSans-6e" transform="translate(809.619141 0)"/>
      <use xlink:href="#DejaVuSans-73" transform="translate(872.998047 0)"/>
      <use xlink:href="#DejaVuSans-69" transform="translate(925.097656 0)"/>
      <use xlink:href="#DejaVuSans-6f" transform="translate(952.880859 0)"/>
      <use xlink:href="#DejaVuSans-6e" transform="translate(1014.0625 0)"/>
     </g>
    </g>
    <g id="patch_26">
     <path d="M 566.916966 50.675 
L 584.916966 50.675 
L 584.916966 44.375 
L 566.916966 44.375 
z
" style="fill: #1f77b4"/>
    </g>
    <g id="text_14">
     <!-- Fluency -->
     <g transform="translate(592.116966 50.675) scale(0.09 -0.09)">
      <defs>
       <path id="DejaVuSans-46" d="M 628 4666 
L 3309 4666 
L 3309 4134 
L 1259 4134 
L 1259 2759 
L 3109 2759 
L 3109 2228 
L 1259 2228 
L 1259 0 
L 628 0 
L 628 4666 
z
" transform="scale(0.015625)"/>
      </defs>
      <use xlink:href="#DejaVuSans-46"/>
      <use xlink:href="#DejaVuSans-6c" transform="translate(57.519531 0)"/>
      <use xlink:href="#DejaVuSans-75" transform="translate(85.302734 0)"/>
      <use xlink:href="#DejaVuSans-65" transform="translate(148.681641 0)"/>
      <use xlink:href="#DejaVuSans-6e" transform="translate(210.205078 0)"/>
      <use xlink:href="#DejaVuSans-63" transform="translate(273.583984 0)"/>
      <use xlink:href="#DejaVuSans-79" transform="translate(328.564453 0)"/>
     </g>
    </g>
    <g id="patch_27">
     <path d="M 566.916966 63.885312 
L 584.916966 63.885312 
L 584.916966 57.585312 
L 566.916966 57.585312 
z
" style="fill: #ff7f0e"/>
    </g>
    <g id="text_15">
     <!-- Theme alignment -->
     <g transform="translate(592.116966 63.885312) scale(0.09 -0.09)">
      <defs>
       <path id="DejaVuSans-54" d="M -19 4666 
L 3928 4666 
L 3928 4134 
L 2272 4134 
L 2272 0 
L 1638 0 
L 1638 4134 
L -19 4134 
L -19 4666 
z
" transform="scale(0.015625)"/>
       <path id="DejaVuSans-68" d="M 3513 2113 
L 3513 0 
L 2938 0 
L 2938 2094 
Q 2938 2591 2744 2837 
Q 2550 3084 2163 3084 
Q 1697 3084 1428 2787 
Q 1159 2491 1159 1978 
L 1159 0 
L 581 0 
L 581 4863 
L 1159 4863 
L 1159 2956 
Q 1366 3272 1645 3428 
Q 1925 3584 2291 3584 
Q 2894 3584 3203 3211 
Q 3513 2838 3513 2113 
z
" transform="scale(0.015625)"/>
      </defs>
      <use xlink:href="#DejaVuSans-54"/>
      <use xlink:href="#DejaVuSans-68" transform="translate(61.083984 0)"/>
      <use xlink:href="#DejaVuSans-65" transform="translate(124.462891 0)"/>
      <use xlink:href="#DejaVuSans-6d" transform="translate(185.986328 0)"/>
      <use xlink:href="#DejaVuSans-65" transform="translate(283.398438 0)"/>
      <use xlink:href="#DejaVuSans-20" transform="translate(344.921875 0)"/>
      <use xlink:href="#DejaVuSans-61" transform="translate(376.708984 0)"/>
      <use xlink:href="#DejaVuSans-6c" transform="translate(437.988281 0)"/>
      <use xlink:href="#DejaVuSans-69" transform="translate(465.771484 0)"/>
      <use xlink:href="#DejaVuSans-67" transform="translate(493.554688 0)"/>
      <use xlink:href="#DejaVuSans-6e" transform="translate(557.03125 0)"/>
      <use xlink:href="#DejaVuSans-6d" transform="translate(620.410156 0)"/>
      <use xlink:href="#DejaVuSans-65" transform="translate(717.822266 0)"/>
      <use xlink:href="#DejaVuSans-6e" transform="translate(779.345703 0)"/>
      <use xlink:href="#DejaVuSans-74" transform="translate(842.724609 0)"/>
     </g>
    </g>
    <g id="patch_28">
     <path d="M 566.916966 77.095625 
L 584.916966 77.095625 
L 584.916966 70.795625 
L 566.916966 70.795625 
z
" style="fill: #2ca02c"/>
    </g>
    <g id="text_16">
     <!-- Meaningfulness -->
     <g transform="translate(592.116966 77.095625) scale(0.09 -0.09)">
      <use xlink:href="#DejaVuSans-4d"/>
      <use xlink:href="#DejaVuSans-65" transform="translate(86.279297 0)"/>
      <use xlink:href="#DejaVuSans-61" transform="translate(147.802734 0)"/>
      <use xlink:href="#DejaVuSans-6e" transform="translate(209.082031 0)"/>
      <use xlink:href="#DejaVuSans-69" transform="translate(272.460938 0)"/>
      <use xlink:href="#DejaVuSans-6e" transform="translate(300.244141 0)"/>
      <use xlink:href="#DejaVuSans-67" transform="translate(363.623047 0)"/>
      <use xlink:href="#DejaVuSans-66" transform="translate(427.099609 0)"/>
      <use xlink:href="#DejaVuSans-75" transform="translate(462.304688 0)"/>
      <use xlink:href="#DejaVuSans-6c" transform="translate(525.683594 0)"/>
      <use xlink:href="#DejaVuSans-6e" transform="translate(553.466797 0)"/>
      <use xlink:href="#DejaVuSans-65" transform="translate(616.845703 0)"/>
      <use xlink:href="#DejaVuSans-73" transform="translate(678.369141 0)"/>
      <use xlink:href="#DejaVuSans-73" transform="translate(730.46875 0)"/>
     </g>
    </g>
    <g id="patch_29">
     <path d="M 566.916966 90.305937 
L 584.916966 90.305937 
L 584.916966 84.005937 
L 566.916966 84.005937 
z
" style="fill: #d62728"/>
    </g>
    <g id="text_17">
     <!-- Poeticness -->
     <g transform="translate(592.116966 90.305937) scale(0.09 -0.09)">
      <use xlink:href="#DejaVuSans-50"/>
      <use xlink:href="#DejaVuSans-6f" transform="translate(56.677734 0)"/>
      <use xlink:href="#DejaVuSans-65" transform="translate(117.859375 0)"/>
      <use xlink:href="#DejaVuSans-74" transform="translate(179.382812 0)"/>
      <use xlink:href="#DejaVuSans-69" transform="translate(218.591797 0)"/>
      <use xlink:href="#DejaVuSans-63" transform="translate(246.375 0)"/>
      <use xlink:href="#DejaVuSans-6e" transform="translate(301.355469 0)"/>
      <use xlink:href="#DejaVuSans-65" transform="translate(364.734375 0)"/>
      <use xlink:href="#DejaVuSans-73" transform="translate(426.257812 0)"/>
      <use xlink:href="#DejaVuSans-73" transform="translate(478.357422 0)"/>
     </g>
    </g>
    <g id="patch_30">
     <path d="M 566.916966 103.51625 
L 584.916966 103.51625 
L 584.916966 97.21625 
L 566.916966 97.21625 
z
" style="fill: #9467bd"/>
    </g>
    <g id="text_18">
     <!-- Overall quality -->
     <g transform="translate(592.116966 103.51625) scale(0.09 -0.09)">
      <defs>
       <path id="DejaVuSans-4f" d="M 2522 4238 
Q 1834 4238 1429 3725 
Q 1025 3213 1025 2328 
Q 1025 1447 1429 934 
Q 1834 422 2522 422 
Q 3209 422 3611 934 
Q 4013 1447 4013 2328 
Q 4013 3213 3611 3725 
Q 3209 4238 2522 4238 
z
M 2522 4750 
Q 3503 4750 4090 4092 
Q 4678 3434 4678 2328 
Q 4678 1225 4090 567 
Q 3503 -91 2522 -91 
Q 1538 -91 948 565 
Q 359 1222 359 2328 
Q 359 3434 948 4092 
Q 1538 4750 2522 4750 
z
" transform="scale(0.015625)"/>
       <path id="DejaVuSans-71" d="M 947 1747 
Q 947 1113 1208 752 
Q 1469 391 1925 391 
Q 2381 391 2643 752 
Q 2906 1113 2906 1747 
Q 2906 2381 2643 2742 
Q 2381 3103 1925 3103 
Q 1469 3103 1208 2742 
Q 947 2381 947 1747 
z
M 2906 525 
Q 2725 213 2448 61 
Q 2172 -91 1784 -91 
Q 1150 -91 751 415 
Q 353 922 353 1747 
Q 353 2572 751 3078 
Q 1150 3584 1784 3584 
Q 2172 3584 2448 3432 
Q 2725 3281 2906 2969 
L 2906 3500 
L 3481 3500 
L 3481 -1331 
L 2906 -1331 
L 2906 525 
z
" transform="scale(0.015625)"/>
      </defs>
      <use xlink:href="#DejaVuSans-4f"/>
      <use xlink:href="#DejaVuSans-76" transform="translate(78.710938 0)"/>
      <use xlink:href="#DejaVuSans-65" transform="translate(137.890625 0)"/>
      <use xlink:href="#DejaVuSans-72" transform="translate(199.414062 0)"/>
      <use xlink:href="#DejaVuSans-61" transform="translate(240.527344 0)"/>
      <use xlink:href="#DejaVuSans-6c" transform="translate(301.806641 0)"/>
      <use xlink:href="#DejaVuSans-6c" transform="translate(329.589844 0)"/>
      <use xlink:href="#DejaVuSans-20" transform="translate(357.373047 0)"/>
      <use xlink:href="#DejaVuSans-71" transform="translate(389.160156 0)"/>
      <use xlink:href="#DejaVuSans-75" transform="translate(452.636719 0)"/>
      <use xlink:href="#DejaVuSans-61" transform="translate(516.015625 0)"/>
      <use xlink:href="#DejaVuSans-6c" transform="translate(577.294922 0)"/>
      <use xlink:href="#DejaVuSans-69" transform="translate(605.078125 0)"/>
      <use xlink:href="#DejaVuSans-74" transform="translate(632.861328 0)"/>
      <use xlink:href="#DejaVuSans-79" transform="translate(672.070312 0)"/>
     </g>
    </g>
   </g>
  </g>
 </g>
 <defs>
  <clipPath id="pa008b36cbb">
   <rect x="33.604375" y="21.558281" width="513.36" height="266.112"/>
  </clipPath>
 </defs>
</svg>
