<?xml version="1.0" encoding="utf-8" standalone="no"?>
<!DOCTYPE svg PUBLIC "-//W3C//DTD SVG 1.1//EN"
  "http://www.w3.org/Graphics/SVG/1.1/DTD/svg11.dtd">
<svg xmlns:xlink="http://www.w3.org/1999/xlink" width="656.1pt" height="309.909656pt" viewBox="0 0 656.1 309.909656" xmlns="http://www.w3.org/2000/svg" version="1.1">
 <metadata>
  <rdf:RDF xmlns:dc="http://purl.org/dc/elements/1.1/" xmlns:cc="http://creativecommons.org/ns#" xmlns:rdf="http://www.w3.org/1999/02/22-rdf-syntax-ns#">
   <cc:Work>
    <dc:type rdf:resource="http://purl.org/dc/dcmitype/StillImage"/>
    <dc:date>2026-06-02T22:33:06.114056</dc:date>
    <dc:format>image/svg+xml</dc:format>
    <dc:creator>
     <cc:Agent>
      <dc:title>Matplotlib v3.10.9, https://matplotlib.org/</dc:title>
     </cc:Agent>
    </dc:creator>
   </cc:Work>
  </rdf:RDF>
 </metadata>
 <defs>
  <style type="text/css">*{stroke-linejoin: round; stroke-linecap: butt}</style>
 </defs>
 <g id="figure_1">
  <g id="patch_1">
   <path d="M 0 309.909656 
L 656.1 309.909656 
L 656.1 0 
L 0 0 
z
" style="fill: #ffffff"/>
  </g>
  <g id="axes_1">
   <g id="text_1">
    <g id="patch_2">
     <path d="M 26.451 64.403256 
L 360.926 64.403256 
Q 365.426 64.403256 365.426 59.903256 
L 365.426 49.903256 
Q 365.426 45.403256 360.926 45.403256 
L 26.451 45.403256 
Q 21.951 45.403256 21.951 49.903256 
L 21.951 59.903256 
Q 21.951 64.403256 26.451 64.403256 
z
" style="fill: #f2f2f2; stroke: #d0d0d0; stroke-linejoin: miter"/>
    </g>
    <!-- Poem 1   |   Round 1   |   Human only   |   Mean quality: 1.67 -->
    <g transform="translate(26.451 57.545444) scale(0.1 -0.1)">
     <defs>
      <path id="DejaVuSans-Bold-50" d="M 588 4666 
L 2584 4666 
Q 3475 4666 3951 4270 
Q 4428 3875 4428 3144 
Q 4428 2409 3951 2014 
Q 3475 1619 2584 1619 
L 1791 1619 
L 1791 0 
L 588 0 
L 588 4666 
z
M 1791 3794 
L 1791 2491 
L 2456 2491 
Q 2806 2491 2997 2661 
Q 3188 2831 3188 3144 
Q 3188 3456 2997 3625 
Q 2806 3794 2456 3794 
L 1791 3794 
z
" transform="scale(0.015625)"/>
      <path id="DejaVuSans-Bold-6f" d="M 2203 2784 
Q 1831 2784 1636 2517 
Q 1441 2250 1441 1747 
Q 1441 1244 1636 976 
Q 1831 709 2203 709 
Q 2569 709 2762 976 
Q 2956 1244 2956 1747 
Q 2956 2250 2762 2517 
Q 2569 2784 2203 2784 
z
M 2203 3584 
Q 3106 3584 3614 3096 
Q 4122 2609 4122 1747 
Q 4122 884 3614 396 
Q 3106 -91 2203 -91 
Q 1297 -91 786 396 
Q 275 884 275 1747 
Q 275 2609 786 3096 
Q 1297 3584 2203 3584 
z
" transform="scale(0.015625)"/>
      <path id="DejaVuSans-Bold-65" d="M 4031 1759 
L 4031 1441 
L 1416 1441 
Q 1456 1047 1700 850 
Q 1944 653 2381 653 
Q 2734 653 3104 758 
Q 3475 863 3866 1075 
L 3866 213 
Q 3469 63 3072 -14 
Q 2675 -91 2278 -91 
Q 1328 -91 801 392 
Q 275 875 275 1747 
Q 275 2603 792 3093 
Q 1309 3584 2216 3584 
Q 3041 3584 3536 3087 
Q 4031 2591 4031 1759 
z
M 2881 2131 
Q 2881 2450 2695 2645 
Q 2509 2841 2209 2841 
Q 1884 2841 1681 2658 
Q 1478 2475 1428 2131 
L 2881 2131 
z
" transform="scale(0.015625)"/>
      <path id="DejaVuSans-Bold-6d" d="M 3781 2919 
Q 3994 3244 4286 3414 
Q 4578 3584 4928 3584 
Q 5531 3584 5847 3212 
Q 6163 2841 6163 2131 
L 6163 0 
L 5038 0 
L 5038 1825 
Q 5041 1866 5042 1909 
Q 5044 1953 5044 2034 
Q 5044 2406 4934 2573 
Q 4825 2741 4581 2741 
Q 4263 2741 4089 2478 
Q 3916 2216 3909 1719 
L 3909 0 
L 2784 0 
L 2784 1825 
Q 2784 2406 2684 2573 
Q 2584 2741 2328 2741 
Q 2006 2741 1831 2477 
Q 1656 2213 1656 1722 
L 1656 0 
L 531 0 
L 531 3500 
L 1656 3500 
L 1656 2988 
Q 1863 3284 2130 3434 
Q 2397 3584 2719 3584 
Q 3081 3584 3359 3409 
Q 3638 3234 3781 2919 
z
" transform="scale(0.015625)"/>
      <path id="DejaVuSans-Bold-20" transform="scale(0.015625)"/>
      <path id="DejaVuSans-Bold-31" d="M 750 831 
L 1813 831 
L 1813 3847 
L 722 3622 
L 722 4441 
L 1806 4666 
L 2950 4666 
L 2950 831 
L 4013 831 
L 4013 0 
L 750 0 
L 750 831 
z
" transform="scale(0.015625)"/>
      <path id="DejaVuSans-Bold-7c" d="M 1522 4891 
L 1522 -1509 
L 813 -1509 
L 813 4891 
L 1522 4891 
z
" transform="scale(0.015625)"/>
      <path id="DejaVuSans-Bold-52" d="M 2297 2597 
Q 2675 2597 2839 2737 
Q 3003 2878 3003 3200 
Q 3003 3519 2839 3656 
Q 2675 3794 2297 3794 
L 1791 3794 
L 1791 2597 
L 2297 2597 
z
M 1791 1766 
L 1791 0 
L 588 0 
L 588 4666 
L 2425 4666 
Q 3347 4666 3776 4356 
Q 4206 4047 4206 3378 
Q 4206 2916 3982 2619 
Q 3759 2322 3309 2181 
Q 3556 2125 3751 1926 
Q 3947 1728 4147 1325 
L 4800 0 
L 3519 0 
L 2950 1159 
Q 2778 1509 2601 1637 
Q 2425 1766 2131 1766 
L 1791 1766 
z
" transform="scale(0.015625)"/>
      <path id="DejaVuSans-Bold-75" d="M 500 1363 
L 500 3500 
L 1625 3500 
L 1625 3150 
Q 1625 2866 1622 2436 
Q 1619 2006 1619 1863 
Q 1619 1441 1641 1255 
Q 1663 1069 1716 984 
Q 1784 875 1895 815 
Q 2006 756 2150 756 
Q 2500 756 2700 1025 
Q 2900 1294 2900 1772 
L 2900 3500 
L 4019 3500 
L 4019 0 
L 2900 0 
L 2900 506 
Q 2647 200 2364 54 
Q 2081 -91 1741 -91 
Q 1134 -91 817 281 
Q 500 653 500 1363 
z
" transform="scale(0.015625)"/>
      <path id="DejaVuSans-Bold-6e" d="M 4056 2131 
L 4056 0 
L 2931 0 
L 2931 347 
L 2931 1631 
Q 2931 2084 2911 2256 
Q 2891 2428 2841 2509 
Q 2775 2619 2662 2680 
Q 2550 2741 2406 2741 
Q 2056 2741 1856 2470 
Q 1656 2200 1656 1722 
L 1656 0 
L 538 0 
L 538 3500 
L 1656 3500 
L 1656 2988 
Q 1909 3294 2193 3439 
Q 2478 3584 2822 3584 
Q 3428 3584 3742 3212 
Q 4056 2841 4056 2131 
z
" transform="scale(0.015625)"/>
      <path id="DejaVuSans-Bold-64" d="M 2919 2988 
L 2919 4863 
L 4044 4863 
L 4044 0 
L 2919 0 
L 2919 506 
Q 2688 197 2409 53 
Q 2131 -91 1766 -91 
Q 1119 -91 703 423 
Q 288 938 288 1747 
Q 288 2556 703 3070 
Q 1119 3584 1766 3584 
Q 2128 3584 2408 3439 
Q 2688 3294 2919 2988 
z
M 2181 722 
Q 2541 722 2730 984 
Q 2919 1247 2919 1747 
Q 2919 2247 2730 2509 
Q 2541 2772 2181 2772 
Q 1825 2772 1636 2509 
Q 1447 2247 1447 1747 
Q 1447 1247 1636 984 
Q 1825 722 2181 722 
z
" transform="scale(0.015625)"/>
      <path id="DejaVuSans-Bold-48" d="M 588 4666 
L 1791 4666 
L 1791 2888 
L 3566 2888 
L 3566 4666 
L 4769 4666 
L 4769 0 
L 3566 0 
L 3566 1978 
L 1791 1978 
L 1791 0 
L 588 0 
L 588 4666 
z
" transform="scale(0.015625)"/>
      <path id="DejaVuSans-Bold-61" d="M 2106 1575 
Q 1756 1575 1579 1456 
Q 1403 1338 1403 1106 
Q 1403 894 1545 773 
Q 1688 653 1941 653 
Q 2256 653 2472 879 
Q 2688 1106 2688 1447 
L 2688 1575 
L 2106 1575 
z
M 3816 1997 
L 3816 0 
L 2688 0 
L 2688 519 
Q 2463 200 2181 54 
Q 1900 -91 1497 -91 
Q 953 -91 614 226 
Q 275 544 275 1050 
Q 275 1666 698 1953 
Q 1122 2241 2028 2241 
L 2688 2241 
L 2688 2328 
Q 2688 2594 2478 2717 
Q 2269 2841 1825 2841 
Q 1466 2841 1156 2769 
Q 847 2697 581 2553 
L 581 3406 
Q 941 3494 1303 3539 
Q 1666 3584 2028 3584 
Q 2975 3584 3395 3211 
Q 3816 2838 3816 1997 
z
" transform="scale(0.015625)"/>
      <path id="DejaVuSans-Bold-6c" d="M 538 4863 
L 1656 4863 
L 1656 0 
L 538 0 
L 538 4863 
z
" transform="scale(0.015625)"/>
      <path id="DejaVuSans-Bold-79" d="M 78 3500 
L 1197 3500 
L 2138 1125 
L 2938 3500 
L 4056 3500 
L 2584 -331 
Q 2363 -916 2067 -1148 
Q 1772 -1381 1288 -1381 
L 641 -1381 
L 641 -647 
L 991 -647 
Q 1275 -647 1404 -556 
Q 1534 -466 1606 -231 
L 1638 -134 
L 78 3500 
z
" transform="scale(0.015625)"/>
      <path id="DejaVuSans-Bold-4d" d="M 588 4666 
L 2119 4666 
L 3181 2169 
L 4250 4666 
L 5778 4666 
L 5778 0 
L 4641 0 
L 4641 3413 
L 3566 897 
L 2803 897 
L 1728 3413 
L 1728 0 
L 588 0 
L 588 4666 
z
" transform="scale(0.015625)"/>
      <path id="DejaVuSans-Bold-71" d="M 2181 2772 
Q 1825 2772 1636 2509 
Q 1447 2247 1447 1747 
Q 1447 1247 1636 984 
Q 1825 722 2181 722 
Q 2541 722 2730 984 
Q 2919 1247 2919 1747 
Q 2919 2247 2730 2509 
Q 2541 2772 2181 2772 
z
M 2919 506 
Q 2688 197 2409 53 
Q 2131 -91 1766 -91 
Q 1119 -91 703 423 
Q 288 938 288 1747 
Q 288 2556 703 3067 
Q 1119 3578 1766 3578 
Q 2131 3578 2409 3434 
Q 2688 3291 2919 2981 
L 2919 3500 
L 4044 3500 
L 4044 -1331 
L 2919 -1331 
L 2919 506 
z
" transform="scale(0.015625)"/>
      <path id="DejaVuSans-Bold-69" d="M 538 3500 
L 1656 3500 
L 1656 0 
L 538 0 
L 538 3500 
z
M 538 4863 
L 1656 4863 
L 1656 3950 
L 538 3950 
L 538 4863 
z
" transform="scale(0.015625)"/>
      <path id="DejaVuSans-Bold-74" d="M 1759 4494 
L 1759 3500 
L 2913 3500 
L 2913 2700 
L 1759 2700 
L 1759 1216 
Q 1759 972 1856 886 
Q 1953 800 2241 800 
L 2816 800 
L 2816 0 
L 1856 0 
Q 1194 0 917 276 
Q 641 553 641 1216 
L 641 2700 
L 84 2700 
L 84 3500 
L 641 3500 
L 641 4494 
L 1759 4494 
z
" transform="scale(0.015625)"/>
      <path id="DejaVuSans-Bold-3a" d="M 716 3500 
L 1844 3500 
L 1844 2291 
L 716 2291 
L 716 3500 
z
M 716 1209 
L 1844 1209 
L 1844 0 
L 716 0 
L 716 1209 
z
" transform="scale(0.015625)"/>
      <path id="DejaVuSans-Bold-2e" d="M 653 1209 
L 1778 1209 
L 1778 0 
L 653 0 
L 653 1209 
z
" transform="scale(0.015625)"/>
      <path id="DejaVuSans-Bold-36" d="M 2316 2303 
Q 2000 2303 1842 2098 
Q 1684 1894 1684 1484 
Q 1684 1075 1842 870 
Q 2000 666 2316 666 
Q 2634 666 2792 870 
Q 2950 1075 2950 1484 
Q 2950 1894 2792 2098 
Q 2634 2303 2316 2303 
z
M 3803 4544 
L 3803 3681 
Q 3506 3822 3243 3889 
Q 2981 3956 2731 3956 
Q 2194 3956 1894 3657 
Q 1594 3359 1544 2772 
Q 1750 2925 1990 3001 
Q 2231 3078 2516 3078 
Q 3231 3078 3670 2659 
Q 4109 2241 4109 1563 
Q 4109 813 3618 361 
Q 3128 -91 2303 -91 
Q 1394 -91 895 523 
Q 397 1138 397 2266 
Q 397 3422 980 4083 
Q 1563 4744 2578 4744 
Q 2900 4744 3203 4694 
Q 3506 4644 3803 4544 
z
" transform="scale(0.015625)"/>
      <path id="DejaVuSans-Bold-37" d="M 428 4666 
L 3944 4666 
L 3944 3988 
L 2125 0 
L 953 0 
L 2675 3781 
L 428 3781 
L 428 4666 
z
" transform="scale(0.015625)"/>
     </defs>
     <use xlink:href="#DejaVuSans-Bold-50"/>
     <use xlink:href="#DejaVuSans-Bold-6f" transform="translate(73.291016 0)"/>
     <use xlink:href="#DejaVuSans-Bold-65" transform="translate(141.992188 0)"/>
     <use xlink:href="#DejaVuSans-Bold-6d" transform="translate(209.814453 0)"/>
     <use xlink:href="#DejaVuSans-Bold-20" transform="translate(314.013672 0)"/>
     <use xlink:href="#DejaVuSans-Bold-31" transform="translate(348.828125 0)"/>
     <use xlink:href="#DejaVuSans-Bold-20" transform="translate(418.408203 0)"/>
     <use xlink:href="#DejaVuSans-Bold-20" transform="translate(453.222656 0)"/>
     <use xlink:href="#DejaVuSans-Bold-20" transform="translate(488.037109 0)"/>
     <use xlink:href="#DejaVuSans-Bold-7c" transform="translate(522.851562 0)"/>
     <use xlink:href="#DejaVuSans-Bold-20" transform="translate(559.375 0)"/>
     <use xlink:href="#DejaVuSans-Bold-20" transform="translate(594.189453 0)"/>
     <use xlink:href="#DejaVuSans-Bold-20" transform="translate(629.003906 0)"/>
     <use xlink:href="#DejaVuSans-Bold-52" transform="translate(663.818359 0)"/>
     <use xlink:href="#DejaVuSans-Bold-6f" transform="translate(740.820312 0)"/>
     <use xlink:href="#DejaVuSans-Bold-75" transform="translate(809.521484 0)"/>
     <use xlink:href="#DejaVuSans-Bold-6e" transform="translate(880.712891 0)"/>
     <use xlink:href="#DejaVuSans-Bold-64" transform="translate(951.904297 0)"/>
     <use xlink:href="#DejaVuSans-Bold-20" transform="translate(1023.486328 0)"/>
     <use xlink:href="#DejaVuSans-Bold-31" transform="translate(1058.300781 0)"/>
     <use xlink:href="#DejaVuSans-Bold-20" transform="translate(1127.880859 0)"/>
     <use xlink:href="#DejaVuSans-Bold-20" transform="translate(1162.695312 0)"/>
     <use xlink:href="#DejaVuSans-Bold-20" transform="translate(1197.509766 0)"/>
     <use xlink:href="#DejaVuSans-Bold-7c" transform="translate(1232.324219 0)"/>
     <use xlink:href="#DejaVuSans-Bold-20" transform="translate(1268.847656 0)"/>
     <use xlink:href="#DejaVuSans-Bold-20" transform="translate(1303.662109 0)"/>
     <use xlink:href="#DejaVuSans-Bold-20" transform="translate(1338.476562 0)"/>
     <use xlink:href="#DejaVuSans-Bold-48" transform="translate(1373.291016 0)"/>
     <use xlink:href="#DejaVuSans-Bold-75" transform="translate(1456.982422 0)"/>
     <use xlink:href="#DejaVuSans-Bold-6d" transform="translate(1528.173828 0)"/>
     <use xlink:href="#DejaVuSans-Bold-61" transform="translate(1632.373047 0)"/>
     <use xlink:href="#DejaVuSans-Bold-6e" transform="translate(1699.853516 0)"/>
     <use xlink:href="#DejaVuSans-Bold-20" transform="translate(1771.044922 0)"/>
     <use xlink:href="#DejaVuSans-Bold-6f" transform="translate(1805.859375 0)"/>
     <use xlink:href="#DejaVuSans-Bold-6e" transform="translate(1874.560547 0)"/>
     <use xlink:href="#DejaVuSans-Bold-6c" transform="translate(1945.751953 0)"/>
     <use xlink:href="#DejaVuSans-Bold-79" transform="translate(1980.029297 0)"/>
     <use xlink:href="#DejaVuSans-Bold-20" transform="translate(2045.214844 0)"/>
     <use xlink:href="#DejaVuSans-Bold-20" transform="translate(2080.029297 0)"/>
     <use xlink:href="#DejaVuSans-Bold-20" transform="translate(2114.84375 0)"/>
     <use xlink:href="#DejaVuSans-Bold-7c" transform="translate(2149.658203 0)"/>
     <use xlink:href="#DejaVuSans-Bold-20" transform="translate(2186.181641 0)"/>
     <use xlink:href="#DejaVuSans-Bold-20" transform="translate(2220.996094 0)"/>
     <use xlink:href="#DejaVuSans-Bold-20" transform="translate(2255.810547 0)"/>
     <use xlink:href="#DejaVuSans-Bold-4d" transform="translate(2290.625 0)"/>
     <use xlink:href="#DejaVuSans-Bold-65" transform="translate(2390.136719 0)"/>
     <use xlink:href="#DejaVuSans-Bold-61" transform="translate(2457.958984 0)"/>
     <use xlink:href="#DejaVuSans-Bold-6e" transform="translate(2525.439453 0)"/>
     <use xlink:href="#DejaVuSans-Bold-20" transform="translate(2596.630859 0)"/>
     <use xlink:href="#DejaVuSans-Bold-71" transform="translate(2631.445312 0)"/>
     <use xlink:href="#DejaVuSans-Bold-75" transform="translate(2703.027344 0)"/>
     <use xlink:href="#DejaVuSans-Bold-61" transform="translate(2774.21875 0)"/>
     <use xlink:href="#DejaVuSans-Bold-6c" transform="translate(2841.699219 0)"/>
     <use xlink:href="#DejaVuSans-Bold-69" transform="translate(2875.976562 0)"/>
     <use xlink:href="#DejaVuSans-Bold-74" transform="translate(2910.253906 0)"/>
     <use xlink:href="#DejaVuSans-Bold-79" transform="translate(2958.056641 0)"/>
     <use xlink:href="#DejaVuSans-Bold-3a" transform="translate(3023.242188 0)"/>
     <use xlink:href="#DejaVuSans-Bold-20" transform="translate(3063.232422 0)"/>
     <use xlink:href="#DejaVuSans-Bold-31" transform="translate(3098.046875 0)"/>
     <use xlink:href="#DejaVuSans-Bold-2e" transform="translate(3167.626953 0)"/>
     <use xlink:href="#DejaVuSans-Bold-36" transform="translate(3205.615234 0)"/>
     <use xlink:href="#DejaVuSans-Bold-37" transform="translate(3275.195312 0)"/>
    </g>
   </g>
   <g id="text_2">
    <!-- Topic: Rainy bus stop -->
    <g transform="translate(26.451 76.70025) scale(0.09 -0.09)">
     <defs>
      <path id="DejaVuSans-Oblique-54" d="M 378 4666 
L 4325 4666 
L 4225 4134 
L 2559 4134 
L 1759 0 
L 1125 0 
L 1925 4134 
L 275 4134 
L 378 4666 
z
" transform="scale(0.015625)"/>
      <path id="DejaVuSans-Oblique-6f" d="M 1625 -91 
Q 1009 -91 651 289 
Q 294 669 294 1325 
Q 294 1706 417 2101 
Q 541 2497 738 2766 
Q 1047 3184 1428 3384 
Q 1809 3584 2291 3584 
Q 2888 3584 3255 3212 
Q 3622 2841 3622 2241 
Q 3622 1825 3500 1412 
Q 3378 1000 3181 728 
Q 2875 309 2494 109 
Q 2113 -91 1625 -91 
z
M 891 1344 
Q 891 869 1089 633 
Q 1288 397 1691 397 
Q 2269 397 2648 901 
Q 3028 1406 3028 2181 
Q 3028 2634 2825 2865 
Q 2622 3097 2228 3097 
Q 1903 3097 1650 2945 
Q 1397 2794 1197 2484 
Q 1050 2253 970 1956 
Q 891 1659 891 1344 
z
" transform="scale(0.015625)"/>
      <path id="DejaVuSans-Oblique-70" d="M 3175 2156 
Q 3175 2616 2975 2859 
Q 2775 3103 2400 3103 
Q 2144 3103 1911 2972 
Q 1678 2841 1497 2591 
Q 1319 2344 1212 1994 
Q 1106 1644 1106 1300 
Q 1106 863 1306 627 
Q 1506 391 1875 391 
Q 2147 391 2380 519 
Q 2613 647 2778 891 
Q 2956 1147 3065 1494 
Q 3175 1841 3175 2156 
z
M 1394 2969 
Q 1625 3272 1939 3428 
Q 2253 3584 2638 3584 
Q 3175 3584 3472 3232 
Q 3769 2881 3769 2247 
Q 3769 1728 3584 1258 
Q 3400 788 3053 416 
Q 2822 169 2531 39 
Q 2241 -91 1919 -91 
Q 1547 -91 1294 64 
Q 1041 219 916 525 
L 556 -1331 
L -19 -1331 
L 922 3500 
L 1497 3500 
L 1394 2969 
z
" transform="scale(0.015625)"/>
      <path id="DejaVuSans-Oblique-69" d="M 1172 4863 
L 1747 4863 
L 1606 4134 
L 1031 4134 
L 1172 4863 
z
M 909 3500 
L 1484 3500 
L 800 0 
L 225 0 
L 909 3500 
z
" transform="scale(0.015625)"/>
      <path id="DejaVuSans-Oblique-63" d="M 3431 3366 
L 3316 2797 
Q 3109 2947 2876 3022 
Q 2644 3097 2394 3097 
Q 2119 3097 1870 3000 
Q 1622 2903 1453 2725 
Q 1184 2453 1037 2087 
Q 891 1722 891 1331 
Q 891 859 1127 628 
Q 1363 397 1844 397 
Q 2081 397 2348 469 
Q 2616 541 2906 684 
L 2797 116 
Q 2547 13 2283 -39 
Q 2019 -91 1741 -91 
Q 1044 -91 669 257 
Q 294 606 294 1253 
Q 294 1797 489 2255 
Q 684 2713 1069 3078 
Q 1331 3328 1684 3456 
Q 2038 3584 2456 3584 
Q 2700 3584 2940 3529 
Q 3181 3475 3431 3366 
z
" transform="scale(0.015625)"/>
      <path id="DejaVuSans-Oblique-3a" d="M 978 3309 
L 1638 3309 
L 1484 2516 
L 825 2516 
L 978 3309 
z
M 488 794 
L 1147 794 
L 991 0 
L 331 0 
L 488 794 
z
" transform="scale(0.015625)"/>
      <path id="DejaVuSans-Oblique-20" transform="scale(0.015625)"/>
      <path id="DejaVuSans-Oblique-52" d="M 1613 4147 
L 1294 2491 
L 2106 2491 
Q 2584 2491 2879 2755 
Q 3175 3019 3175 3444 
Q 3175 3784 2976 3965 
Q 2778 4147 2406 4147 
L 1613 4147 
z
M 2772 2241 
Q 2972 2194 3105 2009 
Q 3238 1825 3413 1275 
L 3809 0 
L 3144 0 
L 2778 1197 
Q 2638 1659 2453 1815 
Q 2269 1972 1888 1972 
L 1191 1972 
L 806 0 
L 172 0 
L 1081 4666 
L 2503 4666 
Q 3150 4666 3495 4373 
Q 3841 4081 3841 3531 
Q 3841 3044 3547 2687 
Q 3253 2331 2772 2241 
z
" transform="scale(0.015625)"/>
      <path id="DejaVuSans-Oblique-61" d="M 3438 1997 
L 3047 0 
L 2472 0 
L 2578 531 
Q 2325 219 2001 64 
Q 1678 -91 1281 -91 
Q 834 -91 548 182 
Q 263 456 263 884 
Q 263 1497 752 1853 
Q 1241 2209 2100 2209 
L 2900 2209 
L 2931 2363 
Q 2938 2388 2941 2417 
Q 2944 2447 2944 2509 
Q 2944 2788 2717 2942 
Q 2491 3097 2081 3097 
Q 1800 3097 1504 3025 
Q 1209 2953 897 2809 
L 997 3341 
Q 1322 3463 1633 3523 
Q 1944 3584 2234 3584 
Q 2853 3584 3176 3315 
Q 3500 3047 3500 2534 
Q 3500 2431 3484 2292 
Q 3469 2153 3438 1997 
z
M 2816 1759 
L 2241 1759 
Q 1534 1759 1195 1570 
Q 856 1381 856 984 
Q 856 709 1029 553 
Q 1203 397 1509 397 
Q 1978 397 2328 733 
Q 2678 1069 2791 1631 
L 2816 1759 
z
" transform="scale(0.015625)"/>
      <path id="DejaVuSans-Oblique-6e" d="M 3566 2113 
L 3156 0 
L 2578 0 
L 2988 2091 
Q 3016 2238 3031 2350 
Q 3047 2463 3047 2528 
Q 3047 2791 2881 2937 
Q 2716 3084 2419 3084 
Q 1956 3084 1622 2776 
Q 1288 2469 1184 1941 
L 800 0 
L 225 0 
L 903 3500 
L 1478 3500 
L 1363 2950 
Q 1603 3253 1940 3418 
Q 2278 3584 2650 3584 
Q 3113 3584 3367 3334 
Q 3622 3084 3622 2631 
Q 3622 2519 3608 2391 
Q 3594 2263 3566 2113 
z
" transform="scale(0.015625)"/>
      <path id="DejaVuSans-Oblique-79" d="M 1588 -325 
Q 1188 -997 936 -1164 
Q 684 -1331 294 -1331 
L -159 -1331 
L -63 -850 
L 269 -850 
Q 509 -850 678 -719 
Q 847 -588 1056 -206 
L 1234 128 
L 459 3500 
L 1069 3500 
L 1650 819 
L 3256 3500 
L 3859 3500 
L 1588 -325 
z
" transform="scale(0.015625)"/>
      <path id="DejaVuSans-Oblique-62" d="M 3169 2138 
Q 3169 2591 2961 2847 
Q 2753 3103 2388 3103 
Q 2122 3103 1889 2973 
Q 1656 2844 1484 2597 
Q 1303 2338 1198 1995 
Q 1094 1653 1094 1313 
Q 1094 881 1298 636 
Q 1503 391 1863 391 
Q 2134 391 2365 517 
Q 2597 644 2772 891 
Q 2950 1147 3059 1487 
Q 3169 1828 3169 2138 
z
M 1381 2969 
Q 1594 3256 1914 3420 
Q 2234 3584 2584 3584 
Q 3122 3584 3439 3221 
Q 3756 2859 3756 2241 
Q 3756 1734 3570 1259 
Q 3384 784 3041 416 
Q 2816 172 2522 40 
Q 2228 -91 1906 -91 
Q 1566 -91 1316 65 
Q 1066 222 909 531 
L 806 0 
L 231 0 
L 1178 4863 
L 1753 4863 
L 1381 2969 
z
" transform="scale(0.015625)"/>
      <path id="DejaVuSans-Oblique-75" d="M 428 1388 
L 838 3500 
L 1416 3500 
L 1006 1409 
Q 975 1256 961 1147 
Q 947 1038 947 966 
Q 947 700 1109 554 
Q 1272 409 1569 409 
Q 2031 409 2368 721 
Q 2706 1034 2809 1563 
L 3194 3500 
L 3769 3500 
L 3091 0 
L 2516 0 
L 2631 550 
Q 2388 244 2052 76 
Q 1716 -91 1338 -91 
Q 878 -91 622 161 
Q 366 413 366 863 
Q 366 956 381 1097 
Q 397 1238 428 1388 
z
" transform="scale(0.015625)"/>
      <path id="DejaVuSans-Oblique-73" d="M 3200 3397 
L 3091 2853 
Q 2863 2978 2609 3040 
Q 2356 3103 2088 3103 
Q 1634 3103 1373 2948 
Q 1113 2794 1113 2528 
Q 1113 2219 1719 2053 
Q 1766 2041 1788 2034 
L 1972 1978 
Q 2547 1819 2739 1644 
Q 2931 1469 2931 1166 
Q 2931 609 2489 259 
Q 2047 -91 1331 -91 
Q 1053 -91 747 -37 
Q 441 16 72 128 
L 184 722 
Q 500 559 806 475 
Q 1113 391 1394 391 
Q 1816 391 2080 572 
Q 2344 753 2344 1031 
Q 2344 1331 1650 1516 
L 1591 1531 
L 1394 1581 
Q 956 1697 753 1886 
Q 550 2075 550 2369 
Q 550 2928 970 3256 
Q 1391 3584 2113 3584 
Q 2397 3584 2667 3537 
Q 2938 3491 3200 3397 
z
" transform="scale(0.015625)"/>
      <path id="DejaVuSans-Oblique-74" d="M 2706 3500 
L 2619 3053 
L 1472 3053 
L 1100 1153 
Q 1081 1047 1072 975 
Q 1063 903 1063 863 
Q 1063 663 1183 572 
Q 1303 481 1569 481 
L 2150 481 
L 2053 0 
L 1503 0 
Q 991 0 739 200 
Q 488 400 488 806 
Q 488 878 497 964 
Q 506 1050 525 1153 
L 897 3053 
L 409 3053 
L 500 3500 
L 978 3500 
L 1172 4494 
L 1747 4494 
L 1556 3500 
L 2706 3500 
z
" transform="scale(0.015625)"/>
     </defs>
     <use xlink:href="#DejaVuSans-Oblique-54"/>
     <use xlink:href="#DejaVuSans-Oblique-6f" transform="translate(48.708984 0)"/>
     <use xlink:href="#DejaVuSans-Oblique-70" transform="translate(109.890625 0)"/>
     <use xlink:href="#DejaVuSans-Oblique-69" transform="translate(173.367188 0)"/>
     <use xlink:href="#DejaVuSans-Oblique-63" transform="translate(201.150391 0)"/>
     <use xlink:href="#DejaVuSans-Oblique-3a" transform="translate(256.130859 0)"/>
     <use xlink:href="#DejaVuSans-Oblique-20" transform="translate(289.822266 0)"/>
     <use xlink:href="#DejaVuSans-Oblique-52" transform="translate(321.609375 0)"/>
     <use xlink:href="#DejaVuSans-Oblique-61" transform="translate(391.091797 0)"/>
     <use xlink:href="#DejaVuSans-Oblique-69" transform="translate(452.371094 0)"/>
     <use xlink:href="#DejaVuSans-Oblique-6e" transform="translate(480.154297 0)"/>
     <use xlink:href="#DejaVuSans-Oblique-79" transform="translate(543.533203 0)"/>
     <use xlink:href="#DejaVuSans-Oblique-20" transform="translate(602.712891 0)"/>
     <use xlink:href="#DejaVuSans-Oblique-62" transform="translate(634.5 0)"/>
     <use xlink:href="#DejaVuSans-Oblique-75" transform="translate(697.976562 0)"/>
     <use xlink:href="#DejaVuSans-Oblique-73" transform="translate(761.355469 0)"/>
     <use xlink:href="#DejaVuSans-Oblique-20" transform="translate(813.455078 0)"/>
     <use xlink:href="#DejaVuSans-Oblique-73" transform="translate(845.242188 0)"/>
     <use xlink:href="#DejaVuSans-Oblique-74" transform="translate(897.341797 0)"/>
     <use xlink:href="#DejaVuSans-Oblique-6f" transform="translate(936.550781 0)"/>
     <use xlink:href="#DejaVuSans-Oblique-70" transform="translate(997.732422 0)"/>
    </g>
   </g>
   <g id="text_3">
    <g id="patch_3">
     <path d="M 26.451 202.653616 
L 411.148969 202.653616 
Q 416.998969 202.653616 416.998969 196.803616 
L 416.998969 87.097061 
Q 416.998969 81.247061 411.148969 81.247061 
L 26.451 81.247061 
Q 20.601 81.247061 20.601 87.097061 
L 20.601 196.803616 
Q 20.601 202.653616 26.451 202.653616 
z
" style="fill: #ffffff; stroke: #d9d9d9; stroke-linejoin: miter"/>
    </g>
    <!-- Rainy bus stop are mostly seen during rainy season ,Its one of the most -->
    <g transform="translate(26.451 94.045342) scale(0.09 -0.09)">
     <defs>
      <path id="DejaVuSansMono-52" d="M 2375 2203 
Q 2619 2141 2791 1967 
Q 2963 1794 3219 1275 
L 3853 0 
L 3175 0 
L 2619 1178 
Q 2378 1681 2186 1826 
Q 1994 1972 1684 1972 
L 1081 1972 
L 1081 0 
L 447 0 
L 447 4666 
L 1747 4666 
Q 2516 4666 2925 4319 
Q 3334 3972 3334 3316 
Q 3334 2853 3082 2561 
Q 2831 2269 2375 2203 
z
M 1081 4147 
L 1081 2491 
L 1772 2491 
Q 2225 2491 2447 2694 
Q 2669 2897 2669 3316 
Q 2669 3719 2433 3933 
Q 2197 4147 1747 4147 
L 1081 4147 
z
" transform="scale(0.015625)"/>
      <path id="DejaVuSansMono-61" d="M 2194 1759 
L 2003 1759 
Q 1500 1759 1245 1582 
Q 991 1406 991 1056 
Q 991 741 1181 566 
Q 1372 391 1709 391 
Q 2184 391 2456 720 
Q 2728 1050 2731 1631 
L 2731 1759 
L 2194 1759 
z
M 3309 1997 
L 3309 0 
L 2731 0 
L 2731 519 
Q 2547 206 2267 57 
Q 1988 -91 1588 -91 
Q 1053 -91 734 211 
Q 416 513 416 1019 
Q 416 1603 808 1906 
Q 1200 2209 1959 2209 
L 2731 2209 
L 2731 2300 
Q 2728 2719 2518 2908 
Q 2309 3097 1850 3097 
Q 1556 3097 1256 3012 
Q 956 2928 672 2766 
L 672 3341 
Q 991 3463 1283 3523 
Q 1575 3584 1850 3584 
Q 2284 3584 2592 3456 
Q 2900 3328 3091 3072 
Q 3209 2916 3259 2686 
Q 3309 2456 3309 1997 
z
" transform="scale(0.015625)"/>
      <path id="DejaVuSansMono-69" d="M 800 3500 
L 2272 3500 
L 2272 447 
L 3413 447 
L 3413 0 
L 556 0 
L 556 447 
L 1697 447 
L 1697 3053 
L 800 3053 
L 800 3500 
z
M 1697 4863 
L 2272 4863 
L 2272 4134 
L 1697 4134 
L 1697 4863 
z
" transform="scale(0.015625)"/>
      <path id="DejaVuSansMono-6e" d="M 3284 2169 
L 3284 0 
L 2706 0 
L 2706 2169 
Q 2706 2641 2540 2862 
Q 2375 3084 2022 3084 
Q 1619 3084 1401 2798 
Q 1184 2513 1184 1978 
L 1184 0 
L 609 0 
L 609 3500 
L 1184 3500 
L 1184 2975 
Q 1338 3275 1600 3429 
Q 1863 3584 2222 3584 
Q 2756 3584 3020 3232 
Q 3284 2881 3284 2169 
z
" transform="scale(0.015625)"/>
      <path id="DejaVuSansMono-79" d="M 2681 1125 
Q 2538 759 2316 163 
Q 2006 -663 1900 -844 
Q 1756 -1088 1540 -1209 
Q 1325 -1331 1038 -1331 
L 575 -1331 
L 575 -850 
L 916 -850 
Q 1169 -850 1312 -703 
Q 1456 -556 1678 56 
L 325 3500 
L 934 3500 
L 1972 763 
L 2994 3500 
L 3603 3500 
L 2681 1125 
z
" transform="scale(0.015625)"/>
      <path id="DejaVuSansMono-20" transform="scale(0.015625)"/>
      <path id="DejaVuSansMono-62" d="M 2869 1747 
Q 2869 2416 2656 2756 
Q 2444 3097 2028 3097 
Q 1609 3097 1393 2755 
Q 1178 2413 1178 1747 
Q 1178 1084 1393 740 
Q 1609 397 2028 397 
Q 2444 397 2656 737 
Q 2869 1078 2869 1747 
z
M 1178 3053 
Q 1316 3309 1558 3446 
Q 1800 3584 2119 3584 
Q 2750 3584 3112 3098 
Q 3475 2613 3475 1759 
Q 3475 894 3111 401 
Q 2747 -91 2113 -91 
Q 1800 -91 1561 45 
Q 1322 181 1178 441 
L 1178 0 
L 603 0 
L 603 4863 
L 1178 4863 
L 1178 3053 
z
" transform="scale(0.015625)"/>
      <path id="DejaVuSansMono-75" d="M 609 1325 
L 609 3494 
L 1184 3494 
L 1184 1325 
Q 1184 853 1351 631 
Q 1519 409 1869 409 
Q 2275 409 2490 695 
Q 2706 981 2706 1516 
L 2706 3494 
L 3284 3494 
L 3284 0 
L 2706 0 
L 2706 525 
Q 2553 222 2289 65 
Q 2025 -91 1672 -91 
Q 1134 -91 871 261 
Q 609 613 609 1325 
z
" transform="scale(0.015625)"/>
      <path id="DejaVuSansMono-73" d="M 3041 3378 
L 3041 2816 
Q 2794 2959 2544 3031 
Q 2294 3103 2034 3103 
Q 1644 3103 1451 2976 
Q 1259 2850 1259 2591 
Q 1259 2356 1403 2240 
Q 1547 2125 2119 2016 
L 2350 1972 
Q 2778 1891 2998 1647 
Q 3219 1403 3219 1013 
Q 3219 494 2850 201 
Q 2481 -91 1825 -91 
Q 1566 -91 1281 -36 
Q 997 19 666 128 
L 666 722 
Q 988 556 1281 473 
Q 1575 391 1838 391 
Q 2219 391 2428 545 
Q 2638 700 2638 978 
Q 2638 1378 1872 1531 
L 1847 1538 
L 1631 1581 
Q 1134 1678 906 1908 
Q 678 2138 678 2534 
Q 678 3038 1018 3311 
Q 1359 3584 1991 3584 
Q 2272 3584 2531 3532 
Q 2791 3481 3041 3378 
z
" transform="scale(0.015625)"/>
      <path id="DejaVuSansMono-74" d="M 1919 4494 
L 1919 3500 
L 3225 3500 
L 3225 3053 
L 1919 3053 
L 1919 1153 
Q 1919 766 2066 612 
Q 2213 459 2578 459 
L 3225 459 
L 3225 0 
L 2522 0 
Q 1875 0 1609 259 
Q 1344 519 1344 1153 
L 1344 3053 
L 409 3053 
L 409 3500 
L 1344 3500 
L 1344 4494 
L 1919 4494 
z
" transform="scale(0.015625)"/>
      <path id="DejaVuSansMono-6f" d="M 1925 3097 
Q 1488 3097 1263 2756 
Q 1038 2416 1038 1747 
Q 1038 1081 1263 739 
Q 1488 397 1925 397 
Q 2366 397 2591 739 
Q 2816 1081 2816 1747 
Q 2816 2416 2591 2756 
Q 2366 3097 1925 3097 
z
M 1925 3584 
Q 2653 3584 3039 3112 
Q 3425 2641 3425 1747 
Q 3425 850 3040 379 
Q 2656 -91 1925 -91 
Q 1197 -91 812 379 
Q 428 850 428 1747 
Q 428 2641 812 3112 
Q 1197 3584 1925 3584 
z
" transform="scale(0.015625)"/>
      <path id="DejaVuSansMono-70" d="M 1172 441 
L 1172 -1331 
L 594 -1331 
L 594 3500 
L 1172 3500 
L 1172 3053 
Q 1316 3313 1555 3448 
Q 1794 3584 2106 3584 
Q 2741 3584 3102 3093 
Q 3463 2603 3463 1734 
Q 3463 881 3100 395 
Q 2738 -91 2106 -91 
Q 1788 -91 1548 45 
Q 1309 181 1172 441 
z
M 2859 1747 
Q 2859 2416 2648 2756 
Q 2438 3097 2022 3097 
Q 1603 3097 1387 2755 
Q 1172 2413 1172 1747 
Q 1172 1084 1387 740 
Q 1603 397 2022 397 
Q 2438 397 2648 737 
Q 2859 1078 2859 1747 
z
" transform="scale(0.015625)"/>
      <path id="DejaVuSansMono-72" d="M 3609 2778 
Q 3425 2922 3234 2987 
Q 3044 3053 2816 3053 
Q 2278 3053 1993 2715 
Q 1709 2378 1709 1741 
L 1709 0 
L 1131 0 
L 1131 3500 
L 1709 3500 
L 1709 2816 
Q 1853 3188 2151 3386 
Q 2450 3584 2859 3584 
Q 3072 3584 3256 3531 
Q 3441 3478 3609 3366 
L 3609 2778 
z
" transform="scale(0.015625)"/>
      <path id="DejaVuSansMono-65" d="M 3475 1894 
L 3475 1613 
L 984 1613 
L 984 1594 
Q 984 1022 1282 709 
Q 1581 397 2125 397 
Q 2400 397 2700 484 
Q 3000 572 3341 750 
L 3341 178 
Q 3013 44 2708 -23 
Q 2403 -91 2119 -91 
Q 1303 -91 843 398 
Q 384 888 384 1747 
Q 384 2584 834 3084 
Q 1284 3584 2034 3584 
Q 2703 3584 3089 3131 
Q 3475 2678 3475 1894 
z
M 2900 2063 
Q 2888 2569 2661 2833 
Q 2434 3097 2009 3097 
Q 1594 3097 1325 2822 
Q 1056 2547 1006 2059 
L 2900 2063 
z
" transform="scale(0.015625)"/>
      <path id="DejaVuSansMono-6d" d="M 2113 3144 
Q 2219 3369 2383 3476 
Q 2547 3584 2778 3584 
Q 3200 3584 3373 3257 
Q 3547 2931 3547 2028 
L 3547 0 
L 3022 0 
L 3022 2003 
Q 3022 2744 2939 2923 
Q 2856 3103 2638 3103 
Q 2388 3103 2295 2911 
Q 2203 2719 2203 2003 
L 2203 0 
L 1678 0 
L 1678 2003 
Q 1678 2753 1589 2928 
Q 1500 3103 1269 3103 
Q 1041 3103 952 2911 
Q 863 2719 863 2003 
L 863 0 
L 341 0 
L 341 3500 
L 863 3500 
L 863 3200 
Q 966 3388 1120 3486 
Q 1275 3584 1472 3584 
Q 1709 3584 1867 3475 
Q 2025 3366 2113 3144 
z
" transform="scale(0.015625)"/>
      <path id="DejaVuSansMono-6c" d="M 1997 1269 
Q 1997 881 2139 684 
Q 2281 488 2559 488 
L 3231 488 
L 3231 0 
L 2503 0 
Q 1988 0 1705 331 
Q 1422 663 1422 1269 
L 1422 4447 
L 500 4447 
L 500 4897 
L 1997 4897 
L 1997 1269 
z
" transform="scale(0.015625)"/>
      <path id="DejaVuSansMono-64" d="M 2681 3053 
L 2681 4863 
L 3256 4863 
L 3256 0 
L 2681 0 
L 2681 441 
Q 2538 181 2298 45 
Q 2059 -91 1747 -91 
Q 1113 -91 748 401 
Q 384 894 384 1759 
Q 384 2613 750 3098 
Q 1116 3584 1747 3584 
Q 2063 3584 2303 3448 
Q 2544 3313 2681 3053 
z
M 991 1747 
Q 991 1078 1203 737 
Q 1416 397 1831 397 
Q 2247 397 2464 740 
Q 2681 1084 2681 1747 
Q 2681 2413 2464 2755 
Q 2247 3097 1831 3097 
Q 1416 3097 1203 2756 
Q 991 2416 991 1747 
z
" transform="scale(0.015625)"/>
      <path id="DejaVuSansMono-67" d="M 2681 1778 
Q 2681 2425 2470 2761 
Q 2259 3097 1856 3097 
Q 1434 3097 1212 2761 
Q 991 2425 991 1778 
Q 991 1131 1214 792 
Q 1438 453 1863 453 
Q 2259 453 2470 793 
Q 2681 1134 2681 1778 
z
M 3256 225 
Q 3256 -563 2884 -969 
Q 2513 -1375 1791 -1375 
Q 1553 -1375 1293 -1331 
Q 1034 -1288 775 -1203 
L 775 -634 
Q 1081 -778 1331 -847 
Q 1581 -916 1791 -916 
Q 2256 -916 2468 -662 
Q 2681 -409 2681 141 
L 2681 166 
L 2681 556 
Q 2544 263 2306 119 
Q 2069 -25 1728 -25 
Q 1116 -25 750 465 
Q 384 956 384 1778 
Q 384 2603 750 3093 
Q 1116 3584 1728 3584 
Q 2066 3584 2300 3450 
Q 2534 3316 2681 3034 
L 2681 3488 
L 3256 3488 
L 3256 225 
z
" transform="scale(0.015625)"/>
      <path id="DejaVuSansMono-2c" d="M 1569 947 
L 2356 947 
L 2356 300 
L 1741 -897 
L 1259 -897 
L 1569 300 
L 1569 947 
z
" transform="scale(0.015625)"/>
      <path id="DejaVuSansMono-49" d="M 628 4666 
L 3219 4666 
L 3219 4134 
L 2241 4134 
L 2241 531 
L 3219 531 
L 3219 0 
L 628 0 
L 628 531 
L 1606 531 
L 1606 4134 
L 628 4134 
L 628 4666 
z
" transform="scale(0.015625)"/>
      <path id="DejaVuSansMono-66" d="M 3322 4863 
L 3322 4384 
L 2669 4384 
Q 2359 4384 2239 4257 
Q 2119 4131 2119 3809 
L 2119 3500 
L 3322 3500 
L 3322 3053 
L 2119 3053 
L 2119 0 
L 1544 0 
L 1544 3053 
L 609 3053 
L 609 3500 
L 1544 3500 
L 1544 3744 
Q 1544 4319 1808 4591 
Q 2072 4863 2631 4863 
L 3322 4863 
z
" transform="scale(0.015625)"/>
      <path id="DejaVuSansMono-68" d="M 3284 2169 
L 3284 0 
L 2706 0 
L 2706 2169 
Q 2706 2641 2540 2862 
Q 2375 3084 2022 3084 
Q 1619 3084 1401 2798 
Q 1184 2513 1184 1978 
L 1184 0 
L 609 0 
L 609 4863 
L 1184 4863 
L 1184 2975 
Q 1338 3275 1600 3429 
Q 1863 3584 2222 3584 
Q 2756 3584 3020 3232 
Q 3284 2881 3284 2169 
z
" transform="scale(0.015625)"/>
     </defs>
     <use xlink:href="#DejaVuSansMono-52"/>
     <use xlink:href="#DejaVuSansMono-61" transform="translate(60.205078 0)"/>
     <use xlink:href="#DejaVuSansMono-69" transform="translate(120.410156 0)"/>
     <use xlink:href="#DejaVuSansMono-6e" transform="translate(180.615234 0)"/>
     <use xlink:href="#DejaVuSansMono-79" transform="translate(240.820312 0)"/>
     <use xlink:href="#DejaVuSansMono-20" transform="translate(301.025391 0)"/>
     <use xlink:href="#DejaVuSansMono-62" transform="translate(361.230469 0)"/>
     <use xlink:href="#DejaVuSansMono-75" transform="translate(421.435547 0)"/>
     <use xlink:href="#DejaVuSansMono-73" transform="translate(481.640625 0)"/>
     <use xlink:href="#DejaVuSansMono-20" transform="translate(541.845703 0)"/>
     <use xlink:href="#DejaVuSansMono-73" transform="translate(602.050781 0)"/>
     <use xlink:href="#DejaVuSansMono-74" transform="translate(662.255859 0)"/>
     <use xlink:href="#DejaVuSansMono-6f" transform="translate(722.460938 0)"/>
     <use xlink:href="#DejaVuSansMono-70" transform="translate(782.666016 0)"/>
     <use xlink:href="#DejaVuSansMono-20" transform="translate(842.871094 0)"/>
     <use xlink:href="#DejaVuSansMono-61" transform="translate(903.076172 0)"/>
     <use xlink:href="#DejaVuSansMono-72" transform="translate(963.28125 0)"/>
     <use xlink:href="#DejaVuSansMono-65" transform="translate(1023.486328 0)"/>
     <use xlink:href="#DejaVuSansMono-20" transform="translate(1083.691406 0)"/>
     <use xlink:href="#DejaVuSansMono-6d" transform="translate(1143.896484 0)"/>
     <use xlink:href="#DejaVuSansMono-6f" transform="translate(1204.101562 0)"/>
     <use xlink:href="#DejaVuSansMono-73" transform="translate(1264.306641 0)"/>
     <use xlink:href="#DejaVuSansMono-74" transform="translate(1324.511719 0)"/>
     <use xlink:href="#DejaVuSansMono-6c" transform="translate(1384.716797 0)"/>
     <use xlink:href="#DejaVuSansMono-79" transform="translate(1444.921875 0)"/>
     <use xlink:href="#DejaVuSansMono-20" transform="translate(1505.126953 0)"/>
     <use xlink:href="#DejaVuSansMono-73" transform="translate(1565.332031 0)"/>
     <use xlink:href="#DejaVuSansMono-65" transform="translate(1625.537109 0)"/>
     <use xlink:href="#DejaVuSansMono-65" transform="translate(1685.742188 0)"/>
     <use xlink:href="#DejaVuSansMono-6e" transform="translate(1745.947266 0)"/>
     <use xlink:href="#DejaVuSansMono-20" transform="translate(1806.152344 0)"/>
     <use xlink:href="#DejaVuSansMono-64" transform="translate(1866.357422 0)"/>
     <use xlink:href="#DejaVuSansMono-75" transform="translate(1926.5625 0)"/>
     <use xlink:href="#DejaVuSansMono-72" transform="translate(1986.767578 0)"/>
     <use xlink:href="#DejaVuSansMono-69" transform="translate(2046.972656 0)"/>
     <use xlink:href="#DejaVuSansMono-6e" transform="translate(2107.177734 0)"/>
     <use xlink:href="#DejaVuSansMono-67" transform="translate(2167.382812 0)"/>
     <use xlink:href="#DejaVuSansMono-20" transform="translate(2227.587891 0)"/>
     <use xlink:href="#DejaVuSansMono-72" transform="translate(2287.792969 0)"/>
     <use xlink:href="#DejaVuSansMono-61" transform="translate(2347.998047 0)"/>
     <use xlink:href="#DejaVuSansMono-69" transform="translate(2408.203125 0)"/>
     <use xlink:href="#DejaVuSansMono-6e" transform="translate(2468.408203 0)"/>
     <use xlink:href="#DejaVuSansMono-79" transform="translate(2528.613281 0)"/>
     <use xlink:href="#DejaVuSansMono-20" transform="translate(2588.818359 0)"/>
     <use xlink:href="#DejaVuSansMono-73" transform="translate(2649.023438 0)"/>
     <use xlink:href="#DejaVuSansMono-65" transform="translate(2709.228516 0)"/>
     <use xlink:href="#DejaVuSansMono-61" transform="translate(2769.433594 0)"/>
     <use xlink:href="#DejaVuSansMono-73" transform="translate(2829.638672 0)"/>
     <use xlink:href="#DejaVuSansMono-6f" transform="translate(2889.84375 0)"/>
     <use xlink:href="#DejaVuSansMono-6e" transform="translate(2950.048828 0)"/>
     <use xlink:href="#DejaVuSansMono-20" transform="translate(3010.253906 0)"/>
     <use xlink:href="#DejaVuSansMono-2c" transform="translate(3070.458984 0)"/>
     <use xlink:href="#DejaVuSansMono-49" transform="translate(3130.664062 0)"/>
     <use xlink:href="#DejaVuSansMono-74" transform="translate(3190.869141 0)"/>
     <use xlink:href="#DejaVuSansMono-73" transform="translate(3251.074219 0)"/>
     <use xlink:href="#DejaVuSansMono-20" transform="translate(3311.279297 0)"/>
     <use xlink:href="#DejaVuSansMono-6f" transform="translate(3371.484375 0)"/>
     <use xlink:href="#DejaVuSansMono-6e" transform="translate(3431.689453 0)"/>
     <use xlink:href="#DejaVuSansMono-65" transform="translate(3491.894531 0)"/>
     <use xlink:href="#DejaVuSansMono-20" transform="translate(3552.099609 0)"/>
     <use xlink:href="#DejaVuSansMono-6f" transform="translate(3612.304688 0)"/>
     <use xlink:href="#DejaVuSansMono-66" transform="translate(3672.509766 0)"/>
     <use xlink:href="#DejaVuSansMono-20" transform="translate(3732.714844 0)"/>
     <use xlink:href="#DejaVuSansMono-74" transform="translate(3792.919922 0)"/>
     <use xlink:href="#DejaVuSansMono-68" transform="translate(3853.125 0)"/>
     <use xlink:href="#DejaVuSansMono-65" transform="translate(3913.330078 0)"/>
     <use xlink:href="#DejaVuSansMono-20" transform="translate(3973.535156 0)"/>
     <use xlink:href="#DejaVuSansMono-6d" transform="translate(4033.740234 0)"/>
     <use xlink:href="#DejaVuSansMono-6f" transform="translate(4093.945312 0)"/>
     <use xlink:href="#DejaVuSansMono-73" transform="translate(4154.150391 0)"/>
     <use xlink:href="#DejaVuSansMono-74" transform="translate(4214.355469 0)"/>
    </g>
    <!-- busy stops at that time as buses are running late but at them time -->
    <g transform="translate(26.451 105.275585) scale(0.09 -0.09)">
     <use xlink:href="#DejaVuSansMono-62"/>
     <use xlink:href="#DejaVuSansMono-75" transform="translate(60.205078 0)"/>
     <use xlink:href="#DejaVuSansMono-73" transform="translate(120.410156 0)"/>
     <use xlink:href="#DejaVuSansMono-79" transform="translate(180.615234 0)"/>
     <use xlink:href="#DejaVuSansMono-20" transform="translate(240.820312 0)"/>
     <use xlink:href="#DejaVuSansMono-73" transform="translate(301.025391 0)"/>
     <use xlink:href="#DejaVuSansMono-74" transform="translate(361.230469 0)"/>
     <use xlink:href="#DejaVuSansMono-6f" transform="translate(421.435547 0)"/>
     <use xlink:href="#DejaVuSansMono-70" transform="translate(481.640625 0)"/>
     <use xlink:href="#DejaVuSansMono-73" transform="translate(541.845703 0)"/>
     <use xlink:href="#DejaVuSansMono-20" transform="translate(602.050781 0)"/>
     <use xlink:href="#DejaVuSansMono-61" transform="translate(662.255859 0)"/>
     <use xlink:href="#DejaVuSansMono-74" transform="translate(722.460938 0)"/>
     <use xlink:href="#DejaVuSansMono-20" transform="translate(782.666016 0)"/>
     <use xlink:href="#DejaVuSansMono-74" transform="translate(842.871094 0)"/>
     <use xlink:href="#DejaVuSansMono-68" transform="translate(903.076172 0)"/>
     <use xlink:href="#DejaVuSansMono-61" transform="translate(963.28125 0)"/>
     <use xlink:href="#DejaVuSansMono-74" transform="translate(1023.486328 0)"/>
     <use xlink:href="#DejaVuSansMono-20" transform="translate(1083.691406 0)"/>
     <use xlink:href="#DejaVuSansMono-74" transform="translate(1143.896484 0)"/>
     <use xlink:href="#DejaVuSansMono-69" transform="translate(1204.101562 0)"/>
     <use xlink:href="#DejaVuSansMono-6d" transform="translate(1264.306641 0)"/>
     <use xlink:href="#DejaVuSansMono-65" transform="translate(1324.511719 0)"/>
     <use xlink:href="#DejaVuSansMono-20" transform="translate(1384.716797 0)"/>
     <use xlink:href="#DejaVuSansMono-61" transform="translate(1444.921875 0)"/>
     <use xlink:href="#DejaVuSansMono-73" transform="translate(1505.126953 0)"/>
     <use xlink:href="#DejaVuSansMono-20" transform="translate(1565.332031 0)"/>
     <use xlink:href="#DejaVuSansMono-62" transform="translate(1625.537109 0)"/>
     <use xlink:href="#DejaVuSansMono-75" transform="translate(1685.742188 0)"/>
     <use xlink:href="#DejaVuSansMono-73" transform="translate(1745.947266 0)"/>
     <use xlink:href="#DejaVuSansMono-65" transform="translate(1806.152344 0)"/>
     <use xlink:href="#DejaVuSansMono-73" transform="translate(1866.357422 0)"/>
     <use xlink:href="#DejaVuSansMono-20" transform="translate(1926.5625 0)"/>
     <use xlink:href="#DejaVuSansMono-61" transform="translate(1986.767578 0)"/>
     <use xlink:href="#DejaVuSansMono-72" transform="translate(2046.972656 0)"/>
     <use xlink:href="#DejaVuSansMono-65" transform="translate(2107.177734 0)"/>
     <use xlink:href="#DejaVuSansMono-20" transform="translate(2167.382812 0)"/>
     <use xlink:href="#DejaVuSansMono-72" transform="translate(2227.587891 0)"/>
     <use xlink:href="#DejaVuSansMono-75" transform="translate(2287.792969 0)"/>
     <use xlink:href="#DejaVuSansMono-6e" transform="translate(2347.998047 0)"/>
     <use xlink:href="#DejaVuSansMono-6e" transform="translate(2408.203125 0)"/>
     <use xlink:href="#DejaVuSansMono-69" transform="translate(2468.408203 0)"/>
     <use xlink:href="#DejaVuSansMono-6e" transform="translate(2528.613281 0)"/>
     <use xlink:href="#DejaVuSansMono-67" transform="translate(2588.818359 0)"/>
     <use xlink:href="#DejaVuSansMono-20" transform="translate(2649.023438 0)"/>
     <use xlink:href="#DejaVuSansMono-6c" transform="translate(2709.228516 0)"/>
     <use xlink:href="#DejaVuSansMono-61" transform="translate(2769.433594 0)"/>
     <use xlink:href="#DejaVuSansMono-74" transform="translate(2829.638672 0)"/>
     <use xlink:href="#DejaVuSansMono-65" transform="translate(2889.84375 0)"/>
     <use xlink:href="#DejaVuSansMono-20" transform="translate(2950.048828 0)"/>
     <use xlink:href="#DejaVuSansMono-62" transform="translate(3010.253906 0)"/>
     <use xlink:href="#DejaVuSansMono-75" transform="translate(3070.458984 0)"/>
     <use xlink:href="#DejaVuSansMono-74" transform="translate(3130.664062 0)"/>
     <use xlink:href="#DejaVuSansMono-20" transform="translate(3190.869141 0)"/>
     <use xlink:href="#DejaVuSansMono-61" transform="translate(3251.074219 0)"/>
     <use xlink:href="#DejaVuSansMono-74" transform="translate(3311.279297 0)"/>
     <use xlink:href="#DejaVuSansMono-20" transform="translate(3371.484375 0)"/>
     <use xlink:href="#DejaVuSansMono-74" transform="translate(3431.689453 0)"/>
     <use xlink:href="#DejaVuSansMono-68" transform="translate(3491.894531 0)"/>
     <use xlink:href="#DejaVuSansMono-65" transform="translate(3552.099609 0)"/>
     <use xlink:href="#DejaVuSansMono-6d" transform="translate(3612.304688 0)"/>
     <use xlink:href="#DejaVuSansMono-20" transform="translate(3672.509766 0)"/>
     <use xlink:href="#DejaVuSansMono-74" transform="translate(3732.714844 0)"/>
     <use xlink:href="#DejaVuSansMono-69" transform="translate(3792.919922 0)"/>
     <use xlink:href="#DejaVuSansMono-6d" transform="translate(3853.125 0)"/>
     <use xlink:href="#DejaVuSansMono-65" transform="translate(3913.330078 0)"/>
    </g>
    <!-- people are trying not to be drenched in the rain .Umbrellas help but -->
    <g transform="translate(26.451 116.505827) scale(0.09 -0.09)">
     <defs>
      <path id="DejaVuSansMono-63" d="M 3316 178 
Q 3084 44 2839 -23 
Q 2594 -91 2338 -91 
Q 1525 -91 1067 396 
Q 609 884 609 1747 
Q 609 2609 1067 3096 
Q 1525 3584 2338 3584 
Q 2591 3584 2831 3518 
Q 3072 3453 3316 3316 
L 3316 2713 
Q 3088 2916 2858 3006 
Q 2628 3097 2338 3097 
Q 1797 3097 1506 2747 
Q 1216 2397 1216 1747 
Q 1216 1100 1508 748 
Q 1800 397 2338 397 
Q 2638 397 2875 489 
Q 3113 581 3316 775 
L 3316 178 
z
" transform="scale(0.015625)"/>
      <path id="DejaVuSansMono-2e" d="M 1528 953 
L 2316 953 
L 2316 0 
L 1528 0 
L 1528 953 
z
" transform="scale(0.015625)"/>
      <path id="DejaVuSansMono-55" d="M 459 1791 
L 459 4666 
L 1094 4666 
L 1094 1503 
Q 1094 1163 1112 1017 
Q 1131 872 1178 794 
Q 1278 609 1467 515 
Q 1656 422 1925 422 
Q 2197 422 2384 515 
Q 2572 609 2675 794 
Q 2722 872 2740 1015 
Q 2759 1159 2759 1497 
L 2759 4666 
L 3391 4666 
L 3391 1791 
Q 3391 1075 3302 773 
Q 3213 472 2994 275 
Q 2788 91 2522 0 
Q 2256 -91 1925 -91 
Q 1597 -91 1331 0 
Q 1066 91 856 275 
Q 641 469 550 776 
Q 459 1084 459 1791 
z
" transform="scale(0.015625)"/>
     </defs>
     <use xlink:href="#DejaVuSansMono-70"/>
     <use xlink:href="#DejaVuSansMono-65" transform="translate(60.205078 0)"/>
     <use xlink:href="#DejaVuSansMono-6f" transform="translate(120.410156 0)"/>
     <use xlink:href="#DejaVuSansMono-70" transform="translate(180.615234 0)"/>
     <use xlink:href="#DejaVuSansMono-6c" transform="translate(240.820312 0)"/>
     <use xlink:href="#DejaVuSansMono-65" transform="translate(301.025391 0)"/>
     <use xlink:href="#DejaVuSansMono-20" transform="translate(361.230469 0)"/>
     <use xlink:href="#DejaVuSansMono-61" transform="translate(421.435547 0)"/>
     <use xlink:href="#DejaVuSansMono-72" transform="translate(481.640625 0)"/>
     <use xlink:href="#DejaVuSansMono-65" transform="translate(541.845703 0)"/>
     <use xlink:href="#DejaVuSansMono-20" transform="translate(602.050781 0)"/>
     <use xlink:href="#DejaVuSansMono-74" transform="translate(662.255859 0)"/>
     <use xlink:href="#DejaVuSansMono-72" transform="translate(722.460938 0)"/>
     <use xlink:href="#DejaVuSansMono-79" transform="translate(782.666016 0)"/>
     <use xlink:href="#DejaVuSansMono-69" transform="translate(842.871094 0)"/>
     <use xlink:href="#DejaVuSansMono-6e" transform="translate(903.076172 0)"/>
     <use xlink:href="#DejaVuSansMono-67" transform="translate(963.28125 0)"/>
     <use xlink:href="#DejaVuSansMono-20" transform="translate(1023.486328 0)"/>
     <use xlink:href="#DejaVuSansMono-6e" transform="translate(1083.691406 0)"/>
     <use xlink:href="#DejaVuSansMono-6f" transform="translate(1143.896484 0)"/>
     <use xlink:href="#DejaVuSansMono-74" transform="translate(1204.101562 0)"/>
     <use xlink:href="#DejaVuSansMono-20" transform="translate(1264.306641 0)"/>
     <use xlink:href="#DejaVuSansMono-74" transform="translate(1324.511719 0)"/>
     <use xlink:href="#DejaVuSansMono-6f" transform="translate(1384.716797 0)"/>
     <use xlink:href="#DejaVuSansMono-20" transform="translate(1444.921875 0)"/>
     <use xlink:href="#DejaVuSansMono-62" transform="translate(1505.126953 0)"/>
     <use xlink:href="#DejaVuSansMono-65" transform="translate(1565.332031 0)"/>
     <use xlink:href="#DejaVuSansMono-20" transform="translate(1625.537109 0)"/>
     <use xlink:href="#DejaVuSansMono-64" transform="translate(1685.742188 0)"/>
     <use xlink:href="#DejaVuSansMono-72" transform="translate(1745.947266 0)"/>
     <use xlink:href="#DejaVuSansMono-65" transform="translate(1806.152344 0)"/>
     <use xlink:href="#DejaVuSansMono-6e" transform="translate(1866.357422 0)"/>
     <use xlink:href="#DejaVuSansMono-63" transform="translate(1926.5625 0)"/>
     <use xlink:href="#DejaVuSansMono-68" transform="translate(1986.767578 0)"/>
     <use xlink:href="#DejaVuSansMono-65" transform="translate(2046.972656 0)"/>
     <use xlink:href="#DejaVuSansMono-64" transform="translate(2107.177734 0)"/>
     <use xlink:href="#DejaVuSansMono-20" transform="translate(2167.382812 0)"/>
     <use xlink:href="#DejaVuSansMono-69" transform="translate(2227.587891 0)"/>
     <use xlink:href="#DejaVuSansMono-6e" transform="translate(2287.792969 0)"/>
     <use xlink:href="#DejaVuSansMono-20" transform="translate(2347.998047 0)"/>
     <use xlink:href="#DejaVuSansMono-74" transform="translate(2408.203125 0)"/>
     <use xlink:href="#DejaVuSansMono-68" transform="translate(2468.408203 0)"/>
     <use xlink:href="#DejaVuSansMono-65" transform="translate(2528.613281 0)"/>
     <use xlink:href="#DejaVuSansMono-20" transform="translate(2588.818359 0)"/>
     <use xlink:href="#DejaVuSansMono-72" transform="translate(2649.023438 0)"/>
     <use xlink:href="#DejaVuSansMono-61" transform="translate(2709.228516 0)"/>
     <use xlink:href="#DejaVuSansMono-69" transform="translate(2769.433594 0)"/>
     <use xlink:href="#DejaVuSansMono-6e" transform="translate(2829.638672 0)"/>
     <use xlink:href="#DejaVuSansMono-20" transform="translate(2889.84375 0)"/>
     <use xlink:href="#DejaVuSansMono-2e" transform="translate(2950.048828 0)"/>
     <use xlink:href="#DejaVuSansMono-55" transform="translate(3010.253906 0)"/>
     <use xlink:href="#DejaVuSansMono-6d" transform="translate(3070.458984 0)"/>
     <use xlink:href="#DejaVuSansMono-62" transform="translate(3130.664062 0)"/>
     <use xlink:href="#DejaVuSansMono-72" transform="translate(3190.869141 0)"/>
     <use xlink:href="#DejaVuSansMono-65" transform="translate(3251.074219 0)"/>
     <use xlink:href="#DejaVuSansMono-6c" transform="translate(3311.279297 0)"/>
     <use xlink:href="#DejaVuSansMono-6c" transform="translate(3371.484375 0)"/>
     <use xlink:href="#DejaVuSansMono-61" transform="translate(3431.689453 0)"/>
     <use xlink:href="#DejaVuSansMono-73" transform="translate(3491.894531 0)"/>
     <use xlink:href="#DejaVuSansMono-20" transform="translate(3552.099609 0)"/>
     <use xlink:href="#DejaVuSansMono-68" transform="translate(3612.304688 0)"/>
     <use xlink:href="#DejaVuSansMono-65" transform="translate(3672.509766 0)"/>
     <use xlink:href="#DejaVuSansMono-6c" transform="translate(3732.714844 0)"/>
     <use xlink:href="#DejaVuSansMono-70" transform="translate(3792.919922 0)"/>
     <use xlink:href="#DejaVuSansMono-20" transform="translate(3853.125 0)"/>
     <use xlink:href="#DejaVuSansMono-62" transform="translate(3913.330078 0)"/>
     <use xlink:href="#DejaVuSansMono-75" transform="translate(3973.535156 0)"/>
     <use xlink:href="#DejaVuSansMono-74" transform="translate(4033.740234 0)"/>
    </g>
    <!-- they are of no use if the rain is non stop and no bus  is on time Buses -->
    <g transform="translate(26.451 127.736069) scale(0.09 -0.09)">
     <defs>
      <path id="DejaVuSansMono-42" d="M 1153 2228 
L 1153 519 
L 1900 519 
Q 2450 519 2684 711 
Q 2919 903 2919 1344 
Q 2919 1800 2672 2014 
Q 2425 2228 1900 2228 
L 1153 2228 
z
M 1153 4147 
L 1153 2741 
L 1888 2741 
Q 2344 2741 2548 2916 
Q 2753 3091 2753 3481 
Q 2753 3834 2551 3990 
Q 2350 4147 1888 4147 
L 1153 4147 
z
M 519 4666 
L 1900 4666 
Q 2616 4666 3003 4356 
Q 3391 4047 3391 3481 
Q 3391 3053 3186 2806 
Q 2981 2559 2572 2497 
Q 3031 2428 3292 2104 
Q 3553 1781 3553 1281 
Q 3553 647 3137 323 
Q 2722 0 1900 0 
L 519 0 
L 519 4666 
z
" transform="scale(0.015625)"/>
     </defs>
     <use xlink:href="#DejaVuSansMono-74"/>
     <use xlink:href="#DejaVuSansMono-68" transform="translate(60.205078 0)"/>
     <use xlink:href="#DejaVuSansMono-65" transform="translate(120.410156 0)"/>
     <use xlink:href="#DejaVuSansMono-79" transform="translate(180.615234 0)"/>
     <use xlink:href="#DejaVuSansMono-20" transform="translate(240.820312 0)"/>
     <use xlink:href="#DejaVuSansMono-61" transform="translate(301.025391 0)"/>
     <use xlink:href="#DejaVuSansMono-72" transform="translate(361.230469 0)"/>
     <use xlink:href="#DejaVuSansMono-65" transform="translate(421.435547 0)"/>
     <use xlink:href="#DejaVuSansMono-20" transform="translate(481.640625 0)"/>
     <use xlink:href="#DejaVuSansMono-6f" transform="translate(541.845703 0)"/>
     <use xlink:href="#DejaVuSansMono-66" transform="translate(602.050781 0)"/>
     <use xlink:href="#DejaVuSansMono-20" transform="translate(662.255859 0)"/>
     <use xlink:href="#DejaVuSansMono-6e" transform="translate(722.460938 0)"/>
     <use xlink:href="#DejaVuSansMono-6f" transform="translate(782.666016 0)"/>
     <use xlink:href="#DejaVuSansMono-20" transform="translate(842.871094 0)"/>
     <use xlink:href="#DejaVuSansMono-75" transform="translate(903.076172 0)"/>
     <use xlink:href="#DejaVuSansMono-73" transform="translate(963.28125 0)"/>
     <use xlink:href="#DejaVuSansMono-65" transform="translate(1023.486328 0)"/>
     <use xlink:href="#DejaVuSansMono-20" transform="translate(1083.691406 0)"/>
     <use xlink:href="#DejaVuSansMono-69" transform="translate(1143.896484 0)"/>
     <use xlink:href="#DejaVuSansMono-66" transform="translate(1204.101562 0)"/>
     <use xlink:href="#DejaVuSansMono-20" transform="translate(1264.306641 0)"/>
     <use xlink:href="#DejaVuSansMono-74" transform="translate(1324.511719 0)"/>
     <use xlink:href="#DejaVuSansMono-68" transform="translate(1384.716797 0)"/>
     <use xlink:href="#DejaVuSansMono-65" transform="translate(1444.921875 0)"/>
     <use xlink:href="#DejaVuSansMono-20" transform="translate(1505.126953 0)"/>
     <use xlink:href="#DejaVuSansMono-72" transform="translate(1565.332031 0)"/>
     <use xlink:href="#DejaVuSansMono-61" transform="translate(1625.537109 0)"/>
     <use xlink:href="#DejaVuSansMono-69" transform="translate(1685.742188 0)"/>
     <use xlink:href="#DejaVuSansMono-6e" transform="translate(1745.947266 0)"/>
     <use xlink:href="#DejaVuSansMono-20" transform="translate(1806.152344 0)"/>
     <use xlink:href="#DejaVuSansMono-69" transform="translate(1866.357422 0)"/>
     <use xlink:href="#DejaVuSansMono-73" transform="translate(1926.5625 0)"/>
     <use xlink:href="#DejaVuSansMono-20" transform="translate(1986.767578 0)"/>
     <use xlink:href="#DejaVuSansMono-6e" transform="translate(2046.972656 0)"/>
     <use xlink:href="#DejaVuSansMono-6f" transform="translate(2107.177734 0)"/>
     <use xlink:href="#DejaVuSansMono-6e" transform="translate(2167.382812 0)"/>
     <use xlink:href="#DejaVuSansMono-20" transform="translate(2227.587891 0)"/>
     <use xlink:href="#DejaVuSansMono-73" transform="translate(2287.792969 0)"/>
     <use xlink:href="#DejaVuSansMono-74" transform="translate(2347.998047 0)"/>
     <use xlink:href="#DejaVuSansMono-6f" transform="translate(2408.203125 0)"/>
     <use xlink:href="#DejaVuSansMono-70" transform="translate(2468.408203 0)"/>
     <use xlink:href="#DejaVuSansMono-20" transform="translate(2528.613281 0)"/>
     <use xlink:href="#DejaVuSansMono-61" transform="translate(2588.818359 0)"/>
     <use xlink:href="#DejaVuSansMono-6e" transform="translate(2649.023438 0)"/>
     <use xlink:href="#DejaVuSansMono-64" transform="translate(2709.228516 0)"/>
     <use xlink:href="#DejaVuSansMono-20" transform="translate(2769.433594 0)"/>
     <use xlink:href="#DejaVuSansMono-6e" transform="translate(2829.638672 0)"/>
     <use xlink:href="#DejaVuSansMono-6f" transform="translate(2889.84375 0)"/>
     <use xlink:href="#DejaVuSansMono-20" transform="translate(2950.048828 0)"/>
     <use xlink:href="#DejaVuSansMono-62" transform="translate(3010.253906 0)"/>
     <use xlink:href="#DejaVuSansMono-75" transform="translate(3070.458984 0)"/>
     <use xlink:href="#DejaVuSansMono-73" transform="translate(3130.664062 0)"/>
     <use xlink:href="#DejaVuSansMono-20" transform="translate(3190.869141 0)"/>
     <use xlink:href="#DejaVuSansMono-20" transform="translate(3251.074219 0)"/>
     <use xlink:href="#DejaVuSansMono-69" transform="translate(3311.279297 0)"/>
     <use xlink:href="#DejaVuSansMono-73" transform="translate(3371.484375 0)"/>
     <use xlink:href="#DejaVuSansMono-20" transform="translate(3431.689453 0)"/>
     <use xlink:href="#DejaVuSansMono-6f" transform="translate(3491.894531 0)"/>
     <use xlink:href="#DejaVuSansMono-6e" transform="translate(3552.099609 0)"/>
     <use xlink:href="#DejaVuSansMono-20" transform="translate(3612.304688 0)"/>
     <use xlink:href="#DejaVuSansMono-74" transform="translate(3672.509766 0)"/>
     <use xlink:href="#DejaVuSansMono-69" transform="translate(3732.714844 0)"/>
     <use xlink:href="#DejaVuSansMono-6d" transform="translate(3792.919922 0)"/>
     <use xlink:href="#DejaVuSansMono-65" transform="translate(3853.125 0)"/>
     <use xlink:href="#DejaVuSansMono-20" transform="translate(3913.330078 0)"/>
     <use xlink:href="#DejaVuSansMono-42" transform="translate(3973.535156 0)"/>
     <use xlink:href="#DejaVuSansMono-75" transform="translate(4033.740234 0)"/>
     <use xlink:href="#DejaVuSansMono-73" transform="translate(4093.945312 0)"/>
     <use xlink:href="#DejaVuSansMono-65" transform="translate(4154.150391 0)"/>
     <use xlink:href="#DejaVuSansMono-73" transform="translate(4214.355469 0)"/>
    </g>
    <!-- are usually late due to traffic and puddle due to heavy rains .Children -->
    <g transform="translate(26.451 138.904436) scale(0.09 -0.09)">
     <defs>
      <path id="DejaVuSansMono-76" d="M 313 3500 
L 909 3500 
L 1925 563 
L 2944 3500 
L 3541 3500 
L 2297 0 
L 1556 0 
L 313 3500 
z
" transform="scale(0.015625)"/>
      <path id="DejaVuSansMono-43" d="M 3353 166 
Q 3113 38 2859 -26 
Q 2606 -91 2322 -91 
Q 1425 -91 929 543 
Q 434 1178 434 2328 
Q 434 3472 932 4111 
Q 1431 4750 2322 4750 
Q 2606 4750 2859 4686 
Q 3113 4622 3353 4494 
L 3353 3847 
Q 3122 4038 2856 4138 
Q 2591 4238 2322 4238 
Q 1706 4238 1400 3763 
Q 1094 3288 1094 2328 
Q 1094 1372 1400 897 
Q 1706 422 2322 422 
Q 2597 422 2861 522 
Q 3125 622 3353 813 
L 3353 166 
z
" transform="scale(0.015625)"/>
     </defs>
     <use xlink:href="#DejaVuSansMono-61"/>
     <use xlink:href="#DejaVuSansMono-72" transform="translate(60.205078 0)"/>
     <use xlink:href="#DejaVuSansMono-65" transform="translate(120.410156 0)"/>
     <use xlink:href="#DejaVuSansMono-20" transform="translate(180.615234 0)"/>
     <use xlink:href="#DejaVuSansMono-75" transform="translate(240.820312 0)"/>
     <use xlink:href="#DejaVuSansMono-73" transform="translate(301.025391 0)"/>
     <use xlink:href="#DejaVuSansMono-75" transform="translate(361.230469 0)"/>
     <use xlink:href="#DejaVuSansMono-61" transform="translate(421.435547 0)"/>
     <use xlink:href="#DejaVuSansMono-6c" transform="translate(481.640625 0)"/>
     <use xlink:href="#DejaVuSansMono-6c" transform="translate(541.845703 0)"/>
     <use xlink:href="#DejaVuSansMono-79" transform="translate(602.050781 0)"/>
     <use xlink:href="#DejaVuSansMono-20" transform="translate(662.255859 0)"/>
     <use xlink:href="#DejaVuSansMono-6c" transform="translate(722.460938 0)"/>
     <use xlink:href="#DejaVuSansMono-61" transform="translate(782.666016 0)"/>
     <use xlink:href="#DejaVuSansMono-74" transform="translate(842.871094 0)"/>
     <use xlink:href="#DejaVuSansMono-65" transform="translate(903.076172 0)"/>
     <use xlink:href="#DejaVuSansMono-20" transform="translate(963.28125 0)"/>
     <use xlink:href="#DejaVuSansMono-64" transform="translate(1023.486328 0)"/>
     <use xlink:href="#DejaVuSansMono-75" transform="translate(1083.691406 0)"/>
     <use xlink:href="#DejaVuSansMono-65" transform="translate(1143.896484 0)"/>
     <use xlink:href="#DejaVuSansMono-20" transform="translate(1204.101562 0)"/>
     <use xlink:href="#DejaVuSansMono-74" transform="translate(1264.306641 0)"/>
     <use xlink:href="#DejaVuSansMono-6f" transform="translate(1324.511719 0)"/>
     <use xlink:href="#DejaVuSansMono-20" transform="translate(1384.716797 0)"/>
     <use xlink:href="#DejaVuSansMono-74" transform="translate(1444.921875 0)"/>
     <use xlink:href="#DejaVuSansMono-72" transform="translate(1505.126953 0)"/>
     <use xlink:href="#DejaVuSansMono-61" transform="translate(1565.332031 0)"/>
     <use xlink:href="#DejaVuSansMono-66" transform="translate(1625.537109 0)"/>
     <use xlink:href="#DejaVuSansMono-66" transform="translate(1685.742188 0)"/>
     <use xlink:href="#DejaVuSansMono-69" transform="translate(1745.947266 0)"/>
     <use xlink:href="#DejaVuSansMono-63" transform="translate(1806.152344 0)"/>
     <use xlink:href="#DejaVuSansMono-20" transform="translate(1866.357422 0)"/>
     <use xlink:href="#DejaVuSansMono-61" transform="translate(1926.5625 0)"/>
     <use xlink:href="#DejaVuSansMono-6e" transform="translate(1986.767578 0)"/>
     <use xlink:href="#DejaVuSansMono-64" transform="translate(2046.972656 0)"/>
     <use xlink:href="#DejaVuSansMono-20" transform="translate(2107.177734 0)"/>
     <use xlink:href="#DejaVuSansMono-70" transform="translate(2167.382812 0)"/>
     <use xlink:href="#DejaVuSansMono-75" transform="translate(2227.587891 0)"/>
     <use xlink:href="#DejaVuSansMono-64" transform="translate(2287.792969 0)"/>
     <use xlink:href="#DejaVuSansMono-64" transform="translate(2347.998047 0)"/>
     <use xlink:href="#DejaVuSansMono-6c" transform="translate(2408.203125 0)"/>
     <use xlink:href="#DejaVuSansMono-65" transform="translate(2468.408203 0)"/>
     <use xlink:href="#DejaVuSansMono-20" transform="translate(2528.613281 0)"/>
     <use xlink:href="#DejaVuSansMono-64" transform="translate(2588.818359 0)"/>
     <use xlink:href="#DejaVuSansMono-75" transform="translate(2649.023438 0)"/>
     <use xlink:href="#DejaVuSansMono-65" transform="translate(2709.228516 0)"/>
     <use xlink:href="#DejaVuSansMono-20" transform="translate(2769.433594 0)"/>
     <use xlink:href="#DejaVuSansMono-74" transform="translate(2829.638672 0)"/>
     <use xlink:href="#DejaVuSansMono-6f" transform="translate(2889.84375 0)"/>
     <use xlink:href="#DejaVuSansMono-20" transform="translate(2950.048828 0)"/>
     <use xlink:href="#DejaVuSansMono-68" transform="translate(3010.253906 0)"/>
     <use xlink:href="#DejaVuSansMono-65" transform="translate(3070.458984 0)"/>
     <use xlink:href="#DejaVuSansMono-61" transform="translate(3130.664062 0)"/>
     <use xlink:href="#DejaVuSansMono-76" transform="translate(3190.869141 0)"/>
     <use xlink:href="#DejaVuSansMono-79" transform="translate(3251.074219 0)"/>
     <use xlink:href="#DejaVuSansMono-20" transform="translate(3311.279297 0)"/>
     <use xlink:href="#DejaVuSansMono-72" transform="translate(3371.484375 0)"/>
     <use xlink:href="#DejaVuSansMono-61" transform="translate(3431.689453 0)"/>
     <use xlink:href="#DejaVuSansMono-69" transform="translate(3491.894531 0)"/>
     <use xlink:href="#DejaVuSansMono-6e" transform="translate(3552.099609 0)"/>
     <use xlink:href="#DejaVuSansMono-73" transform="translate(3612.304688 0)"/>
     <use xlink:href="#DejaVuSansMono-20" transform="translate(3672.509766 0)"/>
     <use xlink:href="#DejaVuSansMono-2e" transform="translate(3732.714844 0)"/>
     <use xlink:href="#DejaVuSansMono-43" transform="translate(3792.919922 0)"/>
     <use xlink:href="#DejaVuSansMono-68" transform="translate(3853.125 0)"/>
     <use xlink:href="#DejaVuSansMono-69" transform="translate(3913.330078 0)"/>
     <use xlink:href="#DejaVuSansMono-6c" transform="translate(3973.535156 0)"/>
     <use xlink:href="#DejaVuSansMono-64" transform="translate(4033.740234 0)"/>
     <use xlink:href="#DejaVuSansMono-72" transform="translate(4093.945312 0)"/>
     <use xlink:href="#DejaVuSansMono-65" transform="translate(4154.150391 0)"/>
     <use xlink:href="#DejaVuSansMono-6e" transform="translate(4214.355469 0)"/>
    </g>
    <!-- to adults waiting for the bus to arrive are always frustrated ,a bit -->
    <g transform="translate(26.451 150.072803) scale(0.09 -0.09)">
     <defs>
      <path id="DejaVuSansMono-77" d="M 0 3500 
L 569 3500 
L 1178 672 
L 1678 2478 
L 2169 2478 
L 2675 672 
L 3284 3500 
L 3853 3500 
L 3034 0 
L 2484 0 
L 1925 1919 
L 1369 0 
L 819 0 
L 0 3500 
z
" transform="scale(0.015625)"/>
     </defs>
     <use xlink:href="#DejaVuSansMono-74"/>
     <use xlink:href="#DejaVuSansMono-6f" transform="translate(60.205078 0)"/>
     <use xlink:href="#DejaVuSansMono-20" transform="translate(120.410156 0)"/>
     <use xlink:href="#DejaVuSansMono-61" transform="translate(180.615234 0)"/>
     <use xlink:href="#DejaVuSansMono-64" transform="translate(240.820312 0)"/>
     <use xlink:href="#DejaVuSansMono-75" transform="translate(301.025391 0)"/>
     <use xlink:href="#DejaVuSansMono-6c" transform="translate(361.230469 0)"/>
     <use xlink:href="#DejaVuSansMono-74" transform="translate(421.435547 0)"/>
     <use xlink:href="#DejaVuSansMono-73" transform="translate(481.640625 0)"/>
     <use xlink:href="#DejaVuSansMono-20" transform="translate(541.845703 0)"/>
     <use xlink:href="#DejaVuSansMono-77" transform="translate(602.050781 0)"/>
     <use xlink:href="#DejaVuSansMono-61" transform="translate(662.255859 0)"/>
     <use xlink:href="#DejaVuSansMono-69" transform="translate(722.460938 0)"/>
     <use xlink:href="#DejaVuSansMono-74" transform="translate(782.666016 0)"/>
     <use xlink:href="#DejaVuSansMono-69" transform="translate(842.871094 0)"/>
     <use xlink:href="#DejaVuSansMono-6e" transform="translate(903.076172 0)"/>
     <use xlink:href="#DejaVuSansMono-67" transform="translate(963.28125 0)"/>
     <use xlink:href="#DejaVuSansMono-20" transform="translate(1023.486328 0)"/>
     <use xlink:href="#DejaVuSansMono-66" transform="translate(1083.691406 0)"/>
     <use xlink:href="#DejaVuSansMono-6f" transform="translate(1143.896484 0)"/>
     <use xlink:href="#DejaVuSansMono-72" transform="translate(1204.101562 0)"/>
     <use xlink:href="#DejaVuSansMono-20" transform="translate(1264.306641 0)"/>
     <use xlink:href="#DejaVuSansMono-74" transform="translate(1324.511719 0)"/>
     <use xlink:href="#DejaVuSansMono-68" transform="translate(1384.716797 0)"/>
     <use xlink:href="#DejaVuSansMono-65" transform="translate(1444.921875 0)"/>
     <use xlink:href="#DejaVuSansMono-20" transform="translate(1505.126953 0)"/>
     <use xlink:href="#DejaVuSansMono-62" transform="translate(1565.332031 0)"/>
     <use xlink:href="#DejaVuSansMono-75" transform="translate(1625.537109 0)"/>
     <use xlink:href="#DejaVuSansMono-73" transform="translate(1685.742188 0)"/>
     <use xlink:href="#DejaVuSansMono-20" transform="translate(1745.947266 0)"/>
     <use xlink:href="#DejaVuSansMono-74" transform="translate(1806.152344 0)"/>
     <use xlink:href="#DejaVuSansMono-6f" transform="translate(1866.357422 0)"/>
     <use xlink:href="#DejaVuSansMono-20" transform="translate(1926.5625 0)"/>
     <use xlink:href="#DejaVuSansMono-61" transform="translate(1986.767578 0)"/>
     <use xlink:href="#DejaVuSansMono-72" transform="translate(2046.972656 0)"/>
     <use xlink:href="#DejaVuSansMono-72" transform="translate(2107.177734 0)"/>
     <use xlink:href="#DejaVuSansMono-69" transform="translate(2167.382812 0)"/>
     <use xlink:href="#DejaVuSansMono-76" transform="translate(2227.587891 0)"/>
     <use xlink:href="#DejaVuSansMono-65" transform="translate(2287.792969 0)"/>
     <use xlink:href="#DejaVuSansMono-20" transform="translate(2347.998047 0)"/>
     <use xlink:href="#DejaVuSansMono-61" transform="translate(2408.203125 0)"/>
     <use xlink:href="#DejaVuSansMono-72" transform="translate(2468.408203 0)"/>
     <use xlink:href="#DejaVuSansMono-65" transform="translate(2528.613281 0)"/>
     <use xlink:href="#DejaVuSansMono-20" transform="translate(2588.818359 0)"/>
     <use xlink:href="#DejaVuSansMono-61" transform="translate(2649.023438 0)"/>
     <use xlink:href="#DejaVuSansMono-6c" transform="translate(2709.228516 0)"/>
     <use xlink:href="#DejaVuSansMono-77" transform="translate(2769.433594 0)"/>
     <use xlink:href="#DejaVuSansMono-61" transform="translate(2829.638672 0)"/>
     <use xlink:href="#DejaVuSansMono-79" transform="translate(2889.84375 0)"/>
     <use xlink:href="#DejaVuSansMono-73" transform="translate(2950.048828 0)"/>
     <use xlink:href="#DejaVuSansMono-20" transform="translate(3010.253906 0)"/>
     <use xlink:href="#DejaVuSansMono-66" transform="translate(3070.458984 0)"/>
     <use xlink:href="#DejaVuSansMono-72" transform="translate(3130.664062 0)"/>
     <use xlink:href="#DejaVuSansMono-75" transform="translate(3190.869141 0)"/>
     <use xlink:href="#DejaVuSansMono-73" transform="translate(3251.074219 0)"/>
     <use xlink:href="#DejaVuSansMono-74" transform="translate(3311.279297 0)"/>
     <use xlink:href="#DejaVuSansMono-72" transform="translate(3371.484375 0)"/>
     <use xlink:href="#DejaVuSansMono-61" transform="translate(3431.689453 0)"/>
     <use xlink:href="#DejaVuSansMono-74" transform="translate(3491.894531 0)"/>
     <use xlink:href="#DejaVuSansMono-65" transform="translate(3552.099609 0)"/>
     <use xlink:href="#DejaVuSansMono-64" transform="translate(3612.304688 0)"/>
     <use xlink:href="#DejaVuSansMono-20" transform="translate(3672.509766 0)"/>
     <use xlink:href="#DejaVuSansMono-2c" transform="translate(3732.714844 0)"/>
     <use xlink:href="#DejaVuSansMono-61" transform="translate(3792.919922 0)"/>
     <use xlink:href="#DejaVuSansMono-20" transform="translate(3853.125 0)"/>
     <use xlink:href="#DejaVuSansMono-62" transform="translate(3913.330078 0)"/>
     <use xlink:href="#DejaVuSansMono-69" transform="translate(3973.535156 0)"/>
     <use xlink:href="#DejaVuSansMono-74" transform="translate(4033.740234 0)"/>
    </g>
    <!-- agitated as a well due to the rain and bus being late .Buses are -->
    <g transform="translate(26.451 161.303046) scale(0.09 -0.09)">
     <use xlink:href="#DejaVuSansMono-61"/>
     <use xlink:href="#DejaVuSansMono-67" transform="translate(60.205078 0)"/>
     <use xlink:href="#DejaVuSansMono-69" transform="translate(120.410156 0)"/>
     <use xlink:href="#DejaVuSansMono-74" transform="translate(180.615234 0)"/>
     <use xlink:href="#DejaVuSansMono-61" transform="translate(240.820312 0)"/>
     <use xlink:href="#DejaVuSansMono-74" transform="translate(301.025391 0)"/>
     <use xlink:href="#DejaVuSansMono-65" transform="translate(361.230469 0)"/>
     <use xlink:href="#DejaVuSansMono-64" transform="translate(421.435547 0)"/>
     <use xlink:href="#DejaVuSansMono-20" transform="translate(481.640625 0)"/>
     <use xlink:href="#DejaVuSansMono-61" transform="translate(541.845703 0)"/>
     <use xlink:href="#DejaVuSansMono-73" transform="translate(602.050781 0)"/>
     <use xlink:href="#DejaVuSansMono-20" transform="translate(662.255859 0)"/>
     <use xlink:href="#DejaVuSansMono-61" transform="translate(722.460938 0)"/>
     <use xlink:href="#DejaVuSansMono-20" transform="translate(782.666016 0)"/>
     <use xlink:href="#DejaVuSansMono-77" transform="translate(842.871094 0)"/>
     <use xlink:href="#DejaVuSansMono-65" transform="translate(903.076172 0)"/>
     <use xlink:href="#DejaVuSansMono-6c" transform="translate(963.28125 0)"/>
     <use xlink:href="#DejaVuSansMono-6c" transform="translate(1023.486328 0)"/>
     <use xlink:href="#DejaVuSansMono-20" transform="translate(1083.691406 0)"/>
     <use xlink:href="#DejaVuSansMono-64" transform="translate(1143.896484 0)"/>
     <use xlink:href="#DejaVuSansMono-75" transform="translate(1204.101562 0)"/>
     <use xlink:href="#DejaVuSansMono-65" transform="translate(1264.306641 0)"/>
     <use xlink:href="#DejaVuSansMono-20" transform="translate(1324.511719 0)"/>
     <use xlink:href="#DejaVuSansMono-74" transform="translate(1384.716797 0)"/>
     <use xlink:href="#DejaVuSansMono-6f" transform="translate(1444.921875 0)"/>
     <use xlink:href="#DejaVuSansMono-20" transform="translate(1505.126953 0)"/>
     <use xlink:href="#DejaVuSansMono-74" transform="translate(1565.332031 0)"/>
     <use xlink:href="#DejaVuSansMono-68" transform="translate(1625.537109 0)"/>
     <use xlink:href="#DejaVuSansMono-65" transform="translate(1685.742188 0)"/>
     <use xlink:href="#DejaVuSansMono-20" transform="translate(1745.947266 0)"/>
     <use xlink:href="#DejaVuSansMono-72" transform="translate(1806.152344 0)"/>
     <use xlink:href="#DejaVuSansMono-61" transform="translate(1866.357422 0)"/>
     <use xlink:href="#DejaVuSansMono-69" transform="translate(1926.5625 0)"/>
     <use xlink:href="#DejaVuSansMono-6e" transform="translate(1986.767578 0)"/>
     <use xlink:href="#DejaVuSansMono-20" transform="translate(2046.972656 0)"/>
     <use xlink:href="#DejaVuSansMono-61" transform="translate(2107.177734 0)"/>
     <use xlink:href="#DejaVuSansMono-6e" transform="translate(2167.382812 0)"/>
     <use xlink:href="#DejaVuSansMono-64" transform="translate(2227.587891 0)"/>
     <use xlink:href="#DejaVuSansMono-20" transform="translate(2287.792969 0)"/>
     <use xlink:href="#DejaVuSansMono-62" transform="translate(2347.998047 0)"/>
     <use xlink:href="#DejaVuSansMono-75" transform="translate(2408.203125 0)"/>
     <use xlink:href="#DejaVuSansMono-73" transform="translate(2468.408203 0)"/>
     <use xlink:href="#DejaVuSansMono-20" transform="translate(2528.613281 0)"/>
     <use xlink:href="#DejaVuSansMono-62" transform="translate(2588.818359 0)"/>
     <use xlink:href="#DejaVuSansMono-65" transform="translate(2649.023438 0)"/>
     <use xlink:href="#DejaVuSansMono-69" transform="translate(2709.228516 0)"/>
     <use xlink:href="#DejaVuSansMono-6e" transform="translate(2769.433594 0)"/>
     <use xlink:href="#DejaVuSansMono-67" transform="translate(2829.638672 0)"/>
     <use xlink:href="#DejaVuSansMono-20" transform="translate(2889.84375 0)"/>
     <use xlink:href="#DejaVuSansMono-6c" transform="translate(2950.048828 0)"/>
     <use xlink:href="#DejaVuSansMono-61" transform="translate(3010.253906 0)"/>
     <use xlink:href="#DejaVuSansMono-74" transform="translate(3070.458984 0)"/>
     <use xlink:href="#DejaVuSansMono-65" transform="translate(3130.664062 0)"/>
     <use xlink:href="#DejaVuSansMono-20" transform="translate(3190.869141 0)"/>
     <use xlink:href="#DejaVuSansMono-2e" transform="translate(3251.074219 0)"/>
     <use xlink:href="#DejaVuSansMono-42" transform="translate(3311.279297 0)"/>
     <use xlink:href="#DejaVuSansMono-75" transform="translate(3371.484375 0)"/>
     <use xlink:href="#DejaVuSansMono-73" transform="translate(3431.689453 0)"/>
     <use xlink:href="#DejaVuSansMono-65" transform="translate(3491.894531 0)"/>
     <use xlink:href="#DejaVuSansMono-73" transform="translate(3552.099609 0)"/>
     <use xlink:href="#DejaVuSansMono-20" transform="translate(3612.304688 0)"/>
     <use xlink:href="#DejaVuSansMono-61" transform="translate(3672.509766 0)"/>
     <use xlink:href="#DejaVuSansMono-72" transform="translate(3732.714844 0)"/>
     <use xlink:href="#DejaVuSansMono-65" transform="translate(3792.919922 0)"/>
    </g>
    <!-- usually 20 mins late always due to which everyone is trying to get to -->
    <g transform="translate(26.451 172.533288) scale(0.09 -0.09)">
     <defs>
      <path id="DejaVuSansMono-32" d="M 1166 531 
L 3309 531 
L 3309 0 
L 475 0 
L 475 531 
Q 1059 1147 1496 1619 
Q 1934 2091 2100 2284 
Q 2413 2666 2522 2902 
Q 2631 3138 2631 3384 
Q 2631 3775 2401 3997 
Q 2172 4219 1772 4219 
Q 1488 4219 1175 4116 
Q 863 4013 513 3803 
L 513 4441 
Q 834 4594 1145 4672 
Q 1456 4750 1759 4750 
Q 2444 4750 2861 4386 
Q 3278 4022 3278 3431 
Q 3278 3131 3139 2831 
Q 3000 2531 2688 2169 
Q 2513 1966 2180 1606 
Q 1847 1247 1166 531 
z
" transform="scale(0.015625)"/>
      <path id="DejaVuSansMono-30" d="M 1509 2344 
Q 1509 2516 1629 2641 
Q 1750 2766 1919 2766 
Q 2094 2766 2219 2641 
Q 2344 2516 2344 2344 
Q 2344 2169 2220 2047 
Q 2097 1925 1919 1925 
Q 1744 1925 1626 2044 
Q 1509 2163 1509 2344 
z
M 1925 4250 
Q 1484 4250 1267 3775 
Q 1050 3300 1050 2328 
Q 1050 1359 1267 884 
Q 1484 409 1925 409 
Q 2369 409 2586 884 
Q 2803 1359 2803 2328 
Q 2803 3300 2586 3775 
Q 2369 4250 1925 4250 
z
M 1925 4750 
Q 2672 4750 3055 4137 
Q 3438 3525 3438 2328 
Q 3438 1134 3055 521 
Q 2672 -91 1925 -91 
Q 1178 -91 797 521 
Q 416 1134 416 2328 
Q 416 3525 797 4137 
Q 1178 4750 1925 4750 
z
" transform="scale(0.015625)"/>
     </defs>
     <use xlink:href="#DejaVuSansMono-75"/>
     <use xlink:href="#DejaVuSansMono-73" transform="translate(60.205078 0)"/>
     <use xlink:href="#DejaVuSansMono-75" transform="translate(120.410156 0)"/>
     <use xlink:href="#DejaVuSansMono-61" transform="translate(180.615234 0)"/>
     <use xlink:href="#DejaVuSansMono-6c" transform="translate(240.820312 0)"/>
     <use xlink:href="#DejaVuSansMono-6c" transform="translate(301.025391 0)"/>
     <use xlink:href="#DejaVuSansMono-79" transform="translate(361.230469 0)"/>
     <use xlink:href="#DejaVuSansMono-20" transform="translate(421.435547 0)"/>
     <use xlink:href="#DejaVuSansMono-32" transform="translate(481.640625 0)"/>
     <use xlink:href="#DejaVuSansMono-30" transform="translate(541.845703 0)"/>
     <use xlink:href="#DejaVuSansMono-20" transform="translate(602.050781 0)"/>
     <use xlink:href="#DejaVuSansMono-6d" transform="translate(662.255859 0)"/>
     <use xlink:href="#DejaVuSansMono-69" transform="translate(722.460938 0)"/>
     <use xlink:href="#DejaVuSansMono-6e" transform="translate(782.666016 0)"/>
     <use xlink:href="#DejaVuSansMono-73" transform="translate(842.871094 0)"/>
     <use xlink:href="#DejaVuSansMono-20" transform="translate(903.076172 0)"/>
     <use xlink:href="#DejaVuSansMono-6c" transform="translate(963.28125 0)"/>
     <use xlink:href="#DejaVuSansMono-61" transform="translate(1023.486328 0)"/>
     <use xlink:href="#DejaVuSansMono-74" transform="translate(1083.691406 0)"/>
     <use xlink:href="#DejaVuSansMono-65" transform="translate(1143.896484 0)"/>
     <use xlink:href="#DejaVuSansMono-20" transform="translate(1204.101562 0)"/>
     <use xlink:href="#DejaVuSansMono-61" transform="translate(1264.306641 0)"/>
     <use xlink:href="#DejaVuSansMono-6c" transform="translate(1324.511719 0)"/>
     <use xlink:href="#DejaVuSansMono-77" transform="translate(1384.716797 0)"/>
     <use xlink:href="#DejaVuSansMono-61" transform="translate(1444.921875 0)"/>
     <use xlink:href="#DejaVuSansMono-79" transform="translate(1505.126953 0)"/>
     <use xlink:href="#DejaVuSansMono-73" transform="translate(1565.332031 0)"/>
     <use xlink:href="#DejaVuSansMono-20" transform="translate(1625.537109 0)"/>
     <use xlink:href="#DejaVuSansMono-64" transform="translate(1685.742188 0)"/>
     <use xlink:href="#DejaVuSansMono-75" transform="translate(1745.947266 0)"/>
     <use xlink:href="#DejaVuSansMono-65" transform="translate(1806.152344 0)"/>
     <use xlink:href="#DejaVuSansMono-20" transform="translate(1866.357422 0)"/>
     <use xlink:href="#DejaVuSansMono-74" transform="translate(1926.5625 0)"/>
     <use xlink:href="#DejaVuSansMono-6f" transform="translate(1986.767578 0)"/>
     <use xlink:href="#DejaVuSansMono-20" transform="translate(2046.972656 0)"/>
     <use xlink:href="#DejaVuSansMono-77" transform="translate(2107.177734 0)"/>
     <use xlink:href="#DejaVuSansMono-68" transform="translate(2167.382812 0)"/>
     <use xlink:href="#DejaVuSansMono-69" transform="translate(2227.587891 0)"/>
     <use xlink:href="#DejaVuSansMono-63" transform="translate(2287.792969 0)"/>
     <use xlink:href="#DejaVuSansMono-68" transform="translate(2347.998047 0)"/>
     <use xlink:href="#DejaVuSansMono-20" transform="translate(2408.203125 0)"/>
     <use xlink:href="#DejaVuSansMono-65" transform="translate(2468.408203 0)"/>
     <use xlink:href="#DejaVuSansMono-76" transform="translate(2528.613281 0)"/>
     <use xlink:href="#DejaVuSansMono-65" transform="translate(2588.818359 0)"/>
     <use xlink:href="#DejaVuSansMono-72" transform="translate(2649.023438 0)"/>
     <use xlink:href="#DejaVuSansMono-79" transform="translate(2709.228516 0)"/>
     <use xlink:href="#DejaVuSansMono-6f" transform="translate(2769.433594 0)"/>
     <use xlink:href="#DejaVuSansMono-6e" transform="translate(2829.638672 0)"/>
     <use xlink:href="#DejaVuSansMono-65" transform="translate(2889.84375 0)"/>
     <use xlink:href="#DejaVuSansMono-20" transform="translate(2950.048828 0)"/>
     <use xlink:href="#DejaVuSansMono-69" transform="translate(3010.253906 0)"/>
     <use xlink:href="#DejaVuSansMono-73" transform="translate(3070.458984 0)"/>
     <use xlink:href="#DejaVuSansMono-20" transform="translate(3130.664062 0)"/>
     <use xlink:href="#DejaVuSansMono-74" transform="translate(3190.869141 0)"/>
     <use xlink:href="#DejaVuSansMono-72" transform="translate(3251.074219 0)"/>
     <use xlink:href="#DejaVuSansMono-79" transform="translate(3311.279297 0)"/>
     <use xlink:href="#DejaVuSansMono-69" transform="translate(3371.484375 0)"/>
     <use xlink:href="#DejaVuSansMono-6e" transform="translate(3431.689453 0)"/>
     <use xlink:href="#DejaVuSansMono-67" transform="translate(3491.894531 0)"/>
     <use xlink:href="#DejaVuSansMono-20" transform="translate(3552.099609 0)"/>
     <use xlink:href="#DejaVuSansMono-74" transform="translate(3612.304688 0)"/>
     <use xlink:href="#DejaVuSansMono-6f" transform="translate(3672.509766 0)"/>
     <use xlink:href="#DejaVuSansMono-20" transform="translate(3732.714844 0)"/>
     <use xlink:href="#DejaVuSansMono-67" transform="translate(3792.919922 0)"/>
     <use xlink:href="#DejaVuSansMono-65" transform="translate(3853.125 0)"/>
     <use xlink:href="#DejaVuSansMono-74" transform="translate(3913.330078 0)"/>
     <use xlink:href="#DejaVuSansMono-20" transform="translate(3973.535156 0)"/>
     <use xlink:href="#DejaVuSansMono-74" transform="translate(4033.740234 0)"/>
     <use xlink:href="#DejaVuSansMono-6f" transform="translate(4093.945312 0)"/>
    </g>
    <!-- the bus which makes it more crowded .Overall Rainy bus stops are a -->
    <g transform="translate(26.451 183.76353) scale(0.09 -0.09)">
     <defs>
      <path id="DejaVuSansMono-6b" d="M 738 4863 
L 1331 4863 
L 1331 2047 
L 2841 3500 
L 3541 3500 
L 2163 2181 
L 3756 0 
L 3053 0 
L 1759 1806 
L 1331 1403 
L 1331 0 
L 738 0 
L 738 4863 
z
" transform="scale(0.015625)"/>
      <path id="DejaVuSansMono-4f" d="M 2828 2328 
Q 2828 3356 2617 3797 
Q 2406 4238 1925 4238 
Q 1447 4238 1236 3797 
Q 1025 3356 1025 2328 
Q 1025 1303 1236 862 
Q 1447 422 1925 422 
Q 2406 422 2617 861 
Q 2828 1300 2828 2328 
z
M 3488 2328 
Q 3488 1109 3102 509 
Q 2716 -91 1925 -91 
Q 1134 -91 750 506 
Q 366 1103 366 2328 
Q 366 3550 752 4150 
Q 1138 4750 1925 4750 
Q 2716 4750 3102 4150 
Q 3488 3550 3488 2328 
z
" transform="scale(0.015625)"/>
     </defs>
     <use xlink:href="#DejaVuSansMono-74"/>
     <use xlink:href="#DejaVuSansMono-68" transform="translate(60.205078 0)"/>
     <use xlink:href="#DejaVuSansMono-65" transform="translate(120.410156 0)"/>
     <use xlink:href="#DejaVuSansMono-20" transform="translate(180.615234 0)"/>
     <use xlink:href="#DejaVuSansMono-62" transform="translate(240.820312 0)"/>
     <use xlink:href="#DejaVuSansMono-75" transform="translate(301.025391 0)"/>
     <use xlink:href="#DejaVuSansMono-73" transform="translate(361.230469 0)"/>
     <use xlink:href="#DejaVuSansMono-20" transform="translate(421.435547 0)"/>
     <use xlink:href="#DejaVuSansMono-77" transform="translate(481.640625 0)"/>
     <use xlink:href="#DejaVuSansMono-68" transform="translate(541.845703 0)"/>
     <use xlink:href="#DejaVuSansMono-69" transform="translate(602.050781 0)"/>
     <use xlink:href="#DejaVuSansMono-63" transform="translate(662.255859 0)"/>
     <use xlink:href="#DejaVuSansMono-68" transform="translate(722.460938 0)"/>
     <use xlink:href="#DejaVuSansMono-20" transform="translate(782.666016 0)"/>
     <use xlink:href="#DejaVuSansMono-6d" transform="translate(842.871094 0)"/>
     <use xlink:href="#DejaVuSansMono-61" transform="translate(903.076172 0)"/>
     <use xlink:href="#DejaVuSansMono-6b" transform="translate(963.28125 0)"/>
     <use xlink:href="#DejaVuSansMono-65" transform="translate(1023.486328 0)"/>
     <use xlink:href="#DejaVuSansMono-73" transform="translate(1083.691406 0)"/>
     <use xlink:href="#DejaVuSansMono-20" transform="translate(1143.896484 0)"/>
     <use xlink:href="#DejaVuSansMono-69" transform="translate(1204.101562 0)"/>
     <use xlink:href="#DejaVuSansMono-74" transform="translate(1264.306641 0)"/>
     <use xlink:href="#DejaVuSansMono-20" transform="translate(1324.511719 0)"/>
     <use xlink:href="#DejaVuSansMono-6d" transform="translate(1384.716797 0)"/>
     <use xlink:href="#DejaVuSansMono-6f" transform="translate(1444.921875 0)"/>
     <use xlink:href="#DejaVuSansMono-72" transform="translate(1505.126953 0)"/>
     <use xlink:href="#DejaVuSansMono-65" transform="translate(1565.332031 0)"/>
     <use xlink:href="#DejaVuSansMono-20" transform="translate(1625.537109 0)"/>
     <use xlink:href="#DejaVuSansMono-63" transform="translate(1685.742188 0)"/>
     <use xlink:href="#DejaVuSansMono-72" transform="translate(1745.947266 0)"/>
     <use xlink:href="#DejaVuSansMono-6f" transform="translate(1806.152344 0)"/>
     <use xlink:href="#DejaVuSansMono-77" transform="translate(1866.357422 0)"/>
     <use xlink:href="#DejaVuSansMono-64" transform="translate(1926.5625 0)"/>
     <use xlink:href="#DejaVuSansMono-65" transform="translate(1986.767578 0)"/>
     <use xlink:href="#DejaVuSansMono-64" transform="translate(2046.972656 0)"/>
     <use xlink:href="#DejaVuSansMono-20" transform="translate(2107.177734 0)"/>
     <use xlink:href="#DejaVuSansMono-2e" transform="translate(2167.382812 0)"/>
     <use xlink:href="#DejaVuSansMono-4f" transform="translate(2227.587891 0)"/>
     <use xlink:href="#DejaVuSansMono-76" transform="translate(2287.792969 0)"/>
     <use xlink:href="#DejaVuSansMono-65" transform="translate(2347.998047 0)"/>
     <use xlink:href="#DejaVuSansMono-72" transform="translate(2408.203125 0)"/>
     <use xlink:href="#DejaVuSansMono-61" transform="translate(2468.408203 0)"/>
     <use xlink:href="#DejaVuSansMono-6c" transform="translate(2528.613281 0)"/>
     <use xlink:href="#DejaVuSansMono-6c" transform="translate(2588.818359 0)"/>
     <use xlink:href="#DejaVuSansMono-20" transform="translate(2649.023438 0)"/>
     <use xlink:href="#DejaVuSansMono-52" transform="translate(2709.228516 0)"/>
     <use xlink:href="#DejaVuSansMono-61" transform="translate(2769.433594 0)"/>
     <use xlink:href="#DejaVuSansMono-69" transform="translate(2829.638672 0)"/>
     <use xlink:href="#DejaVuSansMono-6e" transform="translate(2889.84375 0)"/>
     <use xlink:href="#DejaVuSansMono-79" transform="translate(2950.048828 0)"/>
     <use xlink:href="#DejaVuSansMono-20" transform="translate(3010.253906 0)"/>
     <use xlink:href="#DejaVuSansMono-62" transform="translate(3070.458984 0)"/>
     <use xlink:href="#DejaVuSansMono-75" transform="translate(3130.664062 0)"/>
     <use xlink:href="#DejaVuSansMono-73" transform="translate(3190.869141 0)"/>
     <use xlink:href="#DejaVuSansMono-20" transform="translate(3251.074219 0)"/>
     <use xlink:href="#DejaVuSansMono-73" transform="translate(3311.279297 0)"/>
     <use xlink:href="#DejaVuSansMono-74" transform="translate(3371.484375 0)"/>
     <use xlink:href="#DejaVuSansMono-6f" transform="translate(3431.689453 0)"/>
     <use xlink:href="#DejaVuSansMono-70" transform="translate(3491.894531 0)"/>
     <use xlink:href="#DejaVuSansMono-73" transform="translate(3552.099609 0)"/>
     <use xlink:href="#DejaVuSansMono-20" transform="translate(3612.304688 0)"/>
     <use xlink:href="#DejaVuSansMono-61" transform="translate(3672.509766 0)"/>
     <use xlink:href="#DejaVuSansMono-72" transform="translate(3732.714844 0)"/>
     <use xlink:href="#DejaVuSansMono-65" transform="translate(3792.919922 0)"/>
     <use xlink:href="#DejaVuSansMono-20" transform="translate(3853.125 0)"/>
     <use xlink:href="#DejaVuSansMono-61" transform="translate(3913.330078 0)"/>
    </g>
    <!-- chaos for everyone. -->
    <g transform="translate(26.451 194.931897) scale(0.09 -0.09)">
     <use xlink:href="#DejaVuSansMono-63"/>
     <use xlink:href="#DejaVuSansMono-68" transform="translate(60.205078 0)"/>
     <use xlink:href="#DejaVuSansMono-61" transform="translate(120.410156 0)"/>
     <use xlink:href="#DejaVuSansMono-6f" transform="translate(180.615234 0)"/>
     <use xlink:href="#DejaVuSansMono-73" transform="translate(240.820312 0)"/>
     <use xlink:href="#DejaVuSansMono-20" transform="translate(301.025391 0)"/>
     <use xlink:href="#DejaVuSansMono-66" transform="translate(361.230469 0)"/>
     <use xlink:href="#DejaVuSansMono-6f" transform="translate(421.435547 0)"/>
     <use xlink:href="#DejaVuSansMono-72" transform="translate(481.640625 0)"/>
     <use xlink:href="#DejaVuSansMono-20" transform="translate(541.845703 0)"/>
     <use xlink:href="#DejaVuSansMono-65" transform="translate(602.050781 0)"/>
     <use xlink:href="#DejaVuSansMono-76" transform="translate(662.255859 0)"/>
     <use xlink:href="#DejaVuSansMono-65" transform="translate(722.460938 0)"/>
     <use xlink:href="#DejaVuSansMono-72" transform="translate(782.666016 0)"/>
     <use xlink:href="#DejaVuSansMono-79" transform="translate(842.871094 0)"/>
     <use xlink:href="#DejaVuSansMono-6f" transform="translate(903.076172 0)"/>
     <use xlink:href="#DejaVuSansMono-6e" transform="translate(963.28125 0)"/>
     <use xlink:href="#DejaVuSansMono-65" transform="translate(1023.486328 0)"/>
     <use xlink:href="#DejaVuSansMono-2e" transform="translate(1083.691406 0)"/>
    </g>
   </g>
   <g id="text_4">
    <!-- Worst Rated Poem(s) -->
    <g transform="translate(238.180078 18.597656) scale(0.15 -0.15)">
     <defs>
      <path id="DejaVuSans-Bold-57" d="M 191 4666 
L 1344 4666 
L 2150 1275 
L 2950 4666 
L 4109 4666 
L 4909 1275 
L 5716 4666 
L 6859 4666 
L 5759 0 
L 4372 0 
L 3525 3547 
L 2688 0 
L 1300 0 
L 191 4666 
z
" transform="scale(0.015625)"/>
      <path id="DejaVuSans-Bold-72" d="M 3138 2547 
Q 2991 2616 2845 2648 
Q 2700 2681 2553 2681 
Q 2122 2681 1889 2404 
Q 1656 2128 1656 1613 
L 1656 0 
L 538 0 
L 538 3500 
L 1656 3500 
L 1656 2925 
Q 1872 3269 2151 3426 
Q 2431 3584 2822 3584 
Q 2878 3584 2943 3579 
Q 3009 3575 3134 3559 
L 3138 2547 
z
" transform="scale(0.015625)"/>
      <path id="DejaVuSans-Bold-73" d="M 3272 3391 
L 3272 2541 
Q 2913 2691 2578 2766 
Q 2244 2841 1947 2841 
Q 1628 2841 1473 2761 
Q 1319 2681 1319 2516 
Q 1319 2381 1436 2309 
Q 1553 2238 1856 2203 
L 2053 2175 
Q 2913 2066 3209 1816 
Q 3506 1566 3506 1031 
Q 3506 472 3093 190 
Q 2681 -91 1863 -91 
Q 1516 -91 1145 -36 
Q 775 19 384 128 
L 384 978 
Q 719 816 1070 734 
Q 1422 653 1784 653 
Q 2113 653 2278 743 
Q 2444 834 2444 1013 
Q 2444 1163 2330 1236 
Q 2216 1309 1875 1350 
L 1678 1375 
Q 931 1469 631 1722 
Q 331 1975 331 2491 
Q 331 3047 712 3315 
Q 1094 3584 1881 3584 
Q 2191 3584 2531 3537 
Q 2872 3491 3272 3391 
z
" transform="scale(0.015625)"/>
      <path id="DejaVuSans-Bold-28" d="M 2413 -844 
L 1484 -844 
Q 1006 -72 778 623 
Q 550 1319 550 2003 
Q 550 2688 779 3389 
Q 1009 4091 1484 4856 
L 2413 4856 
Q 2013 4116 1813 3408 
Q 1613 2700 1613 2009 
Q 1613 1319 1811 609 
Q 2009 -100 2413 -844 
z
" transform="scale(0.015625)"/>
      <path id="DejaVuSans-Bold-29" d="M 513 -844 
Q 913 -100 1113 609 
Q 1313 1319 1313 2009 
Q 1313 2700 1113 3408 
Q 913 4116 513 4856 
L 1441 4856 
Q 1916 4091 2145 3389 
Q 2375 2688 2375 2003 
Q 2375 1319 2147 623 
Q 1919 -72 1441 -844 
L 513 -844 
z
" transform="scale(0.015625)"/>
     </defs>
     <use xlink:href="#DejaVuSans-Bold-57"/>
     <use xlink:href="#DejaVuSans-Bold-6f" transform="translate(106.677734 0)"/>
     <use xlink:href="#DejaVuSans-Bold-72" transform="translate(175.378906 0)"/>
     <use xlink:href="#DejaVuSans-Bold-73" transform="translate(224.695312 0)"/>
     <use xlink:href="#DejaVuSans-Bold-74" transform="translate(284.216797 0)"/>
     <use xlink:href="#DejaVuSans-Bold-20" transform="translate(332.019531 0)"/>
     <use xlink:href="#DejaVuSans-Bold-52" transform="translate(366.833984 0)"/>
     <use xlink:href="#DejaVuSans-Bold-61" transform="translate(443.835938 0)"/>
     <use xlink:href="#DejaVuSans-Bold-74" transform="translate(511.316406 0)"/>
     <use xlink:href="#DejaVuSans-Bold-65" transform="translate(559.119141 0)"/>
     <use xlink:href="#DejaVuSans-Bold-64" transform="translate(626.941406 0)"/>
     <use xlink:href="#DejaVuSans-Bold-20" transform="translate(698.523438 0)"/>
     <use xlink:href="#DejaVuSans-Bold-50" transform="translate(733.337891 0)"/>
     <use xlink:href="#DejaVuSans-Bold-6f" transform="translate(806.628906 0)"/>
     <use xlink:href="#DejaVuSans-Bold-65" transform="translate(875.330078 0)"/>
     <use xlink:href="#DejaVuSans-Bold-6d" transform="translate(943.152344 0)"/>
     <use xlink:href="#DejaVuSans-Bold-28" transform="translate(1047.351562 0)"/>
     <use xlink:href="#DejaVuSans-Bold-73" transform="translate(1093.054688 0)"/>
     <use xlink:href="#DejaVuSans-Bold-29" transform="translate(1152.576172 0)"/>
    </g>
   </g>
  </g>
 </g>
</svg>
