<?xml version="1.0" encoding="utf-8" standalone="no"?>
<!DOCTYPE svg PUBLIC "-//W3C//DTD SVG 1.1//EN"
  "http://www.w3.org/Graphics/SVG/1.1/DTD/svg11.dtd">
<svg xmlns:xlink="http://www.w3.org/1999/xlink" width="593.920862pt" height="387.346719pt" viewBox="0 0 593.920862 387.346719" xmlns="http://www.w3.org/2000/svg" version="1.1">
 <metadata>
  <rdf:RDF xmlns:dc="http://purl.org/dc/elements/1.1/" xmlns:cc="http://creativecommons.org/ns#" xmlns:rdf="http://www.w3.org/1999/02/22-rdf-syntax-ns#">
   <cc:Work>
    <dc:type rdf:resource="http://purl.org/dc/dcmitype/StillImage"/>
    <dc:date>2026-07-05T15:14:50.549255</dc:date>
    <dc:format>image/svg+xml</dc:format>
    <dc:creator>
     <cc:Agent>
      <dc:title>Matplotlib v3.10.9, https://matplotlib.org/</dc:title>
     </cc:Agent>
    </dc:creator>
   </cc:Work>
  </rdf:RDF>
 </metadata>
 <defs>
  <style type="text/css">*{stroke-linejoin: round; stroke-linecap: butt}</style>
 </defs>
 <g id="figure_1">
  <g id="patch_1">
   <path d="M 0 387.346719 
L 593.920862 387.346719 
L 593.920862 0 
L 0 0 
z
" style="fill: #ffffff"/>
  </g>
  <g id="axes_1">
   <g id="patch_2">
    <path d="M 33.604375 350.758281 
L 449.069375 350.758281 
L 449.069375 21.558281 
L 33.604375 21.558281 
z
" style="fill: #ffffff"/>
   </g>
   <g id="patch_3">
    <path d="M 255.863623 350.758281 
L 430.184602 350.758281 
L 430.184602 21.558281 
L 255.863623 21.558281 
z
" clip-path="url(#pa3be4dea6b)" style="fill: #f2f2f2; opacity: 0.8; stroke: #f2f2f2; stroke-linejoin: miter"/>
   </g>
   <g id="matplotlib.axis_1">
    <g id="xtick_1">
     <g id="line2d_1">
      <path d="M 52.489148 350.758281 
L 52.489148 21.558281 
" clip-path="url(#pa3be4dea6b)" style="fill: none; stroke: #b0b0b0; stroke-opacity: 0.3; stroke-width: 0.8; stroke-linecap: square"/>
     </g>
     <g id="line2d_2">
      <defs>
       <path id="m2a4a8144ab" d="M 0 0 
L 0 3.5 
" style="stroke: #000000; stroke-width: 0.8"/>
      </defs>
      <g>
       <use xlink:href="#m2a4a8144ab" x="52.489148" y="350.758281" style="stroke: #000000; stroke-width: 0.8"/>
      </g>
     </g>
     <g id="text_1">
      <!-- 1 -->
      <g transform="translate(49.626023 364.596875) scale(0.09 -0.09)">
       <defs>
        <path id="DejaVuSans-31" d="M 794 531 
L 1825 531 
L 1825 4091 
L 703 3866 
L 703 4441 
L 1819 4666 
L 2450 4666 
L 2450 531 
L 3481 531 
L 3481 0 
L 794 0 
L 794 531 
z
" transform="scale(0.015625)"/>
       </defs>
       <use xlink:href="#DejaVuSans-31"/>
      </g>
     </g>
    </g>
    <g id="xtick_2">
     <g id="line2d_3">
      <path d="M 110.596141 350.758281 
L 110.596141 21.558281 
" clip-path="url(#pa3be4dea6b)" style="fill: none; stroke: #b0b0b0; stroke-opacity: 0.3; stroke-width: 0.8; stroke-linecap: square"/>
     </g>
     <g id="line2d_4">
      <g>
       <use xlink:href="#m2a4a8144ab" x="110.596141" y="350.758281" style="stroke: #000000; stroke-width: 0.8"/>
      </g>
     </g>
     <g id="text_2">
      <!-- 2 -->
      <g transform="translate(107.733016 364.596875) scale(0.09 -0.09)">
       <defs>
        <path id="DejaVuSans-32" d="M 1228 531 
L 3431 531 
L 3431 0 
L 469 0 
L 469 531 
Q 828 903 1448 1529 
Q 2069 2156 2228 2338 
Q 2531 2678 2651 2914 
Q 2772 3150 2772 3378 
Q 2772 3750 2511 3984 
Q 2250 4219 1831 4219 
Q 1534 4219 1204 4116 
Q 875 4013 500 3803 
L 500 4441 
Q 881 4594 1212 4672 
Q 1544 4750 1819 4750 
Q 2544 4750 2975 4387 
Q 3406 4025 3406 3419 
Q 3406 3131 3298 2873 
Q 3191 2616 2906 2266 
Q 2828 2175 2409 1742 
Q 1991 1309 1228 531 
z
" transform="scale(0.015625)"/>
       </defs>
       <use xlink:href="#DejaVuSans-32"/>
      </g>
     </g>
    </g>
    <g id="xtick_3">
     <g id="line2d_5">
      <path d="M 168.703134 350.758281 
L 168.703134 21.558281 
" clip-path="url(#pa3be4dea6b)" style="fill: none; stroke: #b0b0b0; stroke-opacity: 0.3; stroke-width: 0.8; stroke-linecap: square"/>
     </g>
     <g id="line2d_6">
      <g>
       <use xlink:href="#m2a4a8144ab" x="168.703134" y="350.758281" style="stroke: #000000; stroke-width: 0.8"/>
      </g>
     </g>
     <g id="text_3">
      <!-- 3 -->
      <g transform="translate(165.840009 364.596875) scale(0.09 -0.09)">
       <defs>
        <path id="DejaVuSans-33" d="M 2597 2516 
Q 3050 2419 3304 2112 
Q 3559 1806 3559 1356 
Q 3559 666 3084 287 
Q 2609 -91 1734 -91 
Q 1441 -91 1130 -33 
Q 819 25 488 141 
L 488 750 
Q 750 597 1062 519 
Q 1375 441 1716 441 
Q 2309 441 2620 675 
Q 2931 909 2931 1356 
Q 2931 1769 2642 2001 
Q 2353 2234 1838 2234 
L 1294 2234 
L 1294 2753 
L 1863 2753 
Q 2328 2753 2575 2939 
Q 2822 3125 2822 3475 
Q 2822 3834 2567 4026 
Q 2313 4219 1838 4219 
Q 1578 4219 1281 4162 
Q 984 4106 628 3988 
L 628 4550 
Q 988 4650 1302 4700 
Q 1616 4750 1894 4750 
Q 2613 4750 3031 4423 
Q 3450 4097 3450 3541 
Q 3450 3153 3228 2886 
Q 3006 2619 2597 2516 
z
" transform="scale(0.015625)"/>
       </defs>
       <use xlink:href="#DejaVuSans-33"/>
      </g>
     </g>
    </g>
    <g id="xtick_4">
     <g id="line2d_7">
      <path d="M 226.810127 350.758281 
L 226.810127 21.558281 
" clip-path="url(#pa3be4dea6b)" style="fill: none; stroke: #b0b0b0; stroke-opacity: 0.3; stroke-width: 0.8; stroke-linecap: square"/>
     </g>
     <g id="line2d_8">
      <g>
       <use xlink:href="#m2a4a8144ab" x="226.810127" y="350.758281" style="stroke: #000000; stroke-width: 0.8"/>
      </g>
     </g>
     <g id="text_4">
      <!-- 4 -->
      <g transform="translate(223.947002 364.596875) scale(0.09 -0.09)">
       <defs>
        <path id="DejaVuSans-34" d="M 2419 4116 
L 825 1625 
L 2419 1625 
L 2419 4116 
z
M 2253 4666 
L 3047 4666 
L 3047 1625 
L 3713 1625 
L 3713 1100 
L 3047 1100 
L 3047 0 
L 2419 0 
L 2419 1100 
L 313 1100 
L 313 1709 
L 2253 4666 
z
" transform="scale(0.015625)"/>
       </defs>
       <use xlink:href="#DejaVuSans-34"/>
      </g>
     </g>
    </g>
    <g id="xtick_5">
     <g id="line2d_9">
      <path d="M 284.91712 350.758281 
L 284.91712 21.558281 
" clip-path="url(#pa3be4dea6b)" style="fill: none; stroke: #b0b0b0; stroke-opacity: 0.3; stroke-width: 0.8; stroke-linecap: square"/>
     </g>
     <g id="line2d_10">
      <g>
       <use xlink:href="#m2a4a8144ab" x="284.91712" y="350.758281" style="stroke: #000000; stroke-width: 0.8"/>
      </g>
     </g>
     <g id="text_5">
      <!-- 5 -->
      <g transform="translate(282.053995 364.596875) scale(0.09 -0.09)">
       <defs>
        <path id="DejaVuSans-35" d="M 691 4666 
L 3169 4666 
L 3169 4134 
L 1269 4134 
L 1269 2991 
Q 1406 3038 1543 3061 
Q 1681 3084 1819 3084 
Q 2600 3084 3056 2656 
Q 3513 2228 3513 1497 
Q 3513 744 3044 326 
Q 2575 -91 1722 -91 
Q 1428 -91 1123 -41 
Q 819 9 494 109 
L 494 744 
Q 775 591 1075 516 
Q 1375 441 1709 441 
Q 2250 441 2565 725 
Q 2881 1009 2881 1497 
Q 2881 1984 2565 2268 
Q 2250 2553 1709 2553 
Q 1456 2553 1204 2497 
Q 953 2441 691 2322 
L 691 4666 
z
" transform="scale(0.015625)"/>
       </defs>
       <use xlink:href="#DejaVuSans-35"/>
      </g>
     </g>
    </g>
    <g id="xtick_6">
     <g id="line2d_11">
      <path d="M 343.024113 350.758281 
L 343.024113 21.558281 
" clip-path="url(#pa3be4dea6b)" style="fill: none; stroke: #b0b0b0; stroke-opacity: 0.3; stroke-width: 0.8; stroke-linecap: square"/>
     </g>
     <g id="line2d_12">
      <g>
       <use xlink:href="#m2a4a8144ab" x="343.024113" y="350.758281" style="stroke: #000000; stroke-width: 0.8"/>
      </g>
     </g>
     <g id="text_6">
      <!-- 6 -->
      <g transform="translate(340.160988 364.596875) scale(0.09 -0.09)">
       <defs>
        <path id="DejaVuSans-36" d="M 2113 2584 
Q 1688 2584 1439 2293 
Q 1191 2003 1191 1497 
Q 1191 994 1439 701 
Q 1688 409 2113 409 
Q 2538 409 2786 701 
Q 3034 994 3034 1497 
Q 3034 2003 2786 2293 
Q 2538 2584 2113 2584 
z
M 3366 4563 
L 3366 3988 
Q 3128 4100 2886 4159 
Q 2644 4219 2406 4219 
Q 1781 4219 1451 3797 
Q 1122 3375 1075 2522 
Q 1259 2794 1537 2939 
Q 1816 3084 2150 3084 
Q 2853 3084 3261 2657 
Q 3669 2231 3669 1497 
Q 3669 778 3244 343 
Q 2819 -91 2113 -91 
Q 1303 -91 875 529 
Q 447 1150 447 2328 
Q 447 3434 972 4092 
Q 1497 4750 2381 4750 
Q 2619 4750 2861 4703 
Q 3103 4656 3366 4563 
z
" transform="scale(0.015625)"/>
       </defs>
       <use xlink:href="#DejaVuSans-36"/>
      </g>
     </g>
    </g>
    <g id="xtick_7">
     <g id="line2d_13">
      <path d="M 401.131106 350.758281 
L 401.131106 21.558281 
" clip-path="url(#pa3be4dea6b)" style="fill: none; stroke: #b0b0b0; stroke-opacity: 0.3; stroke-width: 0.8; stroke-linecap: square"/>
     </g>
     <g id="line2d_14">
      <g>
       <use xlink:href="#m2a4a8144ab" x="401.131106" y="350.758281" style="stroke: #000000; stroke-width: 0.8"/>
      </g>
     </g>
     <g id="text_7">
      <!-- 7 -->
      <g transform="translate(398.267981 364.596875) scale(0.09 -0.09)">
       <defs>
        <path id="DejaVuSans-37" d="M 525 4666 
L 3525 4666 
L 3525 4397 
L 1831 0 
L 1172 0 
L 2766 4134 
L 525 4134 
L 525 4666 
z
" transform="scale(0.015625)"/>
       </defs>
       <use xlink:href="#DejaVuSans-37"/>
      </g>
     </g>
    </g>
    <g id="text_8">
     <!-- Round -->
     <g transform="translate(225.516562 378.067031) scale(0.1 -0.1)">
      <defs>
       <path id="DejaVuSans-52" d="M 2841 2188 
Q 3044 2119 3236 1894 
Q 3428 1669 3622 1275 
L 4263 0 
L 3584 0 
L 2988 1197 
Q 2756 1666 2539 1819 
Q 2322 1972 1947 1972 
L 1259 1972 
L 1259 0 
L 628 0 
L 628 4666 
L 2053 4666 
Q 2853 4666 3247 4331 
Q 3641 3997 3641 3322 
Q 3641 2881 3436 2590 
Q 3231 2300 2841 2188 
z
M 1259 4147 
L 1259 2491 
L 2053 2491 
Q 2509 2491 2742 2702 
Q 2975 2913 2975 3322 
Q 2975 3731 2742 3939 
Q 2509 4147 2053 4147 
L 1259 4147 
z
" transform="scale(0.015625)"/>
       <path id="DejaVuSans-6f" d="M 1959 3097 
Q 1497 3097 1228 2736 
Q 959 2375 959 1747 
Q 959 1119 1226 758 
Q 1494 397 1959 397 
Q 2419 397 2687 759 
Q 2956 1122 2956 1747 
Q 2956 2369 2687 2733 
Q 2419 3097 1959 3097 
z
M 1959 3584 
Q 2709 3584 3137 3096 
Q 3566 2609 3566 1747 
Q 3566 888 3137 398 
Q 2709 -91 1959 -91 
Q 1206 -91 779 398 
Q 353 888 353 1747 
Q 353 2609 779 3096 
Q 1206 3584 1959 3584 
z
" transform="scale(0.015625)"/>
       <path id="DejaVuSans-75" d="M 544 1381 
L 544 3500 
L 1119 3500 
L 1119 1403 
Q 1119 906 1312 657 
Q 1506 409 1894 409 
Q 2359 409 2629 706 
Q 2900 1003 2900 1516 
L 2900 3500 
L 3475 3500 
L 3475 0 
L 2900 0 
L 2900 538 
Q 2691 219 2414 64 
Q 2138 -91 1772 -91 
Q 1169 -91 856 284 
Q 544 659 544 1381 
z
M 1991 3584 
L 1991 3584 
z
" transform="scale(0.015625)"/>
       <path id="DejaVuSans-6e" d="M 3513 2113 
L 3513 0 
L 2938 0 
L 2938 2094 
Q 2938 2591 2744 2837 
Q 2550 3084 2163 3084 
Q 1697 3084 1428 2787 
Q 1159 2491 1159 1978 
L 1159 0 
L 581 0 
L 581 3500 
L 1159 3500 
L 1159 2956 
Q 1366 3272 1645 3428 
Q 1925 3584 2291 3584 
Q 2894 3584 3203 3211 
Q 3513 2838 3513 2113 
z
" transform="scale(0.015625)"/>
       <path id="DejaVuSans-64" d="M 2906 2969 
L 2906 4863 
L 3481 4863 
L 3481 0 
L 2906 0 
L 2906 525 
Q 2725 213 2448 61 
Q 2172 -91 1784 -91 
Q 1150 -91 751 415 
Q 353 922 353 1747 
Q 353 2572 751 3078 
Q 1150 3584 1784 3584 
Q 2172 3584 2448 3432 
Q 2725 3281 2906 2969 
z
M 947 1747 
Q 947 1113 1208 752 
Q 1469 391 1925 391 
Q 2381 391 2643 752 
Q 2906 1113 2906 1747 
Q 2906 2381 2643 2742 
Q 2381 3103 1925 3103 
Q 1469 3103 1208 2742 
Q 947 2381 947 1747 
z
" transform="scale(0.015625)"/>
      </defs>
      <use xlink:href="#DejaVuSans-52"/>
      <use xlink:href="#DejaVuSans-6f" transform="translate(64.982422 0)"/>
      <use xlink:href="#DejaVuSans-75" transform="translate(126.164062 0)"/>
      <use xlink:href="#DejaVuSans-6e" transform="translate(189.542969 0)"/>
      <use xlink:href="#DejaVuSans-64" transform="translate(252.921875 0)"/>
     </g>
    </g>
   </g>
   <g id="matplotlib.axis_2">
    <g id="ytick_1">
     <g id="line2d_15">
      <path d="M 33.604375 329.834552 
L 449.069375 329.834552 
" clip-path="url(#pa3be4dea6b)" style="fill: none; stroke: #b0b0b0; stroke-opacity: 0.3; stroke-width: 0.8; stroke-linecap: square"/>
     </g>
     <g id="line2d_16">
      <defs>
       <path id="mc01ee08adb" d="M 0 0 
L -3.5 0 
" style="stroke: #000000; stroke-width: 0.8"/>
      </defs>
      <g>
       <use xlink:href="#mc01ee08adb" x="33.604375" y="329.834552" style="stroke: #000000; stroke-width: 0.8"/>
      </g>
     </g>
     <g id="text_9">
      <!-- 1 -->
      <g transform="translate(20.878125 333.253849) scale(0.09 -0.09)">
       <use xlink:href="#DejaVuSans-31"/>
      </g>
     </g>
    </g>
    <g id="ytick_2">
     <g id="line2d_17">
      <path d="M 33.604375 260.08879 
L 449.069375 260.08879 
" clip-path="url(#pa3be4dea6b)" style="fill: none; stroke: #b0b0b0; stroke-opacity: 0.3; stroke-width: 0.8; stroke-linecap: square"/>
     </g>
     <g id="line2d_18">
      <g>
       <use xlink:href="#mc01ee08adb" x="33.604375" y="260.08879" style="stroke: #000000; stroke-width: 0.8"/>
      </g>
     </g>
     <g id="text_10">
      <!-- 2 -->
      <g transform="translate(20.878125 263.508087) scale(0.09 -0.09)">
       <use xlink:href="#DejaVuSans-32"/>
      </g>
     </g>
    </g>
    <g id="ytick_3">
     <g id="line2d_19">
      <path d="M 33.604375 190.343027 
L 449.069375 190.343027 
" clip-path="url(#pa3be4dea6b)" style="fill: none; stroke: #b0b0b0; stroke-opacity: 0.3; stroke-width: 0.8; stroke-linecap: square"/>
     </g>
     <g id="line2d_20">
      <g>
       <use xlink:href="#mc01ee08adb" x="33.604375" y="190.343027" style="stroke: #000000; stroke-width: 0.8"/>
      </g>
     </g>
     <g id="text_11">
      <!-- 3 -->
      <g transform="translate(20.878125 193.762324) scale(0.09 -0.09)">
       <use xlink:href="#DejaVuSans-33"/>
      </g>
     </g>
    </g>
    <g id="ytick_4">
     <g id="line2d_21">
      <path d="M 33.604375 120.597264 
L 449.069375 120.597264 
" clip-path="url(#pa3be4dea6b)" style="fill: none; stroke: #b0b0b0; stroke-opacity: 0.3; stroke-width: 0.8; stroke-linecap: square"/>
     </g>
     <g id="line2d_22">
      <g>
       <use xlink:href="#mc01ee08adb" x="33.604375" y="120.597264" style="stroke: #000000; stroke-width: 0.8"/>
      </g>
     </g>
     <g id="text_12">
      <!-- 4 -->
      <g transform="translate(20.878125 124.016561) scale(0.09 -0.09)">
       <use xlink:href="#DejaVuSans-34"/>
      </g>
     </g>
    </g>
    <g id="ytick_5">
     <g id="line2d_23">
      <path d="M 33.604375 50.851502 
L 449.069375 50.851502 
" clip-path="url(#pa3be4dea6b)" style="fill: none; stroke: #b0b0b0; stroke-opacity: 0.3; stroke-width: 0.8; stroke-linecap: square"/>
     </g>
     <g id="line2d_24">
      <g>
       <use xlink:href="#mc01ee08adb" x="33.604375" y="50.851502" style="stroke: #000000; stroke-width: 0.8"/>
      </g>
     </g>
     <g id="text_13">
      <!-- 5 -->
      <g transform="translate(20.878125 54.270798) scale(0.09 -0.09)">
       <use xlink:href="#DejaVuSans-35"/>
      </g>
     </g>
    </g>
    <g id="text_14">
     <!-- Satisfaction rating (1-5) -->
     <g transform="translate(14.798438 245.559062) rotate(-90) scale(0.1 -0.1)">
      <defs>
       <path id="DejaVuSans-53" d="M 3425 4513 
L 3425 3897 
Q 3066 4069 2747 4153 
Q 2428 4238 2131 4238 
Q 1616 4238 1336 4038 
Q 1056 3838 1056 3469 
Q 1056 3159 1242 3001 
Q 1428 2844 1947 2747 
L 2328 2669 
Q 3034 2534 3370 2195 
Q 3706 1856 3706 1288 
Q 3706 609 3251 259 
Q 2797 -91 1919 -91 
Q 1588 -91 1214 -16 
Q 841 59 441 206 
L 441 856 
Q 825 641 1194 531 
Q 1563 422 1919 422 
Q 2459 422 2753 634 
Q 3047 847 3047 1241 
Q 3047 1584 2836 1778 
Q 2625 1972 2144 2069 
L 1759 2144 
Q 1053 2284 737 2584 
Q 422 2884 422 3419 
Q 422 4038 858 4394 
Q 1294 4750 2059 4750 
Q 2388 4750 2728 4690 
Q 3069 4631 3425 4513 
z
" transform="scale(0.015625)"/>
       <path id="DejaVuSans-61" d="M 2194 1759 
Q 1497 1759 1228 1600 
Q 959 1441 959 1056 
Q 959 750 1161 570 
Q 1363 391 1709 391 
Q 2188 391 2477 730 
Q 2766 1069 2766 1631 
L 2766 1759 
L 2194 1759 
z
M 3341 1997 
L 3341 0 
L 2766 0 
L 2766 531 
Q 2569 213 2275 61 
Q 1981 -91 1556 -91 
Q 1019 -91 701 211 
Q 384 513 384 1019 
Q 384 1609 779 1909 
Q 1175 2209 1959 2209 
L 2766 2209 
L 2766 2266 
Q 2766 2663 2505 2880 
Q 2244 3097 1772 3097 
Q 1472 3097 1187 3025 
Q 903 2953 641 2809 
L 641 3341 
Q 956 3463 1253 3523 
Q 1550 3584 1831 3584 
Q 2591 3584 2966 3190 
Q 3341 2797 3341 1997 
z
" transform="scale(0.015625)"/>
       <path id="DejaVuSans-74" d="M 1172 4494 
L 1172 3500 
L 2356 3500 
L 2356 3053 
L 1172 3053 
L 1172 1153 
Q 1172 725 1289 603 
Q 1406 481 1766 481 
L 2356 481 
L 2356 0 
L 1766 0 
Q 1100 0 847 248 
Q 594 497 594 1153 
L 594 3053 
L 172 3053 
L 172 3500 
L 594 3500 
L 594 4494 
L 1172 4494 
z
" transform="scale(0.015625)"/>
       <path id="DejaVuSans-69" d="M 603 3500 
L 1178 3500 
L 1178 0 
L 603 0 
L 603 3500 
z
M 603 4863 
L 1178 4863 
L 1178 4134 
L 603 4134 
L 603 4863 
z
" transform="scale(0.015625)"/>
       <path id="DejaVuSans-73" d="M 2834 3397 
L 2834 2853 
Q 2591 2978 2328 3040 
Q 2066 3103 1784 3103 
Q 1356 3103 1142 2972 
Q 928 2841 928 2578 
Q 928 2378 1081 2264 
Q 1234 2150 1697 2047 
L 1894 2003 
Q 2506 1872 2764 1633 
Q 3022 1394 3022 966 
Q 3022 478 2636 193 
Q 2250 -91 1575 -91 
Q 1294 -91 989 -36 
Q 684 19 347 128 
L 347 722 
Q 666 556 975 473 
Q 1284 391 1588 391 
Q 1994 391 2212 530 
Q 2431 669 2431 922 
Q 2431 1156 2273 1281 
Q 2116 1406 1581 1522 
L 1381 1569 
Q 847 1681 609 1914 
Q 372 2147 372 2553 
Q 372 3047 722 3315 
Q 1072 3584 1716 3584 
Q 2034 3584 2315 3537 
Q 2597 3491 2834 3397 
z
" transform="scale(0.015625)"/>
       <path id="DejaVuSans-66" d="M 2375 4863 
L 2375 4384 
L 1825 4384 
Q 1516 4384 1395 4259 
Q 1275 4134 1275 3809 
L 1275 3500 
L 2222 3500 
L 2222 3053 
L 1275 3053 
L 1275 0 
L 697 0 
L 697 3053 
L 147 3053 
L 147 3500 
L 697 3500 
L 697 3744 
Q 697 4328 969 4595 
Q 1241 4863 1831 4863 
L 2375 4863 
z
" transform="scale(0.015625)"/>
       <path id="DejaVuSans-63" d="M 3122 3366 
L 3122 2828 
Q 2878 2963 2633 3030 
Q 2388 3097 2138 3097 
Q 1578 3097 1268 2742 
Q 959 2388 959 1747 
Q 959 1106 1268 751 
Q 1578 397 2138 397 
Q 2388 397 2633 464 
Q 2878 531 3122 666 
L 3122 134 
Q 2881 22 2623 -34 
Q 2366 -91 2075 -91 
Q 1284 -91 818 406 
Q 353 903 353 1747 
Q 353 2603 823 3093 
Q 1294 3584 2113 3584 
Q 2378 3584 2631 3529 
Q 2884 3475 3122 3366 
z
" transform="scale(0.015625)"/>
       <path id="DejaVuSans-20" transform="scale(0.015625)"/>
       <path id="DejaVuSans-72" d="M 2631 2963 
Q 2534 3019 2420 3045 
Q 2306 3072 2169 3072 
Q 1681 3072 1420 2755 
Q 1159 2438 1159 1844 
L 1159 0 
L 581 0 
L 581 3500 
L 1159 3500 
L 1159 2956 
Q 1341 3275 1631 3429 
Q 1922 3584 2338 3584 
Q 2397 3584 2469 3576 
Q 2541 3569 2628 3553 
L 2631 2963 
z
" transform="scale(0.015625)"/>
       <path id="DejaVuSans-67" d="M 2906 1791 
Q 2906 2416 2648 2759 
Q 2391 3103 1925 3103 
Q 1463 3103 1205 2759 
Q 947 2416 947 1791 
Q 947 1169 1205 825 
Q 1463 481 1925 481 
Q 2391 481 2648 825 
Q 2906 1169 2906 1791 
z
M 3481 434 
Q 3481 -459 3084 -895 
Q 2688 -1331 1869 -1331 
Q 1566 -1331 1297 -1286 
Q 1028 -1241 775 -1147 
L 775 -588 
Q 1028 -725 1275 -790 
Q 1522 -856 1778 -856 
Q 2344 -856 2625 -561 
Q 2906 -266 2906 331 
L 2906 616 
Q 2728 306 2450 153 
Q 2172 0 1784 0 
Q 1141 0 747 490 
Q 353 981 353 1791 
Q 353 2603 747 3093 
Q 1141 3584 1784 3584 
Q 2172 3584 2450 3431 
Q 2728 3278 2906 2969 
L 2906 3500 
L 3481 3500 
L 3481 434 
z
" transform="scale(0.015625)"/>
       <path id="DejaVuSans-28" d="M 1984 4856 
Q 1566 4138 1362 3434 
Q 1159 2731 1159 2009 
Q 1159 1288 1364 580 
Q 1569 -128 1984 -844 
L 1484 -844 
Q 1016 -109 783 600 
Q 550 1309 550 2009 
Q 550 2706 781 3412 
Q 1013 4119 1484 4856 
L 1984 4856 
z
" transform="scale(0.015625)"/>
       <path id="DejaVuSans-2d" d="M 313 2009 
L 1997 2009 
L 1997 1497 
L 313 1497 
L 313 2009 
z
" transform="scale(0.015625)"/>
       <path id="DejaVuSans-29" d="M 513 4856 
L 1013 4856 
Q 1481 4119 1714 3412 
Q 1947 2706 1947 2009 
Q 1947 1309 1714 600 
Q 1481 -109 1013 -844 
L 513 -844 
Q 928 -128 1133 580 
Q 1338 1288 1338 2009 
Q 1338 2731 1133 3434 
Q 928 4138 513 4856 
z
" transform="scale(0.015625)"/>
      </defs>
      <use xlink:href="#DejaVuSans-53"/>
      <use xlink:href="#DejaVuSans-61" transform="translate(63.476562 0)"/>
      <use xlink:href="#DejaVuSans-74" transform="translate(124.755859 0)"/>
      <use xlink:href="#DejaVuSans-69" transform="translate(163.964844 0)"/>
      <use xlink:href="#DejaVuSans-73" transform="translate(191.748047 0)"/>
      <use xlink:href="#DejaVuSans-66" transform="translate(243.847656 0)"/>
      <use xlink:href="#DejaVuSans-61" transform="translate(279.052734 0)"/>
      <use xlink:href="#DejaVuSans-63" transform="translate(340.332031 0)"/>
      <use xlink:href="#DejaVuSans-74" transform="translate(395.3125 0)"/>
      <use xlink:href="#DejaVuSans-69" transform="translate(434.521484 0)"/>
      <use xlink:href="#DejaVuSans-6f" transform="translate(462.304688 0)"/>
      <use xlink:href="#DejaVuSans-6e" transform="translate(523.486328 0)"/>
      <use xlink:href="#DejaVuSans-20" transform="translate(586.865234 0)"/>
      <use xlink:href="#DejaVuSans-72" transform="translate(618.652344 0)"/>
      <use xlink:href="#DejaVuSans-61" transform="translate(659.765625 0)"/>
      <use xlink:href="#DejaVuSans-74" transform="translate(721.044922 0)"/>
      <use xlink:href="#DejaVuSans-69" transform="translate(760.253906 0)"/>
      <use xlink:href="#DejaVuSans-6e" transform="translate(788.037109 0)"/>
      <use xlink:href="#DejaVuSans-67" transform="translate(851.416016 0)"/>
      <use xlink:href="#DejaVuSans-20" transform="translate(914.892578 0)"/>
      <use xlink:href="#DejaVuSans-28" transform="translate(946.679688 0)"/>
      <use xlink:href="#DejaVuSans-31" transform="translate(985.693359 0)"/>
      <use xlink:href="#DejaVuSans-2d" transform="translate(1049.316406 0)"/>
      <use xlink:href="#DejaVuSans-35" transform="translate(1085.400391 0)"/>
      <use xlink:href="#DejaVuSans-29" transform="translate(1149.023438 0)"/>
     </g>
    </g>
   </g>
   <g id="LineCollection_1">
    <path d="M 52.489148 284.114816 
L 52.489148 119.819826 
" clip-path="url(#pa3be4dea6b)" style="fill: none; stroke: #4c78a8; stroke-opacity: 0.9"/>
    <path d="M 110.596141 172.6651 
L 110.596141 115.026604 
" clip-path="url(#pa3be4dea6b)" style="fill: none; stroke: #4c78a8; stroke-opacity: 0.9"/>
    <path d="M 168.703134 269.267787 
L 168.703134 111.418267 
" clip-path="url(#pa3be4dea6b)" style="fill: none; stroke: #4c78a8; stroke-opacity: 0.9"/>
    <path d="M 226.810127 126.167924 
L 226.810127 68.529429 
" clip-path="url(#pa3be4dea6b)" style="fill: none; stroke: #4c78a8; stroke-opacity: 0.9"/>
    <path d="M 284.91712 157.797202 
L 284.91712 55.499021 
" clip-path="url(#pa3be4dea6b)" style="fill: none; stroke: #4c78a8; stroke-opacity: 0.9"/>
    <path d="M 343.024113 246.794582 
L 343.024113 153.818833 
" clip-path="url(#pa3be4dea6b)" style="fill: none; stroke: #4c78a8; stroke-opacity: 0.9"/>
    <path d="M 401.131106 224.039969 
L 401.131106 52.027441 
" clip-path="url(#pa3be4dea6b)" style="fill: none; stroke: #4c78a8; stroke-opacity: 0.9"/>
   </g>
   <g id="line2d_25">
    <defs>
     <path id="mf5afeb686c" d="M 3 0 
L -3 -0 
" style="stroke: #4c78a8; stroke-opacity: 0.9"/>
    </defs>
    <g clip-path="url(#pa3be4dea6b)">
     <use xlink:href="#mf5afeb686c" x="52.489148" y="284.114816" style="fill: #1f77b4; fill-opacity: 0.9; stroke: #4c78a8; stroke-opacity: 0.9"/>
     <use xlink:href="#mf5afeb686c" x="110.596141" y="172.6651" style="fill: #1f77b4; fill-opacity: 0.9; stroke: #4c78a8; stroke-opacity: 0.9"/>
     <use xlink:href="#mf5afeb686c" x="168.703134" y="269.267787" style="fill: #1f77b4; fill-opacity: 0.9; stroke: #4c78a8; stroke-opacity: 0.9"/>
     <use xlink:href="#mf5afeb686c" x="226.810127" y="126.167924" style="fill: #1f77b4; fill-opacity: 0.9; stroke: #4c78a8; stroke-opacity: 0.9"/>
     <use xlink:href="#mf5afeb686c" x="284.91712" y="157.797202" style="fill: #1f77b4; fill-opacity: 0.9; stroke: #4c78a8; stroke-opacity: 0.9"/>
     <use xlink:href="#mf5afeb686c" x="343.024113" y="246.794582" style="fill: #1f77b4; fill-opacity: 0.9; stroke: #4c78a8; stroke-opacity: 0.9"/>
     <use xlink:href="#mf5afeb686c" x="401.131106" y="224.039969" style="fill: #1f77b4; fill-opacity: 0.9; stroke: #4c78a8; stroke-opacity: 0.9"/>
    </g>
   </g>
   <g id="line2d_26">
    <g clip-path="url(#pa3be4dea6b)">
     <use xlink:href="#mf5afeb686c" x="52.489148" y="119.819826" style="fill: #1f77b4; fill-opacity: 0.9; stroke: #4c78a8; stroke-opacity: 0.9"/>
     <use xlink:href="#mf5afeb686c" x="110.596141" y="115.026604" style="fill: #1f77b4; fill-opacity: 0.9; stroke: #4c78a8; stroke-opacity: 0.9"/>
     <use xlink:href="#mf5afeb686c" x="168.703134" y="111.418267" style="fill: #1f77b4; fill-opacity: 0.9; stroke: #4c78a8; stroke-opacity: 0.9"/>
     <use xlink:href="#mf5afeb686c" x="226.810127" y="68.529429" style="fill: #1f77b4; fill-opacity: 0.9; stroke: #4c78a8; stroke-opacity: 0.9"/>
     <use xlink:href="#mf5afeb686c" x="284.91712" y="55.499021" style="fill: #1f77b4; fill-opacity: 0.9; stroke: #4c78a8; stroke-opacity: 0.9"/>
     <use xlink:href="#mf5afeb686c" x="343.024113" y="153.818833" style="fill: #1f77b4; fill-opacity: 0.9; stroke: #4c78a8; stroke-opacity: 0.9"/>
     <use xlink:href="#mf5afeb686c" x="401.131106" y="52.027441" style="fill: #1f77b4; fill-opacity: 0.9; stroke: #4c78a8; stroke-opacity: 0.9"/>
    </g>
   </g>
   <g id="LineCollection_2">
    <path d="M 52.489148 218.040153 
L 52.489148 116.148726 
" clip-path="url(#pa3be4dea6b)" style="fill: none; stroke: #f58518; stroke-opacity: 0.9"/>
    <path d="M 110.596141 258.91285 
L 110.596141 86.900323 
" clip-path="url(#pa3be4dea6b)" style="fill: none; stroke: #f58518; stroke-opacity: 0.9"/>
    <path d="M 168.703134 258.228903 
L 168.703134 75.959976 
" clip-path="url(#pa3be4dea6b)" style="fill: none; stroke: #f58518; stroke-opacity: 0.9"/>
    <path d="M 226.810127 235.001237 
L 226.810127 34.091597 
" clip-path="url(#pa3be4dea6b)" style="fill: none; stroke: #f58518; stroke-opacity: 0.9"/>
    <path d="M 284.91712 287.005722 
L 284.91712 93.680332 
" clip-path="url(#pa3be4dea6b)" style="fill: none; stroke: #f58518; stroke-opacity: 0.9"/>
    <path d="M 343.024113 160.879815 
L 343.024113 64.815656 
" clip-path="url(#pa3be4dea6b)" style="fill: none; stroke: #f58518; stroke-opacity: 0.9"/>
    <path d="M 401.131106 126.183899 
L 401.131106 59.214019 
" clip-path="url(#pa3be4dea6b)" style="fill: none; stroke: #f58518; stroke-opacity: 0.9"/>
   </g>
   <g id="line2d_27">
    <defs>
     <path id="mc0c203cc49" d="M 3 0 
L -3 -0 
" style="stroke: #f58518; stroke-opacity: 0.9"/>
    </defs>
    <g clip-path="url(#pa3be4dea6b)">
     <use xlink:href="#mc0c203cc49" x="52.489148" y="218.040153" style="fill: #1f77b4; fill-opacity: 0.9; stroke: #f58518; stroke-opacity: 0.9"/>
     <use xlink:href="#mc0c203cc49" x="110.596141" y="258.91285" style="fill: #1f77b4; fill-opacity: 0.9; stroke: #f58518; stroke-opacity: 0.9"/>
     <use xlink:href="#mc0c203cc49" x="168.703134" y="258.228903" style="fill: #1f77b4; fill-opacity: 0.9; stroke: #f58518; stroke-opacity: 0.9"/>
     <use xlink:href="#mc0c203cc49" x="226.810127" y="235.001237" style="fill: #1f77b4; fill-opacity: 0.9; stroke: #f58518; stroke-opacity: 0.9"/>
     <use xlink:href="#mc0c203cc49" x="284.91712" y="287.005722" style="fill: #1f77b4; fill-opacity: 0.9; stroke: #f58518; stroke-opacity: 0.9"/>
     <use xlink:href="#mc0c203cc49" x="343.024113" y="160.879815" style="fill: #1f77b4; fill-opacity: 0.9; stroke: #f58518; stroke-opacity: 0.9"/>
     <use xlink:href="#mc0c203cc49" x="401.131106" y="126.183899" style="fill: #1f77b4; fill-opacity: 0.9; stroke: #f58518; stroke-opacity: 0.9"/>
    </g>
   </g>
   <g id="line2d_28">
    <g clip-path="url(#pa3be4dea6b)">
     <use xlink:href="#mc0c203cc49" x="52.489148" y="116.148726" style="fill: #1f77b4; fill-opacity: 0.9; stroke: #f58518; stroke-opacity: 0.9"/>
     <use xlink:href="#mc0c203cc49" x="110.596141" y="86.900323" style="fill: #1f77b4; fill-opacity: 0.9; stroke: #f58518; stroke-opacity: 0.9"/>
     <use xlink:href="#mc0c203cc49" x="168.703134" y="75.959976" style="fill: #1f77b4; fill-opacity: 0.9; stroke: #f58518; stroke-opacity: 0.9"/>
     <use xlink:href="#mc0c203cc49" x="226.810127" y="34.091597" style="fill: #1f77b4; fill-opacity: 0.9; stroke: #f58518; stroke-opacity: 0.9"/>
     <use xlink:href="#mc0c203cc49" x="284.91712" y="93.680332" style="fill: #1f77b4; fill-opacity: 0.9; stroke: #f58518; stroke-opacity: 0.9"/>
     <use xlink:href="#mc0c203cc49" x="343.024113" y="64.815656" style="fill: #1f77b4; fill-opacity: 0.9; stroke: #f58518; stroke-opacity: 0.9"/>
     <use xlink:href="#mc0c203cc49" x="401.131106" y="59.214019" style="fill: #1f77b4; fill-opacity: 0.9; stroke: #f58518; stroke-opacity: 0.9"/>
    </g>
   </g>
   <g id="LineCollection_3">
    <path d="M 52.489148 301.959494 
L 52.489148 78.726561 
" clip-path="url(#pa3be4dea6b)" style="fill: none; stroke: #54a24b; stroke-opacity: 0.9"/>
    <path d="M 110.596141 256.103975 
L 110.596141 96.683774 
" clip-path="url(#pa3be4dea6b)" style="fill: none; stroke: #54a24b; stroke-opacity: 0.9"/>
    <path d="M 168.703134 189.671061 
L 168.703134 91.378189 
" clip-path="url(#pa3be4dea6b)" style="fill: none; stroke: #54a24b; stroke-opacity: 0.9"/>
    <path d="M 226.810127 253.623615 
L 226.810127 127.062439 
" clip-path="url(#pa3be4dea6b)" style="fill: none; stroke: #54a24b; stroke-opacity: 0.9"/>
    <path d="M 284.91712 284.114816 
L 284.91712 119.819826 
" clip-path="url(#pa3be4dea6b)" style="fill: none; stroke: #54a24b; stroke-opacity: 0.9"/>
    <path d="M 343.024113 383.399298 
L 343.024113 164.676586 
" clip-path="url(#pa3be4dea6b)" style="fill: none; stroke: #54a24b; stroke-opacity: 0.9"/>
    <path d="M 401.131106 230.516586 
L 401.131106 66.474552 
" clip-path="url(#pa3be4dea6b)" style="fill: none; stroke: #54a24b; stroke-opacity: 0.9"/>
   </g>
   <g id="line2d_29">
    <defs>
     <path id="m663c0bb3af" d="M 3 0 
L -3 -0 
" style="stroke: #54a24b; stroke-opacity: 0.9"/>
    </defs>
    <g clip-path="url(#pa3be4dea6b)">
     <use xlink:href="#m663c0bb3af" x="52.489148" y="301.959494" style="fill: #1f77b4; fill-opacity: 0.9; stroke: #54a24b; stroke-opacity: 0.9"/>
     <use xlink:href="#m663c0bb3af" x="110.596141" y="256.103975" style="fill: #1f77b4; fill-opacity: 0.9; stroke: #54a24b; stroke-opacity: 0.9"/>
     <use xlink:href="#m663c0bb3af" x="168.703134" y="189.671061" style="fill: #1f77b4; fill-opacity: 0.9; stroke: #54a24b; stroke-opacity: 0.9"/>
     <use xlink:href="#m663c0bb3af" x="226.810127" y="253.623615" style="fill: #1f77b4; fill-opacity: 0.9; stroke: #54a24b; stroke-opacity: 0.9"/>
     <use xlink:href="#m663c0bb3af" x="284.91712" y="284.114816" style="fill: #1f77b4; fill-opacity: 0.9; stroke: #54a24b; stroke-opacity: 0.9"/>
     <use xlink:href="#m663c0bb3af" x="343.024113" y="383.399298" style="fill: #1f77b4; fill-opacity: 0.9; stroke: #54a24b; stroke-opacity: 0.9"/>
     <use xlink:href="#m663c0bb3af" x="401.131106" y="230.516586" style="fill: #1f77b4; fill-opacity: 0.9; stroke: #54a24b; stroke-opacity: 0.9"/>
    </g>
   </g>
   <g id="line2d_30">
    <g clip-path="url(#pa3be4dea6b)">
     <use xlink:href="#m663c0bb3af" x="52.489148" y="78.726561" style="fill: #1f77b4; fill-opacity: 0.9; stroke: #54a24b; stroke-opacity: 0.9"/>
     <use xlink:href="#m663c0bb3af" x="110.596141" y="96.683774" style="fill: #1f77b4; fill-opacity: 0.9; stroke: #54a24b; stroke-opacity: 0.9"/>
     <use xlink:href="#m663c0bb3af" x="168.703134" y="91.378189" style="fill: #1f77b4; fill-opacity: 0.9; stroke: #54a24b; stroke-opacity: 0.9"/>
     <use xlink:href="#m663c0bb3af" x="226.810127" y="127.062439" style="fill: #1f77b4; fill-opacity: 0.9; stroke: #54a24b; stroke-opacity: 0.9"/>
     <use xlink:href="#m663c0bb3af" x="284.91712" y="119.819826" style="fill: #1f77b4; fill-opacity: 0.9; stroke: #54a24b; stroke-opacity: 0.9"/>
     <use xlink:href="#m663c0bb3af" x="343.024113" y="164.676586" style="fill: #1f77b4; fill-opacity: 0.9; stroke: #54a24b; stroke-opacity: 0.9"/>
     <use xlink:href="#m663c0bb3af" x="401.131106" y="66.474552" style="fill: #1f77b4; fill-opacity: 0.9; stroke: #54a24b; stroke-opacity: 0.9"/>
    </g>
   </g>
   <g id="LineCollection_4">
    <path d="M 52.489148 256.103975 
L 52.489148 96.683774 
" clip-path="url(#pa3be4dea6b)" style="fill: none; stroke: #b279a2; stroke-opacity: 0.9"/>
    <path d="M 110.596141 176.378873 
L 110.596141 80.314714 
" clip-path="url(#pa3be4dea6b)" style="fill: none; stroke: #b279a2; stroke-opacity: 0.9"/>
    <path d="M 168.703134 276.80077 
L 168.703134 103.885284 
" clip-path="url(#pa3be4dea6b)" style="fill: none; stroke: #b279a2; stroke-opacity: 0.9"/>
    <path d="M 226.810127 133.988451 
L 226.810127 79.307773 
" clip-path="url(#pa3be4dea6b)" style="fill: none; stroke: #b279a2; stroke-opacity: 0.9"/>
    <path d="M 284.91712 212.661671 
L 284.91712 121.527208 
" clip-path="url(#pa3be4dea6b)" style="fill: none; stroke: #b279a2; stroke-opacity: 0.9"/>
    <path d="M 343.024113 189.413084 
L 343.024113 98.27862 
" clip-path="url(#pa3be4dea6b)" style="fill: none; stroke: #b279a2; stroke-opacity: 0.9"/>
    <path d="M 401.131106 108.975689 
L 401.131106 48.523925 
" clip-path="url(#pa3be4dea6b)" style="fill: none; stroke: #b279a2; stroke-opacity: 0.9"/>
   </g>
   <g id="line2d_31">
    <defs>
     <path id="m7a962a8260" d="M 3 0 
L -3 -0 
" style="stroke: #b279a2; stroke-opacity: 0.9"/>
    </defs>
    <g clip-path="url(#pa3be4dea6b)">
     <use xlink:href="#m7a962a8260" x="52.489148" y="256.103975" style="fill: #1f77b4; fill-opacity: 0.9; stroke: #b279a2; stroke-opacity: 0.9"/>
     <use xlink:href="#m7a962a8260" x="110.596141" y="176.378873" style="fill: #1f77b4; fill-opacity: 0.9; stroke: #b279a2; stroke-opacity: 0.9"/>
     <use xlink:href="#m7a962a8260" x="168.703134" y="276.80077" style="fill: #1f77b4; fill-opacity: 0.9; stroke: #b279a2; stroke-opacity: 0.9"/>
     <use xlink:href="#m7a962a8260" x="226.810127" y="133.988451" style="fill: #1f77b4; fill-opacity: 0.9; stroke: #b279a2; stroke-opacity: 0.9"/>
     <use xlink:href="#m7a962a8260" x="284.91712" y="212.661671" style="fill: #1f77b4; fill-opacity: 0.9; stroke: #b279a2; stroke-opacity: 0.9"/>
     <use xlink:href="#m7a962a8260" x="343.024113" y="189.413084" style="fill: #1f77b4; fill-opacity: 0.9; stroke: #b279a2; stroke-opacity: 0.9"/>
     <use xlink:href="#m7a962a8260" x="401.131106" y="108.975689" style="fill: #1f77b4; fill-opacity: 0.9; stroke: #b279a2; stroke-opacity: 0.9"/>
    </g>
   </g>
   <g id="line2d_32">
    <g clip-path="url(#pa3be4dea6b)">
     <use xlink:href="#m7a962a8260" x="52.489148" y="96.683774" style="fill: #1f77b4; fill-opacity: 0.9; stroke: #b279a2; stroke-opacity: 0.9"/>
     <use xlink:href="#m7a962a8260" x="110.596141" y="80.314714" style="fill: #1f77b4; fill-opacity: 0.9; stroke: #b279a2; stroke-opacity: 0.9"/>
     <use xlink:href="#m7a962a8260" x="168.703134" y="103.885284" style="fill: #1f77b4; fill-opacity: 0.9; stroke: #b279a2; stroke-opacity: 0.9"/>
     <use xlink:href="#m7a962a8260" x="226.810127" y="79.307773" style="fill: #1f77b4; fill-opacity: 0.9; stroke: #b279a2; stroke-opacity: 0.9"/>
     <use xlink:href="#m7a962a8260" x="284.91712" y="121.527208" style="fill: #1f77b4; fill-opacity: 0.9; stroke: #b279a2; stroke-opacity: 0.9"/>
     <use xlink:href="#m7a962a8260" x="343.024113" y="98.27862" style="fill: #1f77b4; fill-opacity: 0.9; stroke: #b279a2; stroke-opacity: 0.9"/>
     <use xlink:href="#m7a962a8260" x="401.131106" y="48.523925" style="fill: #1f77b4; fill-opacity: 0.9; stroke: #b279a2; stroke-opacity: 0.9"/>
    </g>
   </g>
   <g id="patch_4">
    <path d="M 33.604375 350.758281 
L 33.604375 21.558281 
" style="fill: none; stroke: #000000; stroke-width: 0.8; stroke-linejoin: miter; stroke-linecap: square"/>
   </g>
   <g id="patch_5">
    <path d="M 33.604375 350.758281 
L 449.069375 350.758281 
" style="fill: none; stroke: #000000; stroke-width: 0.8; stroke-linejoin: miter; stroke-linecap: square"/>
   </g>
   <g id="text_15">
    <g id="patch_6">
     <path d="M 318.509113 344.528281 
L 367.539113 344.528281 
Q 369.539113 344.528281 369.539113 342.528281 
L 369.539113 334.785781 
Q 369.539113 332.785781 367.539113 332.785781 
L 318.509113 332.785781 
Q 316.509113 332.785781 316.509113 334.785781 
L 316.509113 342.528281 
Q 316.509113 344.528281 318.509113 344.528281 
z
" style="fill: #ffffff; opacity: 0.75; stroke: #d3d3d3; stroke-linejoin: miter"/>
    </g>
    <!-- Main rounds -->
    <g style="fill: #696969" transform="translate(318.509113 340.864531) scale(0.08 -0.08)">
     <defs>
      <path id="DejaVuSans-4d" d="M 628 4666 
L 1569 4666 
L 2759 1491 
L 3956 4666 
L 4897 4666 
L 4897 0 
L 4281 0 
L 4281 4097 
L 3078 897 
L 2444 897 
L 1241 4097 
L 1241 0 
L 628 0 
L 628 4666 
z
" transform="scale(0.015625)"/>
     </defs>
     <use xlink:href="#DejaVuSans-4d"/>
     <use xlink:href="#DejaVuSans-61" transform="translate(86.279297 0)"/>
     <use xlink:href="#DejaVuSans-69" transform="translate(147.558594 0)"/>
     <use xlink:href="#DejaVuSans-6e" transform="translate(175.341797 0)"/>
     <use xlink:href="#DejaVuSans-20" transform="translate(238.720703 0)"/>
     <use xlink:href="#DejaVuSans-72" transform="translate(270.507812 0)"/>
     <use xlink:href="#DejaVuSans-6f" transform="translate(309.371094 0)"/>
     <use xlink:href="#DejaVuSans-75" transform="translate(370.552734 0)"/>
     <use xlink:href="#DejaVuSans-6e" transform="translate(433.931641 0)"/>
     <use xlink:href="#DejaVuSans-64" transform="translate(497.310547 0)"/>
     <use xlink:href="#DejaVuSans-73" transform="translate(560.787109 0)"/>
    </g>
   </g>
   <g id="line2d_33">
    <path d="M 52.489148 201.967321 
L 110.596141 143.845852 
L 168.703134 190.343027 
L 226.810127 97.348677 
L 284.91712 106.648112 
L 343.024113 200.306707 
L 401.131106 138.033705 
" clip-path="url(#pa3be4dea6b)" style="fill: none; stroke: #4c78a8; stroke-width: 1.8; stroke-linecap: square"/>
    <defs>
     <path id="m773f000db8" d="M 0 2.75 
C 0.729309 2.75 1.428845 2.460243 1.944544 1.944544 
C 2.460243 1.428845 2.75 0.729309 2.75 0 
C 2.75 -0.729309 2.460243 -1.428845 1.944544 -1.944544 
C 1.428845 -2.460243 0.729309 -2.75 0 -2.75 
C -0.729309 -2.75 -1.428845 -2.460243 -1.944544 -1.944544 
C -2.460243 -1.428845 -2.75 -0.729309 -2.75 0 
C -2.75 0.729309 -2.460243 1.428845 -1.944544 1.944544 
C -1.428845 2.460243 -0.729309 2.75 0 2.75 
z
" style="stroke: #4c78a8"/>
    </defs>
    <g clip-path="url(#pa3be4dea6b)">
     <use xlink:href="#m773f000db8" x="52.489148" y="201.967321" style="fill: #4c78a8; stroke: #4c78a8"/>
     <use xlink:href="#m773f000db8" x="110.596141" y="143.845852" style="fill: #4c78a8; stroke: #4c78a8"/>
     <use xlink:href="#m773f000db8" x="168.703134" y="190.343027" style="fill: #4c78a8; stroke: #4c78a8"/>
     <use xlink:href="#m773f000db8" x="226.810127" y="97.348677" style="fill: #4c78a8; stroke: #4c78a8"/>
     <use xlink:href="#m773f000db8" x="284.91712" y="106.648112" style="fill: #4c78a8; stroke: #4c78a8"/>
     <use xlink:href="#m773f000db8" x="343.024113" y="200.306707" style="fill: #4c78a8; stroke: #4c78a8"/>
     <use xlink:href="#m773f000db8" x="401.131106" y="138.033705" style="fill: #4c78a8; stroke: #4c78a8"/>
    </g>
   </g>
   <g id="text_16">
    <!-- n=6 -->
    <g style="fill: #4c78a8" transform="translate(45.322054 193.553133) scale(0.068 -0.068)">
     <defs>
      <path id="DejaVuSans-3d" d="M 678 2906 
L 4684 2906 
L 4684 2381 
L 678 2381 
L 678 2906 
z
M 678 1631 
L 4684 1631 
L 4684 1100 
L 678 1100 
L 678 1631 
z
" transform="scale(0.015625)"/>
     </defs>
     <use xlink:href="#DejaVuSans-6e"/>
     <use xlink:href="#DejaVuSans-3d" transform="translate(63.378906 0)"/>
     <use xlink:href="#DejaVuSans-36" transform="translate(147.167969 0)"/>
    </g>
   </g>
   <g id="text_17">
    <!-- n=6 -->
    <g style="fill: #4c78a8" transform="translate(103.429047 135.431664) scale(0.068 -0.068)">
     <use xlink:href="#DejaVuSans-6e"/>
     <use xlink:href="#DejaVuSans-3d" transform="translate(63.378906 0)"/>
     <use xlink:href="#DejaVuSans-36" transform="translate(147.167969 0)"/>
    </g>
   </g>
   <g id="text_18">
    <!-- n=6 -->
    <g style="fill: #4c78a8" transform="translate(161.53604 181.92884) scale(0.068 -0.068)">
     <use xlink:href="#DejaVuSans-6e"/>
     <use xlink:href="#DejaVuSans-3d" transform="translate(63.378906 0)"/>
     <use xlink:href="#DejaVuSans-36" transform="translate(147.167969 0)"/>
    </g>
   </g>
   <g id="text_19">
    <!-- n=6 -->
    <g style="fill: #4c78a8" transform="translate(219.643033 88.934489) scale(0.068 -0.068)">
     <use xlink:href="#DejaVuSans-6e"/>
     <use xlink:href="#DejaVuSans-3d" transform="translate(63.378906 0)"/>
     <use xlink:href="#DejaVuSans-36" transform="translate(147.167969 0)"/>
    </g>
   </g>
   <g id="text_20">
    <!-- n=5 -->
    <g style="fill: #4c78a8" transform="translate(277.750026 98.233924) scale(0.068 -0.068)">
     <use xlink:href="#DejaVuSans-6e"/>
     <use xlink:href="#DejaVuSans-3d" transform="translate(63.378906 0)"/>
     <use xlink:href="#DejaVuSans-35" transform="translate(147.167969 0)"/>
    </g>
   </g>
   <g id="text_21">
    <!-- n=7 -->
    <g style="fill: #4c78a8" transform="translate(335.857019 191.89252) scale(0.068 -0.068)">
     <use xlink:href="#DejaVuSans-6e"/>
     <use xlink:href="#DejaVuSans-3d" transform="translate(63.378906 0)"/>
     <use xlink:href="#DejaVuSans-37" transform="translate(147.167969 0)"/>
    </g>
   </g>
   <g id="text_22">
    <!-- n=4 -->
    <g style="fill: #4c78a8" transform="translate(393.964012 129.619517) scale(0.068 -0.068)">
     <use xlink:href="#DejaVuSans-6e"/>
     <use xlink:href="#DejaVuSans-3d" transform="translate(63.378906 0)"/>
     <use xlink:href="#DejaVuSans-34" transform="translate(147.167969 0)"/>
    </g>
   </g>
   <g id="line2d_34">
    <path d="M 52.489148 167.094439 
L 110.596141 172.906586 
L 168.703134 167.094439 
L 226.810127 134.546417 
L 284.91712 190.343027 
L 343.024113 112.847735 
L 401.131106 92.698959 
" clip-path="url(#pa3be4dea6b)" style="fill: none; stroke: #f58518; stroke-width: 1.8; stroke-linecap: square"/>
    <defs>
     <path id="m9938c9d0af" d="M 0 2.75 
C 0.729309 2.75 1.428845 2.460243 1.944544 1.944544 
C 2.460243 1.428845 2.75 0.729309 2.75 0 
C 2.75 -0.729309 2.460243 -1.428845 1.944544 -1.944544 
C 1.428845 -2.460243 0.729309 -2.75 0 -2.75 
C -0.729309 -2.75 -1.428845 -2.460243 -1.944544 -1.944544 
C -2.460243 -1.428845 -2.75 -0.729309 -2.75 0 
C -2.75 0.729309 -2.460243 1.428845 -1.944544 1.944544 
C -1.428845 2.460243 -0.729309 2.75 0 2.75 
z
" style="stroke: #f58518"/>
    </defs>
    <g clip-path="url(#pa3be4dea6b)">
     <use xlink:href="#m9938c9d0af" x="52.489148" y="167.094439" style="fill: #f58518; stroke: #f58518"/>
     <use xlink:href="#m9938c9d0af" x="110.596141" y="172.906586" style="fill: #f58518; stroke: #f58518"/>
     <use xlink:href="#m9938c9d0af" x="168.703134" y="167.094439" style="fill: #f58518; stroke: #f58518"/>
     <use xlink:href="#m9938c9d0af" x="226.810127" y="134.546417" style="fill: #f58518; stroke: #f58518"/>
     <use xlink:href="#m9938c9d0af" x="284.91712" y="190.343027" style="fill: #f58518; stroke: #f58518"/>
     <use xlink:href="#m9938c9d0af" x="343.024113" y="112.847735" style="fill: #f58518; stroke: #f58518"/>
     <use xlink:href="#m9938c9d0af" x="401.131106" y="92.698959" style="fill: #f58518; stroke: #f58518"/>
    </g>
   </g>
   <g id="text_23">
    <!-- n=9 -->
    <g style="fill: #f58518" transform="translate(45.322054 158.680252) scale(0.068 -0.068)">
     <defs>
      <path id="DejaVuSans-39" d="M 703 97 
L 703 672 
Q 941 559 1184 500 
Q 1428 441 1663 441 
Q 2288 441 2617 861 
Q 2947 1281 2994 2138 
Q 2813 1869 2534 1725 
Q 2256 1581 1919 1581 
Q 1219 1581 811 2004 
Q 403 2428 403 3163 
Q 403 3881 828 4315 
Q 1253 4750 1959 4750 
Q 2769 4750 3195 4129 
Q 3622 3509 3622 2328 
Q 3622 1225 3098 567 
Q 2575 -91 1691 -91 
Q 1453 -91 1209 -44 
Q 966 3 703 97 
z
M 1959 2075 
Q 2384 2075 2632 2365 
Q 2881 2656 2881 3163 
Q 2881 3666 2632 3958 
Q 2384 4250 1959 4250 
Q 1534 4250 1286 3958 
Q 1038 3666 1038 3163 
Q 1038 2656 1286 2365 
Q 1534 2075 1959 2075 
z
" transform="scale(0.015625)"/>
     </defs>
     <use xlink:href="#DejaVuSans-6e"/>
     <use xlink:href="#DejaVuSans-3d" transform="translate(63.378906 0)"/>
     <use xlink:href="#DejaVuSans-39" transform="translate(147.167969 0)"/>
    </g>
   </g>
   <g id="text_24">
    <!-- n=4 -->
    <g style="fill: #f58518" transform="translate(103.429047 164.492399) scale(0.068 -0.068)">
     <use xlink:href="#DejaVuSans-6e"/>
     <use xlink:href="#DejaVuSans-3d" transform="translate(63.378906 0)"/>
     <use xlink:href="#DejaVuSans-34" transform="translate(147.167969 0)"/>
    </g>
   </g>
   <g id="text_25">
    <!-- n=6 -->
    <g style="fill: #f58518" transform="translate(161.53604 158.680252) scale(0.068 -0.068)">
     <use xlink:href="#DejaVuSans-6e"/>
     <use xlink:href="#DejaVuSans-3d" transform="translate(63.378906 0)"/>
     <use xlink:href="#DejaVuSans-36" transform="translate(147.167969 0)"/>
    </g>
   </g>
   <g id="text_26">
    <!-- n=5 -->
    <g style="fill: #f58518" transform="translate(219.643033 126.132229) scale(0.068 -0.068)">
     <use xlink:href="#DejaVuSans-6e"/>
     <use xlink:href="#DejaVuSans-3d" transform="translate(63.378906 0)"/>
     <use xlink:href="#DejaVuSans-35" transform="translate(147.167969 0)"/>
    </g>
   </g>
   <g id="text_27">
    <!-- n=4 -->
    <g style="fill: #f58518" transform="translate(277.750026 181.92884) scale(0.068 -0.068)">
     <use xlink:href="#DejaVuSans-6e"/>
     <use xlink:href="#DejaVuSans-3d" transform="translate(63.378906 0)"/>
     <use xlink:href="#DejaVuSans-34" transform="translate(147.167969 0)"/>
    </g>
   </g>
   <g id="text_28">
    <!-- n=9 -->
    <g style="fill: #f58518" transform="translate(335.857019 104.433548) scale(0.068 -0.068)">
     <use xlink:href="#DejaVuSans-6e"/>
     <use xlink:href="#DejaVuSans-3d" transform="translate(63.378906 0)"/>
     <use xlink:href="#DejaVuSans-39" transform="translate(147.167969 0)"/>
    </g>
   </g>
   <g id="text_29">
    <!-- n=5 -->
    <g style="fill: #f58518" transform="translate(393.964012 84.284772) scale(0.068 -0.068)">
     <use xlink:href="#DejaVuSans-6e"/>
     <use xlink:href="#DejaVuSans-3d" transform="translate(63.378906 0)"/>
     <use xlink:href="#DejaVuSans-35" transform="translate(147.167969 0)"/>
    </g>
   </g>
   <g id="line2d_35">
    <path d="M 52.489148 190.343027 
L 110.596141 176.393874 
L 168.703134 140.524625 
L 226.810127 190.343027 
L 284.91712 201.967321 
L 343.024113 274.037942 
L 401.131106 148.495569 
" clip-path="url(#pa3be4dea6b)" style="fill: none; stroke: #54a24b; stroke-width: 1.8; stroke-linecap: square"/>
    <defs>
     <path id="m3343e982dc" d="M 0 2.75 
C 0.729309 2.75 1.428845 2.460243 1.944544 1.944544 
C 2.460243 1.428845 2.75 0.729309 2.75 0 
C 2.75 -0.729309 2.460243 -1.428845 1.944544 -1.944544 
C 1.428845 -2.460243 0.729309 -2.75 0 -2.75 
C -0.729309 -2.75 -1.428845 -2.460243 -1.944544 -1.944544 
C -2.460243 -1.428845 -2.75 -0.729309 -2.75 0 
C -2.75 0.729309 -2.460243 1.428845 -1.944544 1.944544 
C -1.428845 2.460243 -0.729309 2.75 0 2.75 
z
" style="stroke: #54a24b"/>
    </defs>
    <g clip-path="url(#pa3be4dea6b)">
     <use xlink:href="#m3343e982dc" x="52.489148" y="190.343027" style="fill: #54a24b; stroke: #54a24b"/>
     <use xlink:href="#m3343e982dc" x="110.596141" y="176.393874" style="fill: #54a24b; stroke: #54a24b"/>
     <use xlink:href="#m3343e982dc" x="168.703134" y="140.524625" style="fill: #54a24b; stroke: #54a24b"/>
     <use xlink:href="#m3343e982dc" x="226.810127" y="190.343027" style="fill: #54a24b; stroke: #54a24b"/>
     <use xlink:href="#m3343e982dc" x="284.91712" y="201.967321" style="fill: #54a24b; stroke: #54a24b"/>
     <use xlink:href="#m3343e982dc" x="343.024113" y="274.037942" style="fill: #54a24b; stroke: #54a24b"/>
     <use xlink:href="#m3343e982dc" x="401.131106" y="148.495569" style="fill: #54a24b; stroke: #54a24b"/>
    </g>
   </g>
   <g id="text_30">
    <!-- n=4 -->
    <g style="fill: #54a24b" transform="translate(45.322054 181.92884) scale(0.068 -0.068)">
     <use xlink:href="#DejaVuSans-6e"/>
     <use xlink:href="#DejaVuSans-3d" transform="translate(63.378906 0)"/>
     <use xlink:href="#DejaVuSans-34" transform="translate(147.167969 0)"/>
    </g>
   </g>
   <g id="text_31">
    <!-- n=5 -->
    <g style="fill: #54a24b" transform="translate(103.429047 167.979687) scale(0.068 -0.068)">
     <use xlink:href="#DejaVuSans-6e"/>
     <use xlink:href="#DejaVuSans-3d" transform="translate(63.378906 0)"/>
     <use xlink:href="#DejaVuSans-35" transform="translate(147.167969 0)"/>
    </g>
   </g>
   <g id="text_32">
    <!-- n=7 -->
    <g style="fill: #54a24b" transform="translate(161.53604 132.110438) scale(0.068 -0.068)">
     <use xlink:href="#DejaVuSans-6e"/>
     <use xlink:href="#DejaVuSans-3d" transform="translate(63.378906 0)"/>
     <use xlink:href="#DejaVuSans-37" transform="translate(147.167969 0)"/>
    </g>
   </g>
   <g id="text_33">
    <!-- n=8 -->
    <g style="fill: #54a24b" transform="translate(219.643033 181.92884) scale(0.068 -0.068)">
     <defs>
      <path id="DejaVuSans-38" d="M 2034 2216 
Q 1584 2216 1326 1975 
Q 1069 1734 1069 1313 
Q 1069 891 1326 650 
Q 1584 409 2034 409 
Q 2484 409 2743 651 
Q 3003 894 3003 1313 
Q 3003 1734 2745 1975 
Q 2488 2216 2034 2216 
z
M 1403 2484 
Q 997 2584 770 2862 
Q 544 3141 544 3541 
Q 544 4100 942 4425 
Q 1341 4750 2034 4750 
Q 2731 4750 3128 4425 
Q 3525 4100 3525 3541 
Q 3525 3141 3298 2862 
Q 3072 2584 2669 2484 
Q 3125 2378 3379 2068 
Q 3634 1759 3634 1313 
Q 3634 634 3220 271 
Q 2806 -91 2034 -91 
Q 1263 -91 848 271 
Q 434 634 434 1313 
Q 434 1759 690 2068 
Q 947 2378 1403 2484 
z
M 1172 3481 
Q 1172 3119 1398 2916 
Q 1625 2713 2034 2713 
Q 2441 2713 2670 2916 
Q 2900 3119 2900 3481 
Q 2900 3844 2670 4047 
Q 2441 4250 2034 4250 
Q 1625 4250 1398 4047 
Q 1172 3844 1172 3481 
z
" transform="scale(0.015625)"/>
     </defs>
     <use xlink:href="#DejaVuSans-6e"/>
     <use xlink:href="#DejaVuSans-3d" transform="translate(63.378906 0)"/>
     <use xlink:href="#DejaVuSans-38" transform="translate(147.167969 0)"/>
    </g>
   </g>
   <g id="text_34">
    <!-- n=6 -->
    <g style="fill: #54a24b" transform="translate(277.750026 193.553133) scale(0.068 -0.068)">
     <use xlink:href="#DejaVuSans-6e"/>
     <use xlink:href="#DejaVuSans-3d" transform="translate(63.378906 0)"/>
     <use xlink:href="#DejaVuSans-36" transform="translate(147.167969 0)"/>
    </g>
   </g>
   <g id="text_35">
    <!-- n=5 -->
    <g style="fill: #54a24b" transform="translate(335.857019 265.623755) scale(0.068 -0.068)">
     <use xlink:href="#DejaVuSans-6e"/>
     <use xlink:href="#DejaVuSans-3d" transform="translate(63.378906 0)"/>
     <use xlink:href="#DejaVuSans-35" transform="translate(147.167969 0)"/>
    </g>
   </g>
   <g id="text_36">
    <!-- n=5 -->
    <g style="fill: #54a24b" transform="translate(393.964012 140.081382) scale(0.068 -0.068)">
     <use xlink:href="#DejaVuSans-6e"/>
     <use xlink:href="#DejaVuSans-3d" transform="translate(63.378906 0)"/>
     <use xlink:href="#DejaVuSans-35" transform="translate(147.167969 0)"/>
    </g>
   </g>
   <g id="line2d_36">
    <path d="M 52.489148 176.393874 
L 110.596141 128.346793 
L 168.703134 190.343027 
L 226.810127 106.648112 
L 284.91712 167.094439 
L 343.024113 143.845852 
L 401.131106 78.749807 
" clip-path="url(#pa3be4dea6b)" style="fill: none; stroke: #b279a2; stroke-width: 1.8; stroke-linecap: square"/>
    <defs>
     <path id="ma3cc0774ed" d="M 0 2.75 
C 0.729309 2.75 1.428845 2.460243 1.944544 1.944544 
C 2.460243 1.428845 2.75 0.729309 2.75 0 
C 2.75 -0.729309 2.460243 -1.428845 1.944544 -1.944544 
C 1.428845 -2.460243 0.729309 -2.75 0 -2.75 
C -0.729309 -2.75 -1.428845 -2.460243 -1.944544 -1.944544 
C -2.460243 -1.428845 -2.75 -0.729309 -2.75 0 
C -2.75 0.729309 -2.460243 1.428845 -1.944544 1.944544 
C -1.428845 2.460243 -0.729309 2.75 0 2.75 
z
" style="stroke: #b279a2"/>
    </defs>
    <g clip-path="url(#pa3be4dea6b)">
     <use xlink:href="#ma3cc0774ed" x="52.489148" y="176.393874" style="fill: #b279a2; stroke: #b279a2"/>
     <use xlink:href="#ma3cc0774ed" x="110.596141" y="128.346793" style="fill: #b279a2; stroke: #b279a2"/>
     <use xlink:href="#ma3cc0774ed" x="168.703134" y="190.343027" style="fill: #b279a2; stroke: #b279a2"/>
     <use xlink:href="#ma3cc0774ed" x="226.810127" y="106.648112" style="fill: #b279a2; stroke: #b279a2"/>
     <use xlink:href="#ma3cc0774ed" x="284.91712" y="167.094439" style="fill: #b279a2; stroke: #b279a2"/>
     <use xlink:href="#ma3cc0774ed" x="343.024113" y="143.845852" style="fill: #b279a2; stroke: #b279a2"/>
     <use xlink:href="#ma3cc0774ed" x="401.131106" y="78.749807" style="fill: #b279a2; stroke: #b279a2"/>
    </g>
   </g>
   <g id="text_37">
    <!-- n=5 -->
    <g style="fill: #b279a2" transform="translate(45.322054 167.979687) scale(0.068 -0.068)">
     <use xlink:href="#DejaVuSans-6e"/>
     <use xlink:href="#DejaVuSans-3d" transform="translate(63.378906 0)"/>
     <use xlink:href="#DejaVuSans-35" transform="translate(147.167969 0)"/>
    </g>
   </g>
   <g id="text_38">
    <!-- n=9 -->
    <g style="fill: #b279a2" transform="translate(103.429047 119.932606) scale(0.068 -0.068)">
     <use xlink:href="#DejaVuSans-6e"/>
     <use xlink:href="#DejaVuSans-3d" transform="translate(63.378906 0)"/>
     <use xlink:href="#DejaVuSans-39" transform="translate(147.167969 0)"/>
    </g>
   </g>
   <g id="text_39">
    <!-- n=5 -->
    <g style="fill: #b279a2" transform="translate(161.53604 181.92884) scale(0.068 -0.068)">
     <use xlink:href="#DejaVuSans-6e"/>
     <use xlink:href="#DejaVuSans-3d" transform="translate(63.378906 0)"/>
     <use xlink:href="#DejaVuSans-35" transform="translate(147.167969 0)"/>
    </g>
   </g>
   <g id="text_40">
    <!-- n=5 -->
    <g style="fill: #b279a2" transform="translate(219.643033 98.233924) scale(0.068 -0.068)">
     <use xlink:href="#DejaVuSans-6e"/>
     <use xlink:href="#DejaVuSans-3d" transform="translate(63.378906 0)"/>
     <use xlink:href="#DejaVuSans-35" transform="translate(147.167969 0)"/>
    </g>
   </g>
   <g id="text_41">
    <!-- n=9 -->
    <g style="fill: #b279a2" transform="translate(277.750026 158.680252) scale(0.068 -0.068)">
     <use xlink:href="#DejaVuSans-6e"/>
     <use xlink:href="#DejaVuSans-3d" transform="translate(63.378906 0)"/>
     <use xlink:href="#DejaVuSans-39" transform="translate(147.167969 0)"/>
    </g>
   </g>
   <g id="text_42">
    <!-- n=3 -->
    <g style="fill: #b279a2" transform="translate(335.857019 135.431664) scale(0.068 -0.068)">
     <use xlink:href="#DejaVuSans-6e"/>
     <use xlink:href="#DejaVuSans-3d" transform="translate(63.378906 0)"/>
     <use xlink:href="#DejaVuSans-33" transform="translate(147.167969 0)"/>
    </g>
   </g>
   <g id="text_43">
    <!-- n=10 -->
    <g style="fill: #b279a2" transform="translate(391.800762 70.335619) scale(0.068 -0.068)">
     <defs>
      <path id="DejaVuSans-30" d="M 2034 4250 
Q 1547 4250 1301 3770 
Q 1056 3291 1056 2328 
Q 1056 1369 1301 889 
Q 1547 409 2034 409 
Q 2525 409 2770 889 
Q 3016 1369 3016 2328 
Q 3016 3291 2770 3770 
Q 2525 4250 2034 4250 
z
M 2034 4750 
Q 2819 4750 3233 4129 
Q 3647 3509 3647 2328 
Q 3647 1150 3233 529 
Q 2819 -91 2034 -91 
Q 1250 -91 836 529 
Q 422 1150 422 2328 
Q 422 3509 836 4129 
Q 1250 4750 2034 4750 
z
" transform="scale(0.015625)"/>
     </defs>
     <use xlink:href="#DejaVuSans-6e"/>
     <use xlink:href="#DejaVuSans-3d" transform="translate(63.378906 0)"/>
     <use xlink:href="#DejaVuSans-31" transform="translate(147.167969 0)"/>
     <use xlink:href="#DejaVuSans-30" transform="translate(210.791016 0)"/>
    </g>
   </g>
   <g id="line2d_37">
    <path d="M 284.91712 350.758281 
L 284.91712 21.558281 
" clip-path="url(#pa3be4dea6b)" style="fill: none; stroke-dasharray: 3.7,1.6; stroke-dashoffset: 0; stroke: #1f77b4"/>
   </g>
   <g id="patch_7">
    <path d="M 308.262162 36.743133 
Q 297.500132 41.639436 287.55223 46.165341 
" style="fill: none; stroke: #000000; stroke-width: 0.8; stroke-linecap: round"/>
    <path d="M 291.127533 46.296527 
L 287.55223 46.165341 
L 289.802361 43.383811 
" style="fill: none; stroke: #000000; stroke-width: 0.8; stroke-linecap: round"/>
   </g>
   <g id="text_44">
    <g id="patch_8">
     <path d="M 291.889959 35.415061 
L 356.282459 35.415061 
Q 358.282459 35.415061 358.282459 33.415061 
L 358.282459 25.672561 
Q 358.282459 23.672561 356.282459 23.672561 
L 291.889959 23.672561 
Q 289.889959 23.672561 289.889959 25.672561 
L 289.889959 33.415061 
Q 289.889959 35.415061 291.889959 35.415061 
z
" style="fill: #ffffff; opacity: 0.9; stroke: #d3d3d3; stroke-linejoin: miter"/>
    </g>
    <!-- Injected AI error -->
    <g transform="translate(291.889959 31.751311) scale(0.08 -0.08)">
     <defs>
      <path id="DejaVuSans-49" d="M 628 4666 
L 1259 4666 
L 1259 0 
L 628 0 
L 628 4666 
z
" transform="scale(0.015625)"/>
      <path id="DejaVuSans-6a" d="M 603 3500 
L 1178 3500 
L 1178 -63 
Q 1178 -731 923 -1031 
Q 669 -1331 103 -1331 
L -116 -1331 
L -116 -844 
L 38 -844 
Q 366 -844 484 -692 
Q 603 -541 603 -63 
L 603 3500 
z
M 603 4863 
L 1178 4863 
L 1178 4134 
L 603 4134 
L 603 4863 
z
" transform="scale(0.015625)"/>
      <path id="DejaVuSans-65" d="M 3597 1894 
L 3597 1613 
L 953 1613 
Q 991 1019 1311 708 
Q 1631 397 2203 397 
Q 2534 397 2845 478 
Q 3156 559 3463 722 
L 3463 178 
Q 3153 47 2828 -22 
Q 2503 -91 2169 -91 
Q 1331 -91 842 396 
Q 353 884 353 1716 
Q 353 2575 817 3079 
Q 1281 3584 2069 3584 
Q 2775 3584 3186 3129 
Q 3597 2675 3597 1894 
z
M 3022 2063 
Q 3016 2534 2758 2815 
Q 2500 3097 2075 3097 
Q 1594 3097 1305 2825 
Q 1016 2553 972 2059 
L 3022 2063 
z
" transform="scale(0.015625)"/>
      <path id="DejaVuSans-41" d="M 2188 4044 
L 1331 1722 
L 3047 1722 
L 2188 4044 
z
M 1831 4666 
L 2547 4666 
L 4325 0 
L 3669 0 
L 3244 1197 
L 1141 1197 
L 716 0 
L 50 0 
L 1831 4666 
z
" transform="scale(0.015625)"/>
     </defs>
     <use xlink:href="#DejaVuSans-49"/>
     <use xlink:href="#DejaVuSans-6e" transform="translate(29.492188 0)"/>
     <use xlink:href="#DejaVuSans-6a" transform="translate(92.871094 0)"/>
     <use xlink:href="#DejaVuSans-65" transform="translate(120.654297 0)"/>
     <use xlink:href="#DejaVuSans-63" transform="translate(182.177734 0)"/>
     <use xlink:href="#DejaVuSans-74" transform="translate(237.158203 0)"/>
     <use xlink:href="#DejaVuSans-65" transform="translate(276.367188 0)"/>
     <use xlink:href="#DejaVuSans-64" transform="translate(337.890625 0)"/>
     <use xlink:href="#DejaVuSans-20" transform="translate(401.367188 0)"/>
     <use xlink:href="#DejaVuSans-41" transform="translate(433.154297 0)"/>
     <use xlink:href="#DejaVuSans-49" transform="translate(501.5625 0)"/>
     <use xlink:href="#DejaVuSans-20" transform="translate(531.054688 0)"/>
     <use xlink:href="#DejaVuSans-65" transform="translate(562.841797 0)"/>
     <use xlink:href="#DejaVuSans-72" transform="translate(624.365234 0)"/>
     <use xlink:href="#DejaVuSans-72" transform="translate(663.728516 0)"/>
     <use xlink:href="#DejaVuSans-6f" transform="translate(702.591797 0)"/>
     <use xlink:href="#DejaVuSans-72" transform="translate(763.773438 0)"/>
    </g>
   </g>
   <g id="text_45">
    <!-- Participant Satisfaction by Round and Workflow -->
    <g transform="translate(111.128672 15.558281) scale(0.11 -0.11)">
     <defs>
      <path id="DejaVuSans-50" d="M 1259 4147 
L 1259 2394 
L 2053 2394 
Q 2494 2394 2734 2622 
Q 2975 2850 2975 3272 
Q 2975 3691 2734 3919 
Q 2494 4147 2053 4147 
L 1259 4147 
z
M 628 4666 
L 2053 4666 
Q 2838 4666 3239 4311 
Q 3641 3956 3641 3272 
Q 3641 2581 3239 2228 
Q 2838 1875 2053 1875 
L 1259 1875 
L 1259 0 
L 628 0 
L 628 4666 
z
" transform="scale(0.015625)"/>
      <path id="DejaVuSans-70" d="M 1159 525 
L 1159 -1331 
L 581 -1331 
L 581 3500 
L 1159 3500 
L 1159 2969 
Q 1341 3281 1617 3432 
Q 1894 3584 2278 3584 
Q 2916 3584 3314 3078 
Q 3713 2572 3713 1747 
Q 3713 922 3314 415 
Q 2916 -91 2278 -91 
Q 1894 -91 1617 61 
Q 1341 213 1159 525 
z
M 3116 1747 
Q 3116 2381 2855 2742 
Q 2594 3103 2138 3103 
Q 1681 3103 1420 2742 
Q 1159 2381 1159 1747 
Q 1159 1113 1420 752 
Q 1681 391 2138 391 
Q 2594 391 2855 752 
Q 3116 1113 3116 1747 
z
" transform="scale(0.015625)"/>
      <path id="DejaVuSans-62" d="M 3116 1747 
Q 3116 2381 2855 2742 
Q 2594 3103 2138 3103 
Q 1681 3103 1420 2742 
Q 1159 2381 1159 1747 
Q 1159 1113 1420 752 
Q 1681 391 2138 391 
Q 2594 391 2855 752 
Q 3116 1113 3116 1747 
z
M 1159 2969 
Q 1341 3281 1617 3432 
Q 1894 3584 2278 3584 
Q 2916 3584 3314 3078 
Q 3713 2572 3713 1747 
Q 3713 922 3314 415 
Q 2916 -91 2278 -91 
Q 1894 -91 1617 61 
Q 1341 213 1159 525 
L 1159 0 
L 581 0 
L 581 4863 
L 1159 4863 
L 1159 2969 
z
" transform="scale(0.015625)"/>
      <path id="DejaVuSans-79" d="M 2059 -325 
Q 1816 -950 1584 -1140 
Q 1353 -1331 966 -1331 
L 506 -1331 
L 506 -850 
L 844 -850 
Q 1081 -850 1212 -737 
Q 1344 -625 1503 -206 
L 1606 56 
L 191 3500 
L 800 3500 
L 1894 763 
L 2988 3500 
L 3597 3500 
L 2059 -325 
z
" transform="scale(0.015625)"/>
      <path id="DejaVuSans-57" d="M 213 4666 
L 850 4666 
L 1831 722 
L 2809 4666 
L 3519 4666 
L 4500 722 
L 5478 4666 
L 6119 4666 
L 4947 0 
L 4153 0 
L 3169 4050 
L 2175 0 
L 1381 0 
L 213 4666 
z
" transform="scale(0.015625)"/>
      <path id="DejaVuSans-6b" d="M 581 4863 
L 1159 4863 
L 1159 1991 
L 2875 3500 
L 3609 3500 
L 1753 1863 
L 3688 0 
L 2938 0 
L 1159 1709 
L 1159 0 
L 581 0 
L 581 4863 
z
" transform="scale(0.015625)"/>
      <path id="DejaVuSans-6c" d="M 603 4863 
L 1178 4863 
L 1178 0 
L 603 0 
L 603 4863 
z
" transform="scale(0.015625)"/>
      <path id="DejaVuSans-77" d="M 269 3500 
L 844 3500 
L 1563 769 
L 2278 3500 
L 2956 3500 
L 3675 769 
L 4391 3500 
L 4966 3500 
L 4050 0 
L 3372 0 
L 2619 2869 
L 1863 0 
L 1184 0 
L 269 3500 
z
" transform="scale(0.015625)"/>
     </defs>
     <use xlink:href="#DejaVuSans-50"/>
     <use xlink:href="#DejaVuSans-61" transform="translate(55.802734 0)"/>
     <use xlink:href="#DejaVuSans-72" transform="translate(117.082031 0)"/>
     <use xlink:href="#DejaVuSans-74" transform="translate(158.195312 0)"/>
     <use xlink:href="#DejaVuSans-69" transform="translate(197.404297 0)"/>
     <use xlink:href="#DejaVuSans-63" transform="translate(225.1875 0)"/>
     <use xlink:href="#DejaVuSans-69" transform="translate(280.167969 0)"/>
     <use xlink:href="#DejaVuSans-70" transform="translate(307.951172 0)"/>
     <use xlink:href="#DejaVuSans-61" transform="translate(371.427734 0)"/>
     <use xlink:href="#DejaVuSans-6e" transform="translate(432.707031 0)"/>
     <use xlink:href="#DejaVuSans-74" transform="translate(496.085938 0)"/>
     <use xlink:href="#DejaVuSans-20" transform="translate(535.294922 0)"/>
     <use xlink:href="#DejaVuSans-53" transform="translate(567.082031 0)"/>
     <use xlink:href="#DejaVuSans-61" transform="translate(630.558594 0)"/>
     <use xlink:href="#DejaVuSans-74" transform="translate(691.837891 0)"/>
     <use xlink:href="#DejaVuSans-69" transform="translate(731.046875 0)"/>
     <use xlink:href="#DejaVuSans-73" transform="translate(758.830078 0)"/>
     <use xlink:href="#DejaVuSans-66" transform="translate(810.929688 0)"/>
     <use xlink:href="#DejaVuSans-61" transform="translate(846.134766 0)"/>
     <use xlink:href="#DejaVuSans-63" transform="translate(907.414062 0)"/>
     <use xlink:href="#DejaVuSans-74" transform="translate(962.394531 0)"/>
     <use xlink:href="#DejaVuSans-69" transform="translate(1001.603516 0)"/>
     <use xlink:href="#DejaVuSans-6f" transform="translate(1029.386719 0)"/>
     <use xlink:href="#DejaVuSans-6e" transform="translate(1090.568359 0)"/>
     <use xlink:href="#DejaVuSans-20" transform="translate(1153.947266 0)"/>
     <use xlink:href="#DejaVuSans-62" transform="translate(1185.734375 0)"/>
     <use xlink:href="#DejaVuSans-79" transform="translate(1249.210938 0)"/>
     <use xlink:href="#DejaVuSans-20" transform="translate(1308.390625 0)"/>
     <use xlink:href="#DejaVuSans-52" transform="translate(1340.177734 0)"/>
     <use xlink:href="#DejaVuSans-6f" transform="translate(1405.160156 0)"/>
     <use xlink:href="#DejaVuSans-75" transform="translate(1466.341797 0)"/>
     <use xlink:href="#DejaVuSans-6e" transform="translate(1529.720703 0)"/>
     <use xlink:href="#DejaVuSans-64" transform="translate(1593.099609 0)"/>
     <use xlink:href="#DejaVuSans-20" transform="translate(1656.576172 0)"/>
     <use xlink:href="#DejaVuSans-61" transform="translate(1688.363281 0)"/>
     <use xlink:href="#DejaVuSans-6e" transform="translate(1749.642578 0)"/>
     <use xlink:href="#DejaVuSans-64" transform="translate(1813.021484 0)"/>
     <use xlink:href="#DejaVuSans-20" transform="translate(1876.498047 0)"/>
     <use xlink:href="#DejaVuSans-57" transform="translate(1908.285156 0)"/>
     <use xlink:href="#DejaVuSans-6f" transform="translate(2001.287109 0)"/>
     <use xlink:href="#DejaVuSans-72" transform="translate(2062.46875 0)"/>
     <use xlink:href="#DejaVuSans-6b" transform="translate(2103.582031 0)"/>
     <use xlink:href="#DejaVuSans-66" transform="translate(2161.492188 0)"/>
     <use xlink:href="#DejaVuSans-6c" transform="translate(2196.697266 0)"/>
     <use xlink:href="#DejaVuSans-6f" transform="translate(2224.480469 0)"/>
     <use xlink:href="#DejaVuSans-77" transform="translate(2285.662109 0)"/>
    </g>
   </g>
   <g id="legend_1">
    <g id="patch_9">
     <path d="M 463.678675 95.777656 
L 584.920863 95.777656 
Q 586.720863 95.777656 586.720863 93.977656 
L 586.720863 27.858281 
Q 586.720863 26.058281 584.920863 26.058281 
L 463.678675 26.058281 
Q 461.878675 26.058281 461.878675 27.858281 
L 461.878675 93.977656 
Q 461.878675 95.777656 463.678675 95.777656 
z
" style="fill: #ffffff; opacity: 0.8; stroke: #cccccc; stroke-linejoin: miter"/>
    </g>
    <g id="text_46">
     <!-- Workflow used in round -->
     <g transform="translate(465.478675 37.256719) scale(0.1 -0.1)">
      <use xlink:href="#DejaVuSans-57"/>
      <use xlink:href="#DejaVuSans-6f" transform="translate(93.001953 0)"/>
      <use xlink:href="#DejaVuSans-72" transform="translate(154.183594 0)"/>
      <use xlink:href="#DejaVuSans-6b" transform="translate(195.296875 0)"/>
      <use xlink:href="#DejaVuSans-66" transform="translate(253.207031 0)"/>
      <use xlink:href="#DejaVuSans-6c" transform="translate(288.412109 0)"/>
      <use xlink:href="#DejaVuSans-6f" transform="translate(316.195312 0)"/>
      <use xlink:href="#DejaVuSans-77" transform="translate(377.376953 0)"/>
      <use xlink:href="#DejaVuSans-20" transform="translate(459.164062 0)"/>
      <use xlink:href="#DejaVuSans-75" transform="translate(490.951172 0)"/>
      <use xlink:href="#DejaVuSans-73" transform="translate(554.330078 0)"/>
      <use xlink:href="#DejaVuSans-65" transform="translate(606.429688 0)"/>
      <use xlink:href="#DejaVuSans-64" transform="translate(667.953125 0)"/>
      <use xlink:href="#DejaVuSans-20" transform="translate(731.429688 0)"/>
      <use xlink:href="#DejaVuSans-69" transform="translate(763.216797 0)"/>
      <use xlink:href="#DejaVuSans-6e" transform="translate(791 0)"/>
      <use xlink:href="#DejaVuSans-20" transform="translate(854.378906 0)"/>
      <use xlink:href="#DejaVuSans-72" transform="translate(886.166016 0)"/>
      <use xlink:href="#DejaVuSans-6f" transform="translate(925.029297 0)"/>
      <use xlink:href="#DejaVuSans-75" transform="translate(986.210938 0)"/>
      <use xlink:href="#DejaVuSans-6e" transform="translate(1049.589844 0)"/>
      <use xlink:href="#DejaVuSans-64" transform="translate(1112.96875 0)"/>
     </g>
    </g>
    <g id="line2d_38">
     <path d="M 484.244144 47.525 
L 493.244144 47.525 
L 502.244144 47.525 
" style="fill: none; stroke: #4c78a8; stroke-width: 1.8; stroke-linecap: square"/>
     <g>
      <use xlink:href="#m773f000db8" x="493.244144" y="47.525" style="fill: #4c78a8; stroke: #4c78a8"/>
     </g>
    </g>
    <g id="text_47">
     <!-- Human-only -->
     <g transform="translate(509.444144 50.675) scale(0.09 -0.09)">
      <defs>
       <path id="DejaVuSans-48" d="M 628 4666 
L 1259 4666 
L 1259 2753 
L 3553 2753 
L 3553 4666 
L 4184 4666 
L 4184 0 
L 3553 0 
L 3553 2222 
L 1259 2222 
L 1259 0 
L 628 0 
L 628 4666 
z
" transform="scale(0.015625)"/>
       <path id="DejaVuSans-6d" d="M 3328 2828 
Q 3544 3216 3844 3400 
Q 4144 3584 4550 3584 
Q 5097 3584 5394 3201 
Q 5691 2819 5691 2113 
L 5691 0 
L 5113 0 
L 5113 2094 
Q 5113 2597 4934 2840 
Q 4756 3084 4391 3084 
Q 3944 3084 3684 2787 
Q 3425 2491 3425 1978 
L 3425 0 
L 2847 0 
L 2847 2094 
Q 2847 2600 2669 2842 
Q 2491 3084 2119 3084 
Q 1678 3084 1418 2786 
Q 1159 2488 1159 1978 
L 1159 0 
L 581 0 
L 581 3500 
L 1159 3500 
L 1159 2956 
Q 1356 3278 1631 3431 
Q 1906 3584 2284 3584 
Q 2666 3584 2933 3390 
Q 3200 3197 3328 2828 
z
" transform="scale(0.015625)"/>
      </defs>
      <use xlink:href="#DejaVuSans-48"/>
      <use xlink:href="#DejaVuSans-75" transform="translate(75.195312 0)"/>
      <use xlink:href="#DejaVuSans-6d" transform="translate(138.574219 0)"/>
      <use xlink:href="#DejaVuSans-61" transform="translate(235.986328 0)"/>
      <use xlink:href="#DejaVuSans-6e" transform="translate(297.265625 0)"/>
      <use xlink:href="#DejaVuSans-2d" transform="translate(360.644531 0)"/>
      <use xlink:href="#DejaVuSans-6f" transform="translate(398.603516 0)"/>
      <use xlink:href="#DejaVuSans-6e" transform="translate(459.785156 0)"/>
      <use xlink:href="#DejaVuSans-6c" transform="translate(523.164062 0)"/>
      <use xlink:href="#DejaVuSans-79" transform="translate(550.947266 0)"/>
     </g>
    </g>
    <g id="line2d_39">
     <path d="M 484.244144 60.735312 
L 493.244144 60.735312 
L 502.244144 60.735312 
" style="fill: none; stroke: #f58518; stroke-width: 1.8; stroke-linecap: square"/>
     <g>
      <use xlink:href="#m9938c9d0af" x="493.244144" y="60.735312" style="fill: #f58518; stroke: #f58518"/>
     </g>
    </g>
    <g id="text_48">
     <!-- AI-only -->
     <g transform="translate(509.444144 63.885312) scale(0.09 -0.09)">
      <use xlink:href="#DejaVuSans-41"/>
      <use xlink:href="#DejaVuSans-49" transform="translate(68.408203 0)"/>
      <use xlink:href="#DejaVuSans-2d" transform="translate(97.900391 0)"/>
      <use xlink:href="#DejaVuSans-6f" transform="translate(135.859375 0)"/>
      <use xlink:href="#DejaVuSans-6e" transform="translate(197.041016 0)"/>
      <use xlink:href="#DejaVuSans-6c" transform="translate(260.419922 0)"/>
      <use xlink:href="#DejaVuSans-79" transform="translate(288.203125 0)"/>
     </g>
    </g>
    <g id="line2d_40">
     <path d="M 484.244144 73.945625 
L 493.244144 73.945625 
L 502.244144 73.945625 
" style="fill: none; stroke: #54a24b; stroke-width: 1.8; stroke-linecap: square"/>
     <g>
      <use xlink:href="#m3343e982dc" x="493.244144" y="73.945625" style="fill: #54a24b; stroke: #54a24b"/>
     </g>
    </g>
    <g id="text_49">
     <!-- Human → AI -->
     <g transform="translate(509.444144 77.095625) scale(0.09 -0.09)">
      <defs>
       <path id="DejaVuSans-2192" d="M 5050 2147 
L 5050 1866 
L 3822 638 
L 3447 1013 
L 4175 1741 
L 366 1741 
L 366 2272 
L 4175 2272 
L 3447 3000 
L 3822 3375 
L 5050 2147 
z
" transform="scale(0.015625)"/>
      </defs>
      <use xlink:href="#DejaVuSans-48"/>
      <use xlink:href="#DejaVuSans-75" transform="translate(75.195312 0)"/>
      <use xlink:href="#DejaVuSans-6d" transform="translate(138.574219 0)"/>
      <use xlink:href="#DejaVuSans-61" transform="translate(235.986328 0)"/>
      <use xlink:href="#DejaVuSans-6e" transform="translate(297.265625 0)"/>
      <use xlink:href="#DejaVuSans-20" transform="translate(360.644531 0)"/>
      <use xlink:href="#DejaVuSans-2192" transform="translate(392.431641 0)"/>
      <use xlink:href="#DejaVuSans-20" transform="translate(476.220703 0)"/>
      <use xlink:href="#DejaVuSans-41" transform="translate(508.007812 0)"/>
      <use xlink:href="#DejaVuSans-49" transform="translate(576.416016 0)"/>
     </g>
    </g>
    <g id="line2d_41">
     <path d="M 484.244144 87.155937 
L 493.244144 87.155937 
L 502.244144 87.155937 
" style="fill: none; stroke: #b279a2; stroke-width: 1.8; stroke-linecap: square"/>
     <g>
      <use xlink:href="#ma3cc0774ed" x="493.244144" y="87.155937" style="fill: #b279a2; stroke: #b279a2"/>
     </g>
    </g>
    <g id="text_50">
     <!-- AI → Human -->
     <g transform="translate(509.444144 90.305937) scale(0.09 -0.09)">
      <use xlink:href="#DejaVuSans-41"/>
      <use xlink:href="#DejaVuSans-49" transform="translate(68.408203 0)"/>
      <use xlink:href="#DejaVuSans-20" transform="translate(97.900391 0)"/>
      <use xlink:href="#DejaVuSans-2192" transform="translate(129.6875 0)"/>
      <use xlink:href="#DejaVuSans-20" transform="translate(213.476562 0)"/>
      <use xlink:href="#DejaVuSans-48" transform="translate(245.263672 0)"/>
      <use xlink:href="#DejaVuSans-75" transform="translate(320.458984 0)"/>
      <use xlink:href="#DejaVuSans-6d" transform="translate(383.837891 0)"/>
      <use xlink:href="#DejaVuSans-61" transform="translate(481.25 0)"/>
      <use xlink:href="#DejaVuSans-6e" transform="translate(542.529297 0)"/>
     </g>
    </g>
   </g>
  </g>
 </g>
 <defs>
  <clipPath id="pa3be4dea6b">
   <rect x="33.604375" y="21.558281" width="415.465" height="329.2"/>
  </clipPath>
 </defs>
</svg>
